<svg width="212" height="61" viewBox="0 0 212 61" fill="none" xmlns="http://www.w3.org/2000/svg">
<g clip-path="url(#clip0_335_62)">
<path d="M52.5002 51.7058C35.7715 69.1891 5.93671 60.7033 0.744549 37.1403C-4.43101 13.6516 18.2818 -6.28615 40.9448 1.85238C61.6615 9.29213 67.7294 35.7896 52.5002 51.7058ZM32.8938 48.1259H36.9006C37.0002 48.1259 37.5886 47.9859 37.7308 47.9455C38.4404 47.7462 38.7935 47.2488 38.8159 46.5046L34.7701 30.3676C34.3846 30.4282 33.5342 30.2383 33.249 30.4693C32.1372 31.7991 31.1835 33.2616 30.4753 34.8433C29.8963 33.5099 29.1542 32.2228 28.2301 31.0959C28.0301 30.8519 27.7558 30.4037 27.4475 30.3625C27.1559 30.3235 24.6356 30.3134 24.5157 30.3979L19.7502 47.2929C19.7863 47.6444 20.0498 47.8754 20.387 47.9621C20.8324 48.0761 21.75 48.1072 22.2431 48.1274C23.0769 48.1613 24.1281 48.0234 24.9186 48.1245C25.024 48.1382 25.1424 48.1794 25.0254 48.2689L13.4752 48.3042C20.8339 56.7712 33.1515 62.35 44.1336 57.522C51.0592 54.4771 55.2688 47.931 56.4181 40.5692C58.6843 26.0492 49.6666 10.4313 36.5302 4.3169C23.3628 -1.81118 9.145 3.3272 5.24943 17.7043C2.38046 28.2921 6.24282 39.9289 13.2059 48.0321C13.2709 48.0927 13.3568 48.1072 13.442 48.1194C14.1877 48.2263 15.968 48.1837 16.7578 48.1252C17.4458 48.0747 18.9316 47.7751 19.2651 47.0951L29.6285 10.4623C29.7794 10.0876 28.952 7.88951 29.0676 7.77328C30.9482 7.51268 32.7992 7.05284 34.6099 6.49266C35.365 6.25877 36.1079 5.93392 36.8645 5.75128L47.3686 47.1882C47.6025 47.6293 48.0754 47.8567 48.5454 47.9606C48.9872 48.0581 49.65 48.1079 50.1091 48.1295C50.9357 48.1685 51.7782 48.0646 52.6027 48.162C52.4352 48.2393 52.1045 48.266 51.9197 48.2739C51.0238 48.3151 50.1322 48.2039 49.2493 48.1945C45.2584 48.1519 41.2488 48.1541 37.2579 48.1945C35.9339 48.2082 34.5456 48.3808 33.2144 48.2739C33.088 48.2638 32.9357 48.2876 32.8931 48.1259H32.8938ZM34.6265 30.0788L29.8978 11.3091L24.5915 30.0788H27.732C28.9131 28.8299 29.7989 27.3205 30.4753 25.7468C31.1828 27.3046 32.078 28.7946 33.2187 30.0788H34.6265Z" fill="#D9FFDE"/>
</g>
<path d="M78.067 41.3338L84.947 21.6005H88.947L95.8537 41.3338H92.5737L91.0537 36.9072H82.867L81.347 41.3338H78.067ZM83.8003 34.1338H90.1203L86.9737 24.9338L83.8003 34.1338ZM98.6822 41.3338V27.2005H101.722V29.0672H101.829C102.096 28.5161 102.513 28.0272 103.082 27.6005C103.669 27.1561 104.513 26.9338 105.616 26.9338C105.953 26.9338 106.238 26.9516 106.469 26.9872C106.718 27.0227 106.842 27.0405 106.842 27.0405V29.9738C106.842 29.9738 106.709 29.9561 106.442 29.9205C106.176 29.8849 105.873 29.8672 105.536 29.8672C104.291 29.8672 103.34 30.2227 102.682 30.9338C102.042 31.6272 101.722 32.7561 101.722 34.3205V41.3338H98.6822ZM115.702 41.6005C114.582 41.6005 113.684 41.3961 113.009 40.9872C112.333 40.5783 111.844 40.0361 111.542 39.3605C111.258 38.6672 111.116 37.9205 111.116 37.1205V29.6538H108.636V27.2005H111.116V23.6805H114.156V27.2005H117.462V29.6538H114.156V37.0672C114.156 38.4005 114.893 39.0672 116.369 39.0672C116.742 39.0672 117.089 39.0405 117.409 38.9872C117.729 38.9338 117.889 38.9072 117.889 38.9072V41.3872C117.889 41.3872 117.667 41.4227 117.222 41.4938C116.796 41.5649 116.289 41.6005 115.702 41.6005ZM122.893 24.7738C122.342 24.7738 121.889 24.5872 121.533 24.2138C121.178 23.8405 121 23.4049 121 22.9072C121 22.3916 121.178 21.9561 121.533 21.6005C121.889 21.2272 122.342 21.0405 122.893 21.0405C123.444 21.0405 123.898 21.2272 124.253 21.6005C124.627 21.9561 124.813 22.3916 124.813 22.9072C124.813 23.4227 124.627 23.8672 124.253 24.2405C123.898 24.5961 123.444 24.7738 122.893 24.7738ZM121.4 41.3338V27.2005H124.44V41.3338H121.4ZM133.784 41.6005C132.664 41.6005 131.739 41.4494 131.01 41.1472C130.299 40.8272 129.73 40.4449 129.304 40.0005C128.877 39.5383 128.557 39.0761 128.344 38.6138C128.148 38.1516 128.024 37.7694 127.97 37.4672C127.917 37.1472 127.89 36.9872 127.89 36.9872H130.85C130.85 36.9872 130.877 37.1027 130.93 37.3338C131.001 37.5472 131.135 37.7961 131.33 38.0805C131.526 38.3649 131.828 38.6227 132.237 38.8538C132.646 39.0672 133.188 39.1738 133.864 39.1738C134.681 39.1738 135.286 38.9872 135.677 38.6138C136.086 38.2405 136.29 37.8138 136.29 37.3338C136.29 36.8716 136.121 36.5072 135.784 36.2405C135.446 35.9738 134.966 35.7694 134.344 35.6272L132.424 35.2005C131.677 35.0227 130.975 34.7827 130.317 34.4805C129.677 34.1605 129.153 33.7427 128.744 33.2272C128.353 32.6938 128.157 32.0094 128.157 31.1738C128.157 29.9472 128.619 28.9338 129.544 28.1338C130.468 27.3338 131.713 26.9338 133.277 26.9338C134.29 26.9338 135.126 27.0761 135.784 27.3605C136.459 27.6449 136.993 28.0005 137.384 28.4272C137.775 28.8361 138.068 29.2538 138.264 29.6805C138.459 30.0894 138.584 30.4361 138.637 30.7205C138.708 30.9872 138.744 31.1205 138.744 31.1205H135.89C135.89 31.1205 135.864 31.0316 135.81 30.8538C135.757 30.6761 135.641 30.4716 135.464 30.2405C135.286 29.9916 135.019 29.7783 134.664 29.6005C134.326 29.4049 133.864 29.3072 133.277 29.3072C132.477 29.3072 131.899 29.4849 131.544 29.8405C131.188 30.1961 131.01 30.5783 131.01 30.9872C131.01 31.4138 131.179 31.7516 131.517 32.0005C131.873 32.2316 132.335 32.4094 132.904 32.5338L134.797 32.9605C136.059 33.2449 137.099 33.7161 137.917 34.3738C138.735 35.0138 139.144 35.9472 139.144 37.1738C139.144 37.9916 138.93 38.7383 138.504 39.4138C138.095 40.0716 137.49 40.6049 136.69 41.0138C135.89 41.4049 134.921 41.6005 133.784 41.6005ZM148.072 41.6005C146.952 41.6005 146.054 41.3961 145.379 40.9872C144.703 40.5783 144.214 40.0361 143.912 39.3605C143.628 38.6672 143.485 37.9205 143.485 37.1205V29.6538H141.005V27.2005H143.485V23.6805H146.525V27.2005H149.832V29.6538H146.525V37.0672C146.525 38.4005 147.263 39.0672 148.739 39.0672C149.112 39.0672 149.459 39.0405 149.779 38.9872C150.099 38.9338 150.259 38.9072 150.259 38.9072V41.3872C150.259 41.3872 150.036 41.4227 149.592 41.4938C149.165 41.5649 148.659 41.6005 148.072 41.6005ZM153.845 41.3338V21.6005H160.591C162.174 21.6005 163.56 21.8849 164.751 22.4538C165.942 23.0049 166.929 23.7516 167.711 24.6938C168.511 25.6361 169.107 26.6938 169.498 27.8672C169.907 29.0405 170.111 30.2405 170.111 31.4672C170.111 32.6938 169.907 33.8938 169.498 35.0672C169.107 36.2405 168.511 37.2983 167.711 38.2405C166.929 39.1827 165.942 39.9383 164.751 40.5072C163.56 41.0583 162.174 41.3338 160.591 41.3338H153.845ZM160.458 24.3205H156.965V38.5872H160.458C161.56 38.5872 162.52 38.3916 163.338 38.0005C164.156 37.5916 164.831 37.0494 165.365 36.3738C165.898 35.6805 166.298 34.9161 166.565 34.0805C166.849 33.2272 166.991 32.3561 166.991 31.4672C166.991 30.5783 166.849 29.7072 166.565 28.8538C166.298 28.0005 165.898 27.2361 165.365 26.5605C164.831 25.8849 164.156 25.3427 163.338 24.9338C162.52 24.5249 161.56 24.3205 160.458 24.3205ZM171.452 41.3338L178.332 21.6005H182.332L189.239 41.3338H185.959L184.439 36.9072H176.252L174.732 41.3338H171.452ZM177.186 34.1338H183.506L180.359 24.9338L177.186 34.1338ZM200.305 41.6005C198.723 41.6005 197.328 41.3161 196.119 40.7472C194.91 40.1605 193.896 39.3872 193.079 38.4272C192.261 37.4494 191.648 36.3561 191.239 35.1472C190.83 33.9383 190.625 32.7027 190.625 31.4405C190.625 30.1783 190.83 28.9516 191.239 27.7605C191.648 26.5516 192.261 25.4672 193.079 24.5072C193.896 23.5472 194.91 22.7827 196.119 22.2138C197.328 21.6272 198.723 21.3338 200.305 21.3338C201.905 21.3338 203.31 21.6272 204.519 22.2138C205.728 22.7827 206.741 23.5472 207.559 24.5072C208.376 25.4672 208.99 26.5516 209.399 27.7605C209.808 28.9516 210.012 30.1783 210.012 31.4405C210.012 32.7027 209.808 33.9383 209.399 35.1472C208.99 36.3561 208.376 37.4494 207.559 38.4272C206.741 39.3872 205.728 40.1605 204.519 40.7472C203.31 41.3161 201.905 41.6005 200.305 41.6005ZM200.305 38.7472C201.728 38.7472 202.919 38.4005 203.879 37.7072C204.839 36.9961 205.568 36.0894 206.065 34.9872C206.563 33.8672 206.812 32.6849 206.812 31.4405C206.812 30.5161 206.67 29.6272 206.385 28.7738C206.101 27.9027 205.683 27.1205 205.132 26.4272C204.599 25.7338 203.923 25.1916 203.105 24.8005C202.305 24.3916 201.372 24.1872 200.305 24.1872C199.256 24.1872 198.323 24.3916 197.505 24.8005C196.705 25.1916 196.03 25.7338 195.479 26.4272C194.945 27.1205 194.536 27.9027 194.252 28.7738C193.968 29.6272 193.825 30.5161 193.825 31.4405C193.825 32.6849 194.074 33.8672 194.572 34.9872C195.07 36.0894 195.799 36.9961 196.759 37.7072C197.719 38.4005 198.901 38.7472 200.305 38.7472Z" fill="#D9FFDE"/>
<defs>
<clipPath id="clip0_335_62">
<rect width="61" height="61" fill="white" transform="translate(0.000320435 -0.000152588)"/>
</clipPath>
</defs>
</svg>
