<svg width="160" height="120" viewBox="0 0 160 120" fill="none" xmlns="http://www.w3.org/2000/svg">
<mask id="mask0_335_285" style="mask-type:alpha" maskUnits="userSpaceOnUse" x="0" y="0" width="160" height="120">
<rect y="0.569336" width="159.375" height="119" fill="url(#paint0_linear_335_285)"/>
</mask>
<g mask="url(#mask0_335_285)">
<g opacity="0.95">
<mask id="path-2-outside-1_335_285" maskUnits="userSpaceOnUse" x="5.33569" y="12.1777" width="151" height="104" fill="black">
<rect fill="white" x="5.33569" y="12.1777" width="151" height="104"/>
<path d="M77.4569 64.1399C77.4569 71.6572 76.6501 78.171 75.0364 83.6811C73.4228 89.1912 71.1794 93.7567 68.3062 97.3776C65.4725 100.999 62.0877 103.695 58.1519 105.466C54.2555 107.237 50.0245 108.122 45.459 108.122C40.8935 108.122 36.6625 107.237 32.7661 105.466C28.909 103.695 25.5636 100.999 22.7298 97.3776C19.896 93.7567 17.6723 89.1912 16.0586 83.6811C14.4843 78.171 13.6972 71.6572 13.6972 64.1399C13.6972 56.6225 14.4843 50.1088 16.0586 44.5987C17.6723 39.0886 19.896 34.5231 22.7298 30.9021C25.5636 27.2812 28.909 24.6049 32.7661 22.8731C36.6625 21.102 40.8935 20.2165 45.459 20.2165C50.0245 20.2165 54.2555 21.102 58.1519 22.8731C62.0877 24.6049 65.4725 27.2812 68.3062 30.9021C71.1794 34.5231 73.4228 39.0886 75.0364 44.5987C76.6501 50.1088 77.4569 56.6225 77.4569 64.1399ZM58.5652 64.1399C58.5652 58.1968 58.1913 53.3361 57.4435 49.5578C56.6957 45.7401 55.692 42.7489 54.4326 40.5842C53.2125 38.4195 51.8153 36.9436 50.241 36.1564C48.6667 35.3299 47.0727 34.9166 45.459 34.9166C43.8453 34.9166 42.2513 35.3299 40.677 36.1564C39.142 36.9436 37.7645 38.4195 36.5444 40.5842C35.3637 42.7489 34.3994 45.7401 33.6516 49.5578C32.9432 53.3361 32.589 58.1968 32.589 64.1399C32.589 70.1223 32.9432 75.0027 33.6516 78.781C34.3994 82.5594 35.3637 85.5506 36.5444 87.7546C37.7645 89.9193 39.142 91.4149 40.677 92.2414C42.2513 93.0286 43.8453 93.4222 45.459 93.4222C47.0727 93.4222 48.6667 93.0286 50.241 92.2414C51.8153 91.4149 53.2125 89.9193 54.4326 87.7546C55.692 85.5506 56.6957 82.5594 57.4435 78.781C58.1913 75.0027 58.5652 70.1223 58.5652 64.1399ZM113.951 93.6583C115.84 93.6583 117.592 93.3041 119.205 92.5956C120.858 91.8872 122.275 90.9229 123.456 89.7028C124.637 88.4434 125.562 86.9871 126.231 85.3341C126.939 83.6417 127.293 81.8116 127.293 79.8437C127.293 77.6396 126.959 75.6717 126.29 73.94C125.66 72.2082 124.755 70.752 123.574 69.5713C122.393 68.3905 120.957 67.4853 119.264 66.8556C117.611 66.2258 115.761 65.911 113.715 65.911C111.865 65.911 110.173 66.2455 108.638 66.9146C107.103 67.5443 105.764 68.4693 104.623 69.6893C103.521 70.9094 102.655 72.3657 102.025 74.0581C101.396 75.7505 101.081 77.6593 101.081 79.7846C101.081 81.91 101.337 83.8188 101.848 85.5112C102.36 87.2036 103.147 88.6598 104.21 89.8799C105.273 91.1 106.611 92.0446 108.224 92.7137C109.838 93.3434 111.747 93.6583 113.951 93.6583ZM110.999 54.2217C113.754 53.1984 116.824 52.6867 120.209 52.6867C123.318 52.6867 126.388 53.1984 129.419 54.2217C132.449 55.245 135.165 56.8193 137.566 58.9446C139.966 61.07 141.895 63.766 143.351 67.0327C144.847 70.26 145.595 74.0777 145.595 78.4858C145.595 82.5003 144.847 86.3181 143.351 89.939C141.856 93.5205 139.73 96.6692 136.975 99.3849C134.26 102.061 130.973 104.187 127.116 105.761C123.259 107.335 118.989 108.122 114.305 108.122C109.503 108.122 105.194 107.375 101.376 105.879C97.5584 104.344 94.3113 102.219 91.635 99.5029C88.998 96.7873 86.9711 93.5402 85.5542 89.7619C84.1767 85.9835 83.4879 81.8313 83.4879 77.3051C83.4879 68.8432 86.7546 60.2435 93.288 51.506L112.652 25.3527C113.557 24.2113 114.856 23.2274 116.549 22.4008C118.28 21.5743 120.248 21.1611 122.452 21.1611H138.746L113.242 51.6241L110.999 54.2217Z"/>
</mask>
<path d="M75.0364 83.6811L67.3589 81.4327L75.0364 83.6811ZM68.3062 97.3776L62.0394 92.405L62.0227 92.426L62.0062 92.4472L68.3062 97.3776ZM58.1519 105.466L54.869 98.1703L54.8552 98.1765L54.8415 98.1827L58.1519 105.466ZM32.7661 105.466L29.4277 112.736L29.4417 112.742L29.4556 112.749L32.7661 105.466ZM22.7298 97.3776L16.4298 102.308H16.4298L22.7298 97.3776ZM16.0586 83.6811L8.36645 85.8788L8.37369 85.9042L8.3811 85.9295L16.0586 83.6811ZM16.0586 44.5987L8.3811 42.3503L8.37369 42.3756L8.36645 42.4009L16.0586 44.5987ZM22.7298 30.9021L16.4298 25.9717H16.4298L22.7298 30.9021ZM32.7661 22.8731L36.0428 30.1713L36.0597 30.1637L36.0765 30.1561L32.7661 22.8731ZM58.1519 22.8731L54.8415 30.1561L54.8856 30.1761L54.93 30.1957L58.1519 22.8731ZM68.3062 30.9021L62.0062 35.8326L62.0227 35.8537L62.0394 35.8747L68.3062 30.9021ZM75.0364 44.5987L67.3589 46.8471V46.8471L75.0364 44.5987ZM57.4435 49.5578L49.5927 51.0956L49.5942 51.1033L49.5957 51.111L57.4435 49.5578ZM54.4326 40.5842L47.4634 44.5123L47.4903 44.56L47.5178 44.6073L54.4326 40.5842ZM50.241 36.1564L46.5223 43.2396L46.5924 43.2764L46.6633 43.3118L50.241 36.1564ZM40.677 36.1564L44.3275 43.275L44.3617 43.2574L44.3957 43.2396L40.677 36.1564ZM36.5444 40.5842L29.5752 36.6561L29.5479 36.7045L29.5213 36.7534L36.5444 40.5842ZM33.6516 49.5578L25.8008 48.02L25.7946 48.0517L25.7886 48.0835L33.6516 49.5578ZM33.6516 78.781L25.7886 80.2553L25.796 80.2948L25.8038 80.3342L33.6516 78.781ZM36.5444 87.7546L29.4926 91.5324L29.5331 91.608L29.5752 91.6827L36.5444 87.7546ZM40.677 92.2414L36.8842 99.2852L36.9909 99.3426L37.0993 99.3968L40.677 92.2414ZM50.241 92.2414L53.8187 99.3968L53.8895 99.3614L53.9596 99.3246L50.241 92.2414ZM54.4326 87.7546L47.4866 83.7855L47.4749 83.806L47.4634 83.8265L54.4326 87.7546ZM57.4435 78.781L49.5957 77.2278L57.4435 78.781ZM69.4569 64.1399C69.4569 71.1171 68.7044 76.8382 67.3589 81.4327L82.714 85.9295C84.5958 79.5038 85.4569 72.1974 85.4569 64.1399H69.4569ZM67.3589 81.4327C65.9674 86.1841 64.1362 89.7625 62.0394 92.405L74.5731 102.35C78.2226 97.7509 80.8781 92.1983 82.714 85.9295L67.3589 81.4327ZM62.0062 92.4472C59.9179 95.1155 57.5453 96.966 54.869 98.1703L61.4348 112.761C66.6301 110.423 71.027 106.882 74.6063 102.308L62.0062 92.4472ZM54.8415 98.1827C52.053 99.4502 48.96 100.122 45.459 100.122V116.122C51.089 116.122 56.4579 115.023 61.4623 112.749L54.8415 98.1827ZM45.459 100.122C41.958 100.122 38.8649 99.4502 36.0765 98.1827L29.4556 112.749C34.46 115.023 39.829 116.122 45.459 116.122V100.122ZM36.1044 98.1955C33.502 97.0005 31.1441 95.1487 29.0298 92.4472L16.4298 102.308C19.983 106.848 24.316 110.389 29.4277 112.736L36.1044 98.1955ZM29.0298 92.4472C26.9553 89.7963 25.1332 86.2029 23.7362 81.4327L8.3811 85.9295C10.2114 92.1795 12.8368 97.7171 16.4298 102.308L29.0298 92.4472ZM23.7508 81.4833C22.4328 76.8703 21.6972 71.131 21.6972 64.1399H5.69717C5.69717 72.1834 6.53581 79.4716 8.36645 85.8788L23.7508 81.4833ZM21.6972 64.1399C21.6972 57.1487 22.4328 51.4094 23.7508 46.7965L8.36645 42.4009C6.53581 48.8082 5.69717 56.0963 5.69717 64.1399H21.6972ZM23.7362 46.8471C25.1332 42.0769 26.9553 38.4835 29.0298 35.8326L16.4298 25.9717C12.8368 30.5627 10.2114 36.1003 8.3811 42.3503L23.7362 46.8471ZM29.0298 35.8326C31.1347 33.1431 33.4725 31.3253 36.0428 30.1713L29.4893 15.575C24.3455 17.8845 19.9925 21.4193 16.4298 25.9717L29.0298 35.8326ZM36.0765 30.1561C38.8649 28.8886 41.958 28.2165 45.459 28.2165V12.2165C39.829 12.2165 34.46 13.3155 29.4556 15.5902L36.0765 30.1561ZM45.459 28.2165C48.96 28.2165 52.053 28.8886 54.8415 30.1561L61.4623 15.5902C56.4579 13.3155 51.089 12.2165 45.459 12.2165V28.2165ZM54.93 30.1957C57.5749 31.3594 59.9275 33.1766 62.0062 35.8326L74.6063 25.9717C71.0174 21.3859 66.6005 17.8503 61.3738 15.5506L54.93 30.1957ZM62.0394 35.8747C64.1362 38.5172 65.9674 42.0957 67.3589 46.8471L82.714 42.3503C80.8781 36.0815 78.2226 30.5289 74.5731 25.9295L62.0394 35.8747ZM67.3589 46.8471C68.7044 51.4416 69.4569 57.1627 69.4569 64.1399H85.4569C85.4569 56.0823 84.5958 48.776 82.714 42.3503L67.3589 46.8471ZM66.5652 64.1399C66.5652 57.9236 66.1792 52.491 65.2912 48.0046L49.5957 51.111C50.2034 54.1813 50.5652 58.4701 50.5652 64.1399H66.5652ZM65.2943 48.02C64.4591 43.7563 63.2319 39.8001 61.3474 36.561L47.5178 44.6073C48.1521 45.6976 48.9322 47.7238 49.5927 51.0956L65.2943 48.02ZM61.4018 36.6561C59.7084 33.6517 57.2961 30.7397 53.8187 29.001L46.6633 43.3118C46.3344 43.1474 46.7165 43.1873 47.4634 44.5123L61.4018 36.6561ZM53.9596 29.0732C51.3573 27.707 48.4963 26.9166 45.459 26.9166V42.9166C45.649 42.9166 45.976 42.9528 46.5223 43.2396L53.9596 29.0732ZM45.459 26.9166C42.4217 26.9166 39.5606 27.707 36.9583 29.0732L44.3957 43.2396C44.942 42.9528 45.2689 42.9166 45.459 42.9166V26.9166ZM37.0265 29.0379C33.6084 30.7907 31.2422 33.6984 29.5752 36.6561L43.5136 44.5123C43.8806 43.8612 44.1711 43.4944 44.3411 43.3123C44.504 43.1377 44.5101 43.1813 44.3275 43.275L37.0265 29.0379ZM29.5213 36.7534C27.7907 39.9261 26.6261 43.8068 25.8008 48.02L41.5024 51.0956C42.1728 47.6733 42.9367 45.5716 43.5676 44.415L29.5213 36.7534ZM25.7886 48.0835C24.9539 52.5353 24.589 57.9386 24.589 64.1399H40.589C40.589 58.4551 40.9324 54.137 41.5146 51.0321L25.7886 48.0835ZM24.589 64.1399C24.589 70.3767 24.9535 75.8011 25.7886 80.2553L41.5146 77.3067C40.9329 74.2042 40.589 69.8678 40.589 64.1399H24.589ZM25.8038 80.3342C26.6319 84.5178 27.7934 88.3606 29.4926 91.5324L43.5963 83.9768C42.934 82.7405 42.167 80.6009 41.4994 77.2278L25.8038 80.3342ZM29.5752 91.6827C31.2375 94.6319 33.5648 97.4978 36.8842 99.2852L44.4698 85.1976C44.7193 85.332 44.2916 85.2067 43.5136 83.8265L29.5752 91.6827ZM37.0993 99.3968C39.6818 100.688 42.4935 101.422 45.459 101.422V85.4221C45.1971 85.4221 44.8208 85.369 44.2547 85.086L37.0993 99.3968ZM45.459 101.422C48.4245 101.422 51.2362 100.688 53.8187 99.3968L46.6633 85.086C46.0971 85.369 45.7208 85.4221 45.459 85.4221V101.422ZM53.9596 99.3246C57.3403 97.5498 59.7139 94.6774 61.4018 91.6827L47.4634 83.8265C46.7111 85.1611 46.2903 85.2801 46.5223 85.1582L53.9596 99.3246ZM61.3785 91.7237C63.2286 88.486 64.4531 84.5692 65.2912 80.3342L49.5957 77.2278C48.9383 80.5495 48.1554 82.6151 47.4866 83.7855L61.3785 91.7237ZM65.2912 80.3342C66.1797 75.8453 66.5652 70.3915 66.5652 64.1399H50.5652C50.5652 69.853 50.2029 74.16 49.5957 77.2278L65.2912 80.3342ZM119.205 92.5956L116.054 85.2425L116.022 85.2563L115.989 85.2705L119.205 92.5956ZM123.456 89.7028L129.205 95.2662L129.249 95.2206L129.292 95.1744L123.456 89.7028ZM126.231 85.3341L118.851 82.245L118.833 82.2887L118.815 82.3326L126.231 85.3341ZM126.29 73.94L118.771 76.6739L118.799 76.7488L118.827 76.8232L126.29 73.94ZM119.264 66.8556L116.416 74.3315L116.445 74.3425L116.474 74.3534L119.264 66.8556ZM108.638 66.9146L111.674 74.316L111.755 74.2829L111.834 74.2482L108.638 66.9146ZM104.623 69.6893L98.7809 64.2241L98.7332 64.2752L98.6863 64.3271L104.623 69.6893ZM102.025 74.0581L94.5277 71.2682V71.2682L102.025 74.0581ZM101.848 85.5112L109.506 83.1961V83.1961L101.848 85.5112ZM108.224 92.7137L105.16 100.104L105.238 100.136L105.316 100.166L108.224 92.7137ZM110.999 54.2217L104.945 48.9927L113.785 61.7211L110.999 54.2217ZM129.419 54.2217L126.859 61.8013L129.419 54.2217ZM137.566 58.9446L142.868 52.9545L137.566 58.9446ZM143.351 67.0327L136.044 70.29L136.068 70.3433L136.093 70.3964L143.351 67.0327ZM143.351 89.939L150.733 93.0217L150.739 93.0074L150.745 92.9931L143.351 89.939ZM136.975 99.3849L142.591 105.083L142.591 105.082L136.975 99.3849ZM127.116 105.761L130.139 113.168H130.139L127.116 105.761ZM101.376 105.879L98.3918 113.301L98.4248 113.315L98.458 113.328L101.376 105.879ZM91.635 99.5029L85.8956 105.076L85.9162 105.097L85.937 105.118L91.635 99.5029ZM85.5542 89.7619L78.0382 92.5021L78.0507 92.5365L78.0636 92.5709L85.5542 89.7619ZM93.288 51.506L99.695 56.2968L99.7063 56.2816L99.7175 56.2664L93.288 51.506ZM112.652 25.3527L106.384 20.3815L106.302 20.4856L106.223 20.5923L112.652 25.3527ZM116.549 22.4008L113.103 15.181L113.07 15.1965L113.038 15.2123L116.549 22.4008ZM138.746 21.1611L144.88 26.2966L155.878 13.1611H138.746V21.1611ZM113.242 51.6241L119.297 56.853L119.337 56.8066L119.377 56.7596L113.242 51.6241ZM113.951 101.658C116.866 101.658 119.722 101.106 122.421 99.9208L115.989 85.2705C115.461 85.5025 114.814 85.6583 113.951 85.6583V101.658ZM122.357 99.9488C124.927 98.8472 127.242 97.2939 129.205 95.2662L117.707 84.1395C117.308 84.5519 116.79 84.9272 116.054 85.2425L122.357 99.9488ZM129.292 95.1744C131.169 93.1721 132.62 90.8716 133.646 88.3356L118.815 82.3326C118.503 83.1027 118.104 83.7146 117.62 84.2313L129.292 95.1744ZM133.61 88.4232C134.757 85.6831 135.293 82.7943 135.293 79.8437H119.293C119.293 80.8288 119.121 81.6004 118.851 82.245L133.61 88.4232ZM135.293 79.8437C135.293 76.8342 134.836 73.8629 133.752 71.0568L118.827 76.8232C119.081 77.4806 119.293 78.4451 119.293 79.8437H135.293ZM133.808 71.206C132.821 68.4906 131.32 66.004 129.231 63.9144L117.917 75.2281C118.189 75.5 118.499 75.9259 118.771 76.6739L133.808 71.206ZM129.231 63.9144C127.173 61.8568 124.734 60.3551 122.054 59.3578L116.474 74.3534C117.179 74.6155 117.613 74.9243 117.917 75.2281L129.231 63.9144ZM122.112 59.3797C119.419 58.3536 116.584 57.911 113.715 57.911V73.911C114.939 73.911 115.804 74.0981 116.416 74.3315L122.112 59.3797ZM113.715 57.911C110.881 57.911 108.085 58.4284 105.441 59.581L111.834 74.2482C112.26 74.0627 112.849 73.911 113.715 73.911V57.911ZM105.601 59.5133C102.995 60.5824 100.702 62.1706 98.7809 64.2241L110.465 75.1546C110.827 74.7679 111.21 74.5062 111.674 74.316L105.601 59.5133ZM98.6863 64.3271C96.8421 66.3688 95.4756 68.7208 94.5277 71.2682L109.523 76.8479C109.835 76.0106 110.2 75.4501 110.56 75.0516L98.6863 64.3271ZM94.5277 71.2682C93.5128 73.9958 93.0809 76.8719 93.0809 79.7846H109.081C109.081 78.4467 109.279 77.5051 109.523 76.8479L94.5277 71.2682ZM93.0809 79.7846C93.0809 82.5413 93.4117 85.2496 94.1907 87.8263L109.506 83.1961C109.262 82.3881 109.081 81.2787 109.081 79.7846H93.0809ZM94.1907 87.8263C94.9993 90.5008 96.3043 92.9839 98.1772 95.1342L110.243 84.6257C109.99 84.3358 109.721 83.9064 109.506 83.1961L94.1907 87.8263ZM98.1772 95.1342C100.115 97.3587 102.498 98.9999 105.16 100.104L111.288 85.3238C110.723 85.0894 110.43 84.8414 110.243 84.6257L98.1772 95.1342ZM105.316 100.166C108.071 101.241 111.011 101.658 113.951 101.658V85.6583C112.482 85.6583 111.605 85.4454 111.133 85.2611L105.316 100.166ZM113.785 61.7211C115.524 61.075 117.633 60.6867 120.209 60.6867V44.6867C116.015 44.6867 111.984 45.3218 108.214 46.7223L113.785 61.7211ZM120.209 60.6867C122.423 60.6867 124.629 61.0483 126.859 61.8013L131.978 46.6421C128.147 45.3485 124.213 44.6867 120.209 44.6867V60.6867ZM126.859 61.8013C128.876 62.4822 130.659 63.5152 132.263 64.9347L142.868 52.9545C139.67 50.1234 136.022 48.0078 131.978 46.6421L126.859 61.8013ZM132.263 64.9347C133.714 66.2195 134.999 67.9458 136.044 70.29L150.658 63.7754C148.791 59.5862 146.219 55.9205 142.868 52.9545L132.263 64.9347ZM136.093 70.3964C136.998 72.3487 137.595 74.9686 137.595 78.4858H153.595C153.595 73.1869 152.696 68.1713 150.61 63.669L136.093 70.3964ZM137.595 78.4858C137.595 81.479 137.043 84.2567 135.957 86.8849L150.745 92.9931C152.651 88.3794 153.595 83.5217 153.595 78.4858H137.595ZM135.969 86.8563C134.881 89.461 133.355 91.72 131.359 93.6875L142.591 105.082C146.105 101.618 148.83 97.5801 150.733 93.0217L135.969 86.8563ZM131.36 93.6869C129.455 95.5645 127.073 97.1378 124.093 98.3541L130.139 113.168C134.874 111.235 139.065 108.558 142.591 105.083L131.36 93.6869ZM124.093 98.3541C121.308 99.4909 118.08 100.122 114.305 100.122V116.122C119.897 116.122 125.21 115.179 130.139 113.168L124.093 98.3541ZM114.305 100.122C110.334 100.122 107.038 99.5049 104.294 98.4301L98.458 113.328C103.35 115.244 108.673 116.122 114.305 116.122V100.122ZM104.36 98.4564C101.48 97.2983 99.179 95.7606 97.333 93.8875L85.937 105.118C89.4437 108.677 93.6367 111.39 98.3918 113.301L104.36 98.4564ZM97.3744 93.9299C95.5553 92.0564 94.1006 89.7683 93.0449 86.9529L78.0636 92.5709C79.8416 97.3122 82.4408 101.518 85.8956 105.076L97.3744 93.9299ZM93.0703 87.0216C92.0504 84.2243 91.4879 81.0128 91.4879 77.3051H75.4879C75.4879 82.6497 76.3029 87.7427 78.0382 92.5021L93.0703 87.0216ZM91.4879 77.3051C91.4879 71.0123 93.8953 64.053 99.695 56.2968L86.8811 46.7152C79.614 56.434 75.4879 66.674 75.4879 77.3051H91.4879ZM99.7175 56.2664L119.082 30.1131L106.223 20.5923L86.8586 46.7456L99.7175 56.2664ZM118.92 30.3238C118.899 30.3504 119.137 30.0397 120.059 29.5894L113.038 15.2123C110.575 16.415 108.216 18.0722 106.384 20.3815L118.92 30.3238ZM119.994 29.6207C120.501 29.379 121.263 29.1611 122.452 29.1611V13.1611C119.233 13.1611 116.06 13.7697 113.103 15.181L119.994 29.6207ZM122.452 29.1611H138.746V13.1611H122.452V29.1611ZM132.612 16.0256L107.108 46.4886L119.377 56.7596L144.88 26.2966L132.612 16.0256ZM107.188 46.3951L104.945 48.9927L117.054 59.4507L119.297 56.853L107.188 46.3951Z" fill="url(#paint1_linear_335_285)" mask="url(#path-2-outside-1_335_285)"/>
</g>
<mask id="path-4-outside-2_335_285" maskUnits="userSpaceOnUse" x="8.33569" y="15.1777" width="142" height="98" fill="black">
<rect fill="white" x="8.33569" y="15.1777" width="142" height="98"/>
<path d="M77.4569 64.1399C77.4569 71.6572 76.6501 78.171 75.0364 83.6811C73.4228 89.1912 71.1794 93.7567 68.3062 97.3776C65.4725 100.999 62.0877 103.695 58.1519 105.466C54.2555 107.237 50.0245 108.122 45.459 108.122C40.8935 108.122 36.6625 107.237 32.7661 105.466C28.909 103.695 25.5636 100.999 22.7298 97.3776C19.896 93.7567 17.6723 89.1912 16.0586 83.6811C14.4843 78.171 13.6972 71.6572 13.6972 64.1399C13.6972 56.6225 14.4843 50.1088 16.0586 44.5987C17.6723 39.0886 19.896 34.5231 22.7298 30.9021C25.5636 27.2812 28.909 24.6049 32.7661 22.8731C36.6625 21.102 40.8935 20.2165 45.459 20.2165C50.0245 20.2165 54.2555 21.102 58.1519 22.8731C62.0877 24.6049 65.4725 27.2812 68.3062 30.9021C71.1794 34.5231 73.4228 39.0886 75.0364 44.5987C76.6501 50.1088 77.4569 56.6225 77.4569 64.1399ZM58.5652 64.1399C58.5652 58.1968 58.1913 53.3361 57.4435 49.5578C56.6957 45.7401 55.692 42.7489 54.4326 40.5842C53.2125 38.4195 51.8153 36.9436 50.241 36.1564C48.6667 35.3299 47.0727 34.9166 45.459 34.9166C43.8453 34.9166 42.2513 35.3299 40.677 36.1564C39.142 36.9436 37.7645 38.4195 36.5444 40.5842C35.3637 42.7489 34.3994 45.7401 33.6516 49.5578C32.9432 53.3361 32.589 58.1968 32.589 64.1399C32.589 70.1223 32.9432 75.0027 33.6516 78.781C34.3994 82.5594 35.3637 85.5506 36.5444 87.7546C37.7645 89.9193 39.142 91.4149 40.677 92.2414C42.2513 93.0286 43.8453 93.4222 45.459 93.4222C47.0727 93.4222 48.6667 93.0286 50.241 92.2414C51.8153 91.4149 53.2125 89.9193 54.4326 87.7546C55.692 85.5506 56.6957 82.5594 57.4435 78.781C58.1913 75.0027 58.5652 70.1223 58.5652 64.1399ZM113.951 93.6583C115.84 93.6583 117.592 93.3041 119.205 92.5956C120.858 91.8872 122.275 90.9229 123.456 89.7028C124.637 88.4434 125.562 86.9871 126.231 85.3341C126.939 83.6417 127.293 81.8116 127.293 79.8437C127.293 77.6396 126.959 75.6717 126.29 73.94C125.66 72.2082 124.755 70.752 123.574 69.5713C122.393 68.3905 120.957 67.4853 119.264 66.8556C117.611 66.2258 115.761 65.911 113.715 65.911C111.865 65.911 110.173 66.2455 108.638 66.9146C107.103 67.5443 105.764 68.4693 104.623 69.6893C103.521 70.9094 102.655 72.3657 102.025 74.0581C101.396 75.7505 101.081 77.6593 101.081 79.7846C101.081 81.91 101.337 83.8188 101.848 85.5112C102.36 87.2036 103.147 88.6598 104.21 89.8799C105.273 91.1 106.611 92.0446 108.224 92.7137C109.838 93.3434 111.747 93.6583 113.951 93.6583ZM110.999 54.2217C113.754 53.1984 116.824 52.6867 120.209 52.6867C123.318 52.6867 126.388 53.1984 129.419 54.2217C132.449 55.245 135.165 56.8193 137.566 58.9446C139.966 61.07 141.895 63.766 143.351 67.0327C144.847 70.26 145.595 74.0777 145.595 78.4858C145.595 82.5003 144.847 86.3181 143.351 89.939C141.856 93.5205 139.73 96.6692 136.975 99.3849C134.26 102.061 130.973 104.187 127.116 105.761C123.259 107.335 118.989 108.122 114.305 108.122C109.503 108.122 105.194 107.375 101.376 105.879C97.5584 104.344 94.3113 102.219 91.635 99.5029C88.998 96.7873 86.9711 93.5402 85.5542 89.7619C84.1767 85.9835 83.4879 81.8313 83.4879 77.3051C83.4879 68.8432 86.7546 60.2435 93.288 51.506L112.652 25.3527C113.557 24.2113 114.856 23.2274 116.549 22.4008C118.28 21.5743 120.248 21.1611 122.452 21.1611H138.746L113.242 51.6241L110.999 54.2217Z"/>
</mask>
<path d="M75.0364 83.6811L70.7701 82.4316L70.7701 82.4316L75.0364 83.6811ZM68.3062 97.3776L64.8238 94.6144L64.8145 94.6261L64.8053 94.6378L68.3062 97.3776ZM58.1519 105.466L56.3276 101.412L56.32 101.415L56.3123 101.419L58.1519 105.466ZM32.7661 105.466L30.911 109.506L30.9187 109.509L30.9265 109.513L32.7661 105.466ZM22.7298 97.3776L19.2289 100.117H19.2289L22.7298 97.3776ZM16.0586 83.6811L11.7841 84.9024L11.7882 84.9164L11.7923 84.9305L16.0586 83.6811ZM16.0586 44.5987L11.7923 43.3493L11.7882 43.3633L11.7841 43.3774L16.0586 44.5987ZM22.7298 30.9021L19.2289 28.1623H19.2289L22.7298 30.9021ZM32.7661 22.8731L34.5869 26.9287L34.5963 26.9245L34.6056 26.9202L32.7661 22.8731ZM58.1519 22.8731L56.3123 26.9202L56.3368 26.9314L56.3615 26.9422L58.1519 22.8731ZM68.3062 30.9021L64.8053 33.642L64.8145 33.6537L64.8238 33.6654L68.3062 30.9021ZM75.0364 44.5987L70.7701 45.8481L70.7701 45.8481L75.0364 44.5987ZM57.4435 49.5578L53.0808 50.4123L53.0825 50.4209L57.4435 49.5578ZM54.4326 40.5842L50.5598 42.767L50.5748 42.7935L50.5901 42.8198L54.4326 40.5842ZM50.241 36.1564L48.1745 40.0925L48.2135 40.113L48.2529 40.1326L50.241 36.1564ZM40.677 36.1564L42.7056 40.1121L42.7246 40.1024L42.7434 40.0925L40.677 36.1564ZM36.5444 40.5842L32.6717 38.4014L32.6565 38.4283L32.6417 38.4554L36.5444 40.5842ZM33.6516 49.5578L29.289 48.7032L29.2855 48.7209L29.2822 48.7385L33.6516 49.5578ZM33.6516 78.781L29.2822 79.6003L29.2863 79.6222L29.2907 79.6441L33.6516 78.781ZM36.5444 87.7546L32.6258 89.8539L32.6483 89.8959L32.6717 89.9374L36.5444 87.7546ZM40.677 92.2414L38.5694 96.1556L38.6287 96.1875L38.6889 96.2176L40.677 92.2414ZM50.241 92.2414L52.2291 96.2176L52.2684 96.198L52.3074 96.1775L50.241 92.2414ZM54.4326 87.7546L50.5728 85.549L50.5663 85.5604L50.5598 85.5718L54.4326 87.7546ZM57.4435 78.781L53.0825 77.9179V77.9179L57.4435 78.781ZM73.0114 64.1399C73.0114 71.3571 72.2347 77.4303 70.7701 82.4316L79.3028 84.9305C81.0655 78.9116 81.9025 71.9574 81.9025 64.1399H73.0114ZM70.7701 82.4316C69.2799 87.5201 67.2655 91.5372 64.8238 94.6144L71.7887 100.141C75.0932 95.9762 77.5657 90.8622 79.3028 84.9305L70.7701 82.4316ZM64.8053 94.6378C62.3858 97.7294 59.5635 99.9555 56.3276 101.412L59.9762 109.52C64.6119 107.434 68.5591 104.268 71.8071 100.117L64.8053 94.6378ZM56.3123 101.419C53.0316 102.91 49.433 103.677 45.459 103.677V112.568C50.616 112.568 55.4794 111.564 59.9915 109.513L56.3123 101.419ZM45.459 103.677C41.485 103.677 37.8864 102.91 34.6056 101.419L30.9265 109.513C35.4386 111.564 40.3019 112.568 45.459 112.568V103.677ZM34.6212 101.426C31.4613 99.9747 28.6646 97.7478 26.2307 94.6378L19.2289 100.117C22.4625 104.249 26.3567 107.414 30.911 109.506L34.6212 101.426ZM26.2307 94.6378C23.8188 91.5559 21.8183 87.5306 20.325 82.4316L11.7923 84.9305C13.5264 90.8517 15.9733 95.9575 19.2289 100.117L26.2307 94.6378ZM20.3331 82.4598C18.9013 77.4482 18.1427 71.3648 18.1427 64.1399H9.25162C9.25162 71.9496 10.0674 78.8937 11.7841 84.9024L20.3331 82.4598ZM18.1427 64.1399C18.1427 56.9149 18.9013 50.8316 20.3331 45.82L11.7841 43.3774C10.0674 49.386 9.25162 56.3301 9.25162 64.1399H18.1427ZM20.325 45.8481C21.8183 40.7491 23.8188 36.7238 26.2307 33.642L19.2289 28.1623C15.9733 32.3223 13.5264 37.428 11.7923 43.3493L20.325 45.8481ZM26.2307 33.642C28.6594 30.5386 31.4449 28.3394 34.5869 26.9287L30.9452 18.8176C26.3731 20.8704 22.4678 24.0238 19.2289 28.1623L26.2307 33.642ZM34.6056 26.9202C37.8864 25.429 41.485 24.662 45.459 24.662V15.7709C40.3019 15.7709 35.4386 16.7751 30.9265 18.8261L34.6056 26.9202ZM45.459 24.662C49.433 24.662 53.0316 25.429 56.3123 26.9202L59.9915 18.8261C55.4794 16.7751 50.616 15.7709 45.459 15.7709V24.662ZM56.3615 26.9422C59.58 28.3583 62.3912 30.5572 64.8053 33.642L71.8071 28.1623C68.5537 24.0052 64.5954 20.8514 59.9423 18.8041L56.3615 26.9422ZM64.8238 33.6654C67.2655 36.7426 69.2799 40.7596 70.7701 45.8481L79.3028 43.3493C77.5657 37.4176 75.0932 32.3035 71.7887 28.1389L64.8238 33.6654ZM70.7701 45.8481C72.2347 50.8494 73.0114 56.9227 73.0114 64.1399H81.9025C81.9025 56.3223 81.0655 49.3682 79.3028 43.3493L70.7701 45.8481ZM63.0107 64.1399C63.0107 58.045 62.6301 52.8665 61.8044 48.6947L53.0825 50.4209C53.7524 53.8058 54.1196 58.3487 54.1196 64.1399H63.0107ZM61.8061 48.7032C61.0098 44.6377 59.8819 41.1103 58.2751 38.3485L50.5901 42.8198C51.5022 44.3875 52.3816 46.8424 53.0808 50.4123L61.8061 48.7032ZM58.3053 38.4014C56.8222 35.7701 54.8609 33.4961 52.2291 32.1802L48.2529 40.1326C48.7696 40.391 49.6027 41.0689 50.5598 42.767L58.3053 38.4014ZM52.3074 32.2203C50.1618 31.0939 47.8637 30.4711 45.459 30.4711V39.3622C46.2816 39.3622 47.1715 39.5659 48.1745 40.0925L52.3074 32.2203ZM45.459 30.4711C43.0542 30.4711 40.7561 31.0939 38.6106 32.2203L42.7434 40.0925C43.7465 39.5659 44.6364 39.3622 45.459 39.3622V30.4711ZM38.6484 32.2007C36.067 33.5245 34.1401 35.796 32.6717 38.4014L40.4172 42.767C41.3889 41.043 42.2171 40.3627 42.7056 40.1121L38.6484 32.2007ZM32.6417 38.4554C31.1554 41.1803 30.0798 44.6658 29.289 48.7032L38.0143 50.4123C38.719 46.8144 39.572 44.3174 40.4471 42.7129L32.6417 38.4554ZM29.2822 48.7385C28.5036 52.8911 28.1434 58.0533 28.1434 64.1399H37.0345C37.0345 58.3404 37.3827 53.7812 38.021 50.377L29.2822 48.7385ZM28.1434 64.1399C28.1434 70.2637 28.5034 75.4463 29.2822 79.6003L38.021 77.9618C37.383 74.559 37.0345 69.9809 37.0345 64.1399H28.1434ZM29.2907 79.6441C30.083 83.6477 31.1569 87.1121 32.6258 89.8539L40.4631 85.6553C39.5704 83.9891 38.7158 81.4711 38.0126 77.9179L29.2907 79.6441ZM32.6717 89.9374C34.1375 92.5381 36.0428 94.7951 38.5694 96.1556L42.7846 88.3272C42.2413 88.0347 41.3915 87.3005 40.4172 85.5718L32.6717 89.9374ZM38.6889 96.2176C40.8235 97.2849 43.0941 97.8677 45.459 97.8677V88.9766C44.5965 88.9766 43.6792 88.7722 42.6651 88.2652L38.6889 96.2176ZM45.459 97.8677C47.8239 97.8677 50.0945 97.2849 52.2291 96.2176L48.2529 88.2652C47.2388 88.7722 46.3214 88.9766 45.459 88.9766V97.8677ZM52.3074 96.1775C54.8855 94.824 56.8253 92.5634 58.3053 89.9374L50.5598 85.5718C49.5997 87.2752 48.7451 88.0058 48.1745 88.3053L52.3074 96.1775ZM58.2924 89.9602C59.8801 87.1818 61.0064 83.6762 61.8044 79.6441L53.0825 77.9179C52.3849 81.4425 51.504 83.9193 50.5728 85.549L58.2924 89.9602ZM61.8044 79.6441C62.6304 75.4709 63.0107 70.2719 63.0107 64.1399H54.1196C54.1196 69.9727 53.7522 74.5344 53.0825 77.9179L61.8044 79.6441ZM119.205 92.5956L117.454 88.5095L117.436 88.5172L117.418 88.5251L119.205 92.5956ZM123.456 89.7028L126.65 92.7944L126.675 92.769L126.699 92.7433L123.456 89.7028ZM126.231 85.3341L122.13 83.6175L122.12 83.6418L122.11 83.6662L126.231 85.3341ZM126.29 73.94L122.112 75.4592L122.127 75.5009L122.143 75.5422L126.29 73.94ZM119.264 66.8556L117.682 71.0099L117.698 71.016L117.714 71.022L119.264 66.8556ZM108.638 66.9146L110.325 71.0275L110.37 71.0091L110.414 70.9898L108.638 66.9146ZM104.623 69.6893L101.377 66.6523L101.35 66.6807L101.324 66.7096L104.623 69.6893ZM102.025 74.0581L97.859 72.5078L102.025 74.0581ZM101.848 85.5112L106.104 84.2247L101.848 85.5112ZM108.224 92.7137L106.522 96.8202L106.565 96.8381L106.608 96.8551L108.224 92.7137ZM110.999 54.2217L107.635 51.316L112.547 58.3891L110.999 54.2217ZM129.419 54.2217L127.996 58.4336H127.996L129.419 54.2217ZM137.566 58.9446L140.512 55.616L137.566 58.9446ZM143.351 67.0327L139.291 68.8427L139.304 68.8724L139.318 68.9019L143.351 67.0327ZM143.351 89.939L147.454 91.652L147.457 91.6441L147.46 91.6361L143.351 89.939ZM136.975 99.3849L140.096 102.551L140.096 102.551L136.975 99.3849ZM127.116 105.761L128.796 109.877L127.116 105.761ZM101.376 105.879L99.7177 110.004L99.7361 110.011L99.7545 110.018L101.376 105.879ZM91.635 99.5029L88.4457 102.6L88.4571 102.612L88.4687 102.623L91.635 99.5029ZM85.5542 89.7619L81.3776 91.2846L81.3846 91.3037L81.3917 91.3228L85.5542 89.7619ZM93.288 51.506L96.8483 54.1682L96.8546 54.1598L96.8609 54.1513L93.288 51.506ZM112.652 25.3527L109.169 22.5902L109.123 22.6481L109.079 22.7073L112.652 25.3527ZM116.549 22.4008L114.634 18.3888L114.616 18.3974L114.598 18.4062L116.549 22.4008ZM138.746 21.1611L142.155 24.0148L148.266 16.7155H138.746V21.1611ZM113.242 51.6241L116.607 54.5298L116.629 54.504L116.651 54.4778L113.242 51.6241ZM113.951 98.1038C116.41 98.1038 118.776 97.6394 120.992 96.6662L117.418 88.5251C116.408 88.9688 115.27 89.2128 113.951 89.2128V98.1038ZM120.956 96.6817C123.119 95.7548 125.035 94.4633 126.65 92.7944L120.261 86.6113C119.515 87.3826 118.597 88.0196 117.454 88.5095L120.956 96.6817ZM126.699 92.7433C128.267 91.0711 129.484 89.1457 130.351 87.002L122.11 83.6662C121.639 84.8286 121.006 85.8156 120.213 86.6623L126.699 92.7433ZM130.331 87.0507C131.284 84.7761 131.739 82.3577 131.739 79.8437H122.848C122.848 81.2655 122.595 82.5074 122.13 83.6175L130.331 87.0507ZM131.739 79.8437C131.739 77.1921 131.336 74.6666 130.436 72.3378L122.143 75.5422C122.581 76.6769 122.848 78.0872 122.848 79.8437H131.739ZM130.468 72.4208C129.639 70.1424 128.403 68.1136 126.717 66.4278L120.43 72.7147C121.106 73.3904 121.681 74.2741 122.112 75.4592L130.468 72.4208ZM126.717 66.4278C125.049 64.7598 123.056 63.5231 120.815 62.6891L117.714 71.022C118.857 71.4475 119.737 72.0213 120.43 72.7147L126.717 66.4278ZM120.847 62.7013C118.616 61.8513 116.219 61.4654 113.715 61.4654V70.3565C115.304 70.3565 116.607 70.6004 117.682 71.0099L120.847 62.7013ZM113.715 61.4654C111.318 61.4654 109.013 61.9016 106.861 62.8394L110.414 70.9898C111.332 70.5895 112.412 70.3565 113.715 70.3565V61.4654ZM106.95 62.8017C104.82 63.6757 102.951 64.9692 101.377 66.6523L107.87 72.7263C108.578 71.9694 109.385 71.413 110.325 71.0275L106.95 62.8017ZM101.324 66.7096C99.8097 68.3862 98.6656 70.3402 97.859 72.5078L106.192 75.6084C106.645 74.3911 107.233 73.4326 107.922 72.6691L101.324 66.7096ZM97.859 72.5078C97.0153 74.7754 96.6354 77.2218 96.6354 79.7846H105.526C105.526 78.0969 105.776 76.7255 106.192 75.6084L97.859 72.5078ZM96.6354 79.7846C96.6354 82.2608 96.9328 84.6139 97.5931 86.7977L106.104 84.2247C105.741 83.0238 105.526 81.5592 105.526 79.7846H96.6354ZM97.5931 86.7977C98.2697 89.0359 99.3447 91.0627 100.858 92.7997L107.562 86.9602C106.95 86.257 106.45 85.3714 106.104 84.2247L97.5931 86.7977ZM100.858 92.7997C102.406 94.5779 104.325 95.9096 106.522 96.8202L109.927 88.6072C108.896 88.1796 108.139 87.6221 107.562 86.9602L100.858 92.7997ZM106.608 96.8551C108.856 97.7323 111.338 98.1038 113.951 98.1038V89.2128C112.156 89.2128 110.82 88.9546 109.841 88.5723L106.608 96.8551ZM112.547 58.3891C114.738 57.5754 117.273 57.1323 120.209 57.1323V48.2412C116.375 48.2412 112.771 48.8214 109.451 50.0543L112.547 58.3891ZM120.209 57.1323C122.821 57.1323 125.411 57.5605 127.996 58.4336L130.841 50.0098C127.365 48.8363 123.816 48.2412 120.209 48.2412V57.1323ZM127.996 58.4336C130.464 59.2667 132.661 60.5402 134.619 62.2733L140.512 55.616C137.668 53.0985 134.435 51.2233 130.841 50.0098L127.996 58.4336ZM134.619 62.2733C136.492 63.9315 138.063 66.0887 139.291 68.8427L147.412 65.2226C145.727 61.4433 143.441 58.2084 140.512 55.616L134.619 62.2733ZM139.318 68.9019C140.485 71.4207 141.149 74.5728 141.149 78.4858H150.04C150.04 73.5827 149.209 69.0994 147.385 65.1635L139.318 68.9019ZM141.149 78.4858C141.149 81.9328 140.51 85.1726 139.242 88.2418L147.46 91.6361C149.184 87.4635 150.04 83.0679 150.04 78.4858H141.149ZM139.249 88.226C137.98 91.2647 136.188 93.9189 133.855 96.2189L140.096 102.551C143.273 99.4194 145.731 95.7764 147.454 91.652L139.249 88.226ZM133.855 96.2185C131.59 98.451 128.806 100.27 125.436 101.645L128.796 109.877C133.141 108.103 136.93 105.671 140.096 102.551L133.855 96.2185ZM125.436 101.645C122.175 102.976 118.484 103.677 114.305 103.677V112.568C119.493 112.568 124.343 111.694 128.796 109.877L125.436 101.645ZM114.305 103.677C109.965 103.677 106.218 103.001 102.998 101.74L99.7545 110.018C104.169 111.748 109.042 112.568 114.305 112.568V103.677ZM103.034 101.754C99.7376 100.429 97.0162 98.63 94.8013 96.3825L88.4687 102.623C91.6065 105.807 95.3791 108.259 99.7177 110.004L103.034 101.754ZM94.8244 96.406C92.6418 94.1584 90.9329 91.4442 89.7167 88.2009L81.3917 91.3228C83.0093 95.6363 85.3542 99.4161 88.4457 102.6L94.8244 96.406ZM89.7308 88.2391C88.5521 85.006 87.9335 81.3765 87.9335 77.3051H79.0424C79.0424 82.286 79.8013 86.9611 81.3776 91.2846L89.7308 88.2391ZM87.9335 77.3051C87.9335 70.0485 90.7226 62.3604 96.8483 54.1682L89.7278 48.8438C82.7866 58.1265 79.0424 67.6378 79.0424 77.3051H87.9335ZM96.8609 54.1513L116.225 27.998L109.079 22.7073L89.7152 48.8607L96.8609 54.1513ZM116.135 28.1151C116.526 27.6227 117.235 27.0129 118.499 26.3955L114.598 18.4062C112.477 19.4418 110.589 20.7999 109.169 22.5902L116.135 28.1151ZM118.463 26.4129C119.514 25.9113 120.812 25.6066 122.452 25.6066V16.7155C119.684 16.7155 117.046 17.2373 114.634 18.3888L118.463 26.4129ZM122.452 25.6066H138.746V16.7155H122.452V25.6066ZM135.338 18.3073L109.834 48.7703L116.651 54.4778L142.155 24.0148L135.338 18.3073ZM109.878 48.7184L107.635 51.316L114.364 57.1274L116.607 54.5298L109.878 48.7184Z" fill="url(#paint2_linear_335_285)" mask="url(#path-4-outside-2_335_285)"/>
</g>
<defs>
<linearGradient id="paint0_linear_335_285" x1="79.6875" y1="3.40267" x2="79.6875" y2="148.375" gradientUnits="userSpaceOnUse">
<stop stop-color="#D9D9D9"/>
<stop offset="1" stop-color="#737373" stop-opacity="0"/>
</linearGradient>
<linearGradient id="paint1_linear_335_285" x1="232.39" y1="-9.82227" x2="232.39" y2="140.382" gradientUnits="userSpaceOnUse">
<stop stop-color="#D9FFDE"/>
<stop offset="1" stop-color="white" stop-opacity="0"/>
</linearGradient>
<linearGradient id="paint2_linear_335_285" x1="232.39" y1="-9.82227" x2="232.39" y2="140.382" gradientUnits="userSpaceOnUse">
<stop stop-color="#D9FFDE"/>
<stop offset="1" stop-color="white" stop-opacity="0"/>
</linearGradient>
</defs>
</svg>
