<svg width="160" height="120" viewBox="0 0 160 120" fill="none" xmlns="http://www.w3.org/2000/svg">
<mask id="mask0_335_224" style="mask-type:alpha" maskUnits="userSpaceOnUse" x="0" y="0" width="160" height="120">
<rect y="0.569336" width="159.375" height="119" fill="url(#paint0_linear_335_224)"/>
</mask>
<g mask="url(#mask0_335_224)">
<g opacity="0.95">
<mask id="path-2-outside-1_335_224" maskUnits="userSpaceOnUse" x="5.33575" y="12.1777" width="147" height="104" fill="black">
<rect fill="white" x="5.33575" y="12.1777" width="147" height="104"/>
<path d="M77.457 64.1399C77.457 71.6572 76.6502 78.171 75.0365 83.6811C73.4228 89.1912 71.1794 93.7567 68.3063 97.3776C65.4725 100.999 62.0878 103.695 58.152 105.466C54.2555 107.237 50.0246 108.122 45.459 108.122C40.8935 108.122 36.6626 107.237 32.7661 105.466C28.9091 103.695 25.5636 100.999 22.7299 97.3776C19.8961 93.7567 17.6724 89.1912 16.0587 83.6811C14.4844 78.171 13.6972 71.6572 13.6972 64.1399C13.6972 56.6225 14.4844 50.1088 16.0587 44.5987C17.6724 39.0886 19.8961 34.5231 22.7299 30.9021C25.5636 27.2812 28.9091 24.6049 32.7661 22.8731C36.6626 21.102 40.8935 20.2165 45.459 20.2165C50.0246 20.2165 54.2555 21.102 58.152 22.8731C62.0878 24.6049 65.4725 27.2812 68.3063 30.9021C71.1794 34.5231 73.4228 39.0886 75.0365 44.5987C76.6502 50.1088 77.457 56.6225 77.457 64.1399ZM58.5652 64.1399C58.5652 58.1968 58.1913 53.3361 57.4435 49.5578C56.6957 45.7401 55.6921 42.7489 54.4326 40.5842C53.2125 38.4195 51.8153 36.9436 50.241 36.1564C48.6667 35.3299 47.0727 34.9166 45.459 34.9166C43.8454 34.9166 42.2514 35.3299 40.6771 36.1564C39.1421 36.9436 37.7646 38.4195 36.5445 40.5842C35.3637 42.7489 34.3995 45.7401 33.6517 49.5578C32.9432 53.3361 32.589 58.1968 32.589 64.1399C32.589 70.1223 32.9432 75.0027 33.6517 78.781C34.3995 82.5594 35.3637 85.5506 36.5445 87.7546C37.7646 89.9193 39.1421 91.4149 40.6771 92.2414C42.2514 93.0286 43.8454 93.4222 45.459 93.4222C47.0727 93.4222 48.6667 93.0286 50.241 92.2414C51.8153 91.4149 53.2125 89.9193 54.4326 87.7546C55.6921 85.5506 56.6957 82.5594 57.4435 78.781C58.1913 75.0027 58.5652 70.1223 58.5652 64.1399ZM85.0229 45.7204C85.6527 41.4304 86.8531 37.6914 88.6242 34.5034C90.4347 31.3154 92.6584 28.6587 95.2954 26.5334C97.9717 24.4081 101.022 22.8338 104.446 21.8105C107.87 20.7478 111.55 20.2165 115.486 20.2165C119.737 20.2165 123.515 20.8265 126.821 22.0466C130.127 23.2274 132.921 24.841 135.204 26.8876C137.487 28.9343 139.219 31.3154 140.399 34.0311C141.58 36.7074 142.171 39.5412 142.171 42.5324C142.171 45.2481 141.895 47.6489 141.344 49.7349C140.793 51.7815 139.967 53.5723 138.865 55.1072C137.802 56.6028 136.464 57.882 134.85 58.9446C133.276 59.9679 131.465 60.8338 129.419 61.5423C138.943 64.8877 143.706 71.3817 143.706 81.0244C143.706 85.5899 142.879 89.5651 141.226 92.9499C139.573 96.3346 137.349 99.1487 134.555 101.392C131.8 103.636 128.592 105.328 124.932 106.469C121.272 107.571 117.454 108.122 113.479 108.122C109.385 108.122 105.745 107.689 102.557 106.824C99.3689 105.918 96.5351 104.541 94.0556 102.691C91.576 100.802 89.3917 98.4009 87.5025 95.4884C85.6527 92.576 84.039 89.1125 82.6615 85.098L90.8086 81.7919C92.9339 80.9654 94.9018 80.7489 96.7122 81.1425C98.5227 81.5361 99.8215 82.4413 100.609 83.8582C102.38 87.1249 104.249 89.506 106.217 91.0016C108.224 92.4579 110.566 93.186 113.243 93.186C115.289 93.186 117.06 92.8515 118.556 92.1824C120.091 91.4739 121.35 90.5884 122.334 89.5257C123.358 88.4237 124.125 87.1839 124.637 85.8064C125.148 84.4289 125.404 83.0317 125.404 81.6148C125.404 79.765 125.266 78.1119 124.991 76.6557C124.755 75.1601 124.046 73.881 122.866 72.8183C121.685 71.7556 119.894 70.9488 117.493 70.3978C115.132 69.8074 111.826 69.5122 107.575 69.5122V56.8784C111.157 56.8784 114.049 56.6028 116.253 56.0518C118.457 55.5008 120.15 54.753 121.331 53.8084C122.551 52.8245 123.358 51.6438 123.751 50.2662C124.145 48.8887 124.341 47.3734 124.341 45.7204C124.341 42.3356 123.515 39.738 121.862 37.9275C120.248 36.0777 117.769 35.1528 114.423 35.1528C111.708 35.1528 109.405 35.8809 107.516 37.3372C105.666 38.754 104.387 40.5251 103.679 42.6505C102.852 44.8152 101.77 46.2517 100.432 46.9602C99.0934 47.6686 97.1845 47.826 94.705 47.4325L85.0229 45.7204Z"/>
</mask>
<path d="M75.0365 83.6811L67.359 81.4327L75.0365 83.6811ZM68.3063 97.3776L62.0395 92.405L62.0228 92.426L62.0063 92.4472L68.3063 97.3776ZM58.152 105.466L54.869 98.1703L54.8553 98.1765L54.8415 98.1827L58.152 105.466ZM32.7661 105.466L29.4278 112.736L29.4417 112.742L29.4557 112.749L32.7661 105.466ZM22.7299 97.3776L16.4298 102.308H16.4298L22.7299 97.3776ZM16.0587 83.6811L8.36651 85.8788L8.37375 85.9042L8.38116 85.9295L16.0587 83.6811ZM16.0587 44.5987L8.38116 42.3503L8.37375 42.3756L8.36651 42.4009L16.0587 44.5987ZM22.7299 30.9021L16.4298 25.9717H16.4298L22.7299 30.9021ZM32.7661 22.8731L36.0429 30.1713L36.0597 30.1637L36.0765 30.1561L32.7661 22.8731ZM58.152 22.8731L54.8415 30.1561L54.8857 30.1761L54.9301 30.1957L58.152 22.8731ZM68.3063 30.9021L62.0063 35.8326L62.0228 35.8537L62.0395 35.8747L68.3063 30.9021ZM75.0365 44.5987L67.359 46.8471V46.8471L75.0365 44.5987ZM57.4435 49.5578L49.5927 51.0956L49.5942 51.1033L49.5957 51.111L57.4435 49.5578ZM54.4326 40.5842L47.4634 44.5123L47.4903 44.56L47.5179 44.6073L54.4326 40.5842ZM50.241 36.1564L46.5224 43.2396L46.5925 43.2764L46.6633 43.3118L50.241 36.1564ZM40.6771 36.1564L44.3276 43.275L44.3617 43.2574L44.3957 43.2396L40.6771 36.1564ZM36.5445 40.5842L29.5753 36.6561L29.548 36.7045L29.5213 36.7534L36.5445 40.5842ZM33.6517 49.5578L25.8009 48.02L25.7947 48.0517L25.7887 48.0835L33.6517 49.5578ZM33.6517 78.781L25.7887 80.2553L25.7961 80.2948L25.8039 80.3342L33.6517 78.781ZM36.5445 87.7546L29.4926 91.5324L29.5331 91.608L29.5753 91.6827L36.5445 87.7546ZM40.6771 92.2414L36.8843 99.2852L36.991 99.3426L37.0993 99.3968L40.6771 92.2414ZM50.241 92.2414L53.8187 99.3968L53.8896 99.3614L53.9597 99.3246L50.241 92.2414ZM54.4326 87.7546L47.4867 83.7855L47.475 83.806L47.4634 83.8265L54.4326 87.7546ZM57.4435 78.781L49.5957 77.2278L57.4435 78.781ZM69.457 64.1399C69.457 71.1171 68.7045 76.8382 67.359 81.4327L82.714 85.9295C84.5959 79.5038 85.457 72.1974 85.457 64.1399H69.457ZM67.359 81.4327C65.9675 86.1841 64.1362 89.7625 62.0395 92.405L74.5731 102.35C78.2226 97.7509 80.8782 92.1983 82.714 85.9295L67.359 81.4327ZM62.0063 92.4472C59.918 95.1155 57.5453 96.966 54.869 98.1703L61.4349 112.761C66.6302 110.423 71.0271 106.882 74.6063 102.308L62.0063 92.4472ZM54.8415 98.1827C52.0531 99.4502 48.9601 100.122 45.459 100.122V116.122C51.089 116.122 56.458 115.023 61.4624 112.749L54.8415 98.1827ZM45.459 100.122C41.958 100.122 38.865 99.4502 36.0765 98.1827L29.4557 112.749C34.4601 115.023 39.829 116.122 45.459 116.122V100.122ZM36.1045 98.1955C33.502 97.0005 31.1442 95.1487 29.0299 92.4472L16.4298 102.308C19.9831 106.848 24.3161 110.389 29.4278 112.736L36.1045 98.1955ZM29.0299 92.4472C26.9553 89.7963 25.1332 86.2029 23.7362 81.4327L8.38116 85.9295C10.2115 92.1795 12.8369 97.7171 16.4298 102.308L29.0299 92.4472ZM23.7509 81.4833C22.4329 76.8703 21.6972 71.131 21.6972 64.1399H5.69723C5.69723 72.1834 6.53587 79.4716 8.36651 85.8788L23.7509 81.4833ZM21.6972 64.1399C21.6972 57.1487 22.4329 51.4094 23.7509 46.7965L8.36651 42.4009C6.53587 48.8082 5.69723 56.0963 5.69723 64.1399H21.6972ZM23.7362 46.8471C25.1332 42.0769 26.9553 38.4835 29.0299 35.8326L16.4298 25.9717C12.8369 30.5627 10.2115 36.1003 8.38116 42.3503L23.7362 46.8471ZM29.0299 35.8326C31.1347 33.1431 33.4725 31.3253 36.0429 30.1713L29.4894 15.575C24.3456 17.8845 19.9925 21.4193 16.4298 25.9717L29.0299 35.8326ZM36.0765 30.1561C38.865 28.8886 41.958 28.2165 45.459 28.2165V12.2165C39.829 12.2165 34.4601 13.3155 29.4557 15.5902L36.0765 30.1561ZM45.459 28.2165C48.9601 28.2165 52.0531 28.8886 54.8415 30.1561L61.4624 15.5902C56.458 13.3155 51.089 12.2165 45.459 12.2165V28.2165ZM54.9301 30.1957C57.575 31.3594 59.9276 33.1766 62.0063 35.8326L74.6063 25.9717C71.0175 21.3859 66.6005 17.8503 61.3739 15.5506L54.9301 30.1957ZM62.0395 35.8747C64.1362 38.5172 65.9675 42.0957 67.359 46.8471L82.714 42.3503C80.8782 36.0815 78.2226 30.5289 74.5731 25.9295L62.0395 35.8747ZM67.359 46.8471C68.7045 51.4416 69.457 57.1627 69.457 64.1399H85.457C85.457 56.0823 84.5959 48.776 82.714 42.3503L67.359 46.8471ZM66.5652 64.1399C66.5652 57.9236 66.1792 52.491 65.2913 48.0046L49.5957 51.111C50.2034 54.1813 50.5652 58.4701 50.5652 64.1399H66.5652ZM65.2943 48.02C64.4592 43.7563 63.232 39.8001 61.3474 36.561L47.5179 44.6073C48.1522 45.6976 48.9323 47.7238 49.5927 51.0956L65.2943 48.02ZM61.4019 36.6561C59.7085 33.6517 57.2962 30.7397 53.8187 29.001L46.6633 43.3118C46.3345 43.1474 46.7166 43.1873 47.4634 44.5123L61.4019 36.6561ZM53.9597 29.0732C51.3574 27.707 48.4963 26.9166 45.459 26.9166V42.9166C45.6491 42.9166 45.976 42.9528 46.5224 43.2396L53.9597 29.0732ZM45.459 26.9166C42.4218 26.9166 39.5607 27.707 36.9584 29.0732L44.3957 43.2396C44.9421 42.9528 45.269 42.9166 45.459 42.9166V26.9166ZM37.0265 29.0379C33.6084 30.7907 31.2423 33.6984 29.5753 36.6561L43.5137 44.5123C43.8807 43.8612 44.1712 43.4944 44.3411 43.3123C44.5041 43.1377 44.5102 43.1813 44.3276 43.275L37.0265 29.0379ZM29.5213 36.7534C27.7907 39.9261 26.6261 43.8068 25.8009 48.02L41.5025 51.0956C42.1728 47.6733 42.9368 45.5716 43.5676 44.415L29.5213 36.7534ZM25.7887 48.0835C24.954 52.5353 24.589 57.9386 24.589 64.1399H40.589C40.589 58.4551 40.9325 54.137 41.5147 51.0321L25.7887 48.0835ZM24.589 64.1399C24.589 70.3767 24.9535 75.8011 25.7887 80.2553L41.5147 77.3067C40.9329 74.2042 40.589 69.8678 40.589 64.1399H24.589ZM25.8039 80.3342C26.6319 84.5178 27.7935 88.3606 29.4926 91.5324L43.5963 83.9768C42.934 82.7405 42.167 80.6009 41.4995 77.2278L25.8039 80.3342ZM29.5753 91.6827C31.2375 94.6319 33.5649 97.4978 36.8843 99.2852L44.4699 85.1976C44.7194 85.332 44.2916 85.2067 43.5137 83.8265L29.5753 91.6827ZM37.0993 99.3968C39.6819 100.688 42.4935 101.422 45.459 101.422V85.4221C45.1972 85.4221 44.8209 85.369 44.2548 85.086L37.0993 99.3968ZM45.459 101.422C48.4246 101.422 51.2362 100.688 53.8187 99.3968L46.6633 85.086C46.0972 85.369 45.7209 85.4221 45.459 85.4221V101.422ZM53.9597 99.3246C57.3404 97.5498 59.7139 94.6774 61.4019 91.6827L47.4634 83.8265C46.7112 85.1611 46.2903 85.2801 46.5224 85.1582L53.9597 99.3246ZM61.3786 91.7237C63.2287 88.486 64.4531 84.5692 65.2913 80.3342L49.5957 77.2278C48.9383 80.5495 48.1555 82.6151 47.4867 83.7855L61.3786 91.7237ZM65.2913 80.3342C66.1797 75.8453 66.5652 70.3915 66.5652 64.1399H50.5652C50.5652 69.853 50.2029 74.16 49.5957 77.2278L65.2913 80.3342ZM85.0229 45.7204L77.1078 44.5585L75.9794 52.2453L83.6299 53.5982L85.0229 45.7204ZM88.6242 34.5034L81.6677 30.5528L81.6492 30.5854L81.6309 30.6182L88.6242 34.5034ZM95.2954 26.5334L90.3203 20.2685L90.2977 20.2865L90.2752 20.3047L95.2954 26.5334ZM104.446 21.8105L106.737 29.4755L106.777 29.4635L106.817 29.451L104.446 21.8105ZM126.821 22.0466L124.051 29.5518L124.091 29.5664L124.13 29.5806L126.821 22.0466ZM135.204 26.8876L129.864 32.8442L129.864 32.8442L135.204 26.8876ZM140.399 34.0311L133.063 37.2209L133.071 37.2406L133.08 37.2602L140.399 34.0311ZM141.344 49.7349L149.069 51.8147L149.074 51.7964L149.079 51.778L141.344 49.7349ZM138.865 55.1072L132.366 50.4416L132.354 50.4576L132.343 50.4736L138.865 55.1072ZM134.85 58.9446L139.21 65.6522L139.23 65.6392L139.25 65.626L134.85 58.9446ZM129.419 61.5423L126.802 53.9824L105.121 61.4872L126.768 69.0902L129.419 61.5423ZM141.226 92.9499L148.415 96.4605V96.4605L141.226 92.9499ZM134.555 101.392L129.547 95.1538L129.525 95.1711L129.503 95.1886L134.555 101.392ZM124.932 106.469L127.238 114.13L127.276 114.118L127.313 114.107L124.932 106.469ZM102.557 106.824L100.372 114.519L100.416 114.532L100.46 114.544L102.557 106.824ZM94.0556 102.691L89.2072 109.054L89.2394 109.079L89.2719 109.103L94.0556 102.691ZM87.5025 95.4884L80.7495 99.7775L80.77 99.8099L80.7908 99.842L87.5025 95.4884ZM82.6615 85.098L79.6533 77.6851L72.637 80.5323L75.0946 87.6945L82.6615 85.098ZM90.8086 81.7919L87.909 74.3359L87.8545 74.357L87.8004 74.379L90.8086 81.7919ZM96.7122 81.1425L95.0128 88.9599L96.7122 81.1425ZM100.609 83.8582L107.642 80.0452L107.622 80.009L107.602 79.973L100.609 83.8582ZM106.217 91.0016L101.377 97.3709L101.447 97.4248L101.519 97.477L106.217 91.0016ZM118.556 92.1824L121.823 99.4849L121.866 99.4657L121.908 99.4461L118.556 92.1824ZM122.334 89.5257L116.472 84.0821L116.464 84.0905L122.334 89.5257ZM124.637 85.8064L132.136 88.5919L132.136 88.5919L124.637 85.8064ZM124.991 76.6557L117.089 77.9034L117.108 78.0234L117.13 78.1428L124.991 76.6557ZM122.866 72.8183L117.514 78.7646L117.514 78.7647L122.866 72.8183ZM117.493 70.3978L115.553 78.1589L115.628 78.1777L115.704 78.1951L117.493 70.3978ZM107.575 69.5122H99.575V77.5122H107.575V69.5122ZM107.575 56.8783V48.8783H99.575V56.8783H107.575ZM121.331 53.8084L126.328 60.0554L126.34 60.0456L126.353 60.0357L121.331 53.8084ZM121.862 37.9275L115.833 43.1865L115.893 43.2548L115.954 43.3217L121.862 37.9275ZM107.516 37.3372L112.381 43.6882L112.39 43.6807L112.4 43.6732L107.516 37.3372ZM103.679 42.6505L111.152 45.5041L111.214 45.3434L111.268 45.1803L103.679 42.6505ZM100.432 46.9602L96.6885 39.8899H96.6885L100.432 46.9602ZM94.705 47.4325L93.312 55.3102L93.3813 55.3225L93.4509 55.3335L94.705 47.4325ZM92.9381 46.8823C93.4534 43.3718 94.395 40.5889 95.6175 38.3885L81.6309 30.6182C79.3111 34.7939 77.8519 39.489 77.1078 44.5585L92.9381 46.8823ZM95.5807 38.454C96.9358 36.0678 98.5239 34.2062 100.316 32.7622L90.2752 20.3047C86.7929 23.1113 83.9335 26.563 81.6677 30.5528L95.5807 38.454ZM100.27 32.7983C102.113 31.3351 104.243 30.2207 106.737 29.4755L102.155 14.1454C97.8008 15.4468 93.8304 17.4811 90.3203 20.2685L100.27 32.7983ZM106.817 29.451C109.402 28.6487 112.276 28.2165 115.486 28.2165V12.2165C110.824 12.2165 106.338 12.8469 102.075 14.17L106.817 29.451ZM115.486 28.2165C118.981 28.2165 121.794 28.7187 124.051 29.5518L129.591 14.5414C125.236 12.9343 120.493 12.2165 115.486 12.2165V28.2165ZM124.13 29.5806C126.6 30.4625 128.458 31.5833 129.864 32.8442L140.545 20.9311C137.385 18.0987 133.654 15.9922 129.512 14.5127L124.13 29.5806ZM129.864 32.8442C131.321 34.1507 132.357 35.5979 133.063 37.2209L147.736 30.8413C146.08 27.0329 143.653 23.7178 140.545 20.9311L129.864 32.8442ZM133.08 37.2602C133.802 38.8959 134.171 40.6274 134.171 42.5324H150.171C150.171 38.455 149.359 34.519 147.719 30.802L133.08 37.2602ZM134.171 42.5324C134.171 44.7276 133.946 46.4184 133.609 47.6918L149.079 51.778C149.844 48.8795 150.171 45.7686 150.171 42.5324H134.171ZM133.619 47.6551C133.288 48.8853 132.843 49.777 132.366 50.4416L145.363 59.7729C147.09 57.3675 148.298 54.6777 149.069 51.8147L133.619 47.6551ZM132.343 50.4736C131.885 51.1187 131.28 51.7165 130.45 52.2633L139.25 65.626C141.647 64.0474 143.719 62.087 145.386 59.7409L132.343 50.4736ZM130.49 52.2371C129.536 52.8575 128.326 53.4546 126.802 53.9824L132.036 69.1021C134.604 68.2131 137.016 67.0784 139.21 65.6522L130.49 52.2371ZM126.768 69.0902C130.395 70.3644 132.472 72.0021 133.683 73.6528C134.871 75.2736 135.706 77.5599 135.706 81.0244H151.706C151.706 74.8463 150.159 69.0642 146.585 64.191C143.033 59.3476 137.967 56.0655 132.07 53.9943L126.768 69.0902ZM135.706 81.0244C135.706 84.6273 135.055 87.3551 134.037 89.4392L148.415 96.4605C150.703 91.775 151.706 86.5525 151.706 81.0244H135.706ZM134.037 89.4392C132.874 91.8207 131.375 93.6856 129.547 95.1538L139.563 107.63C143.323 104.612 146.272 100.849 148.415 96.4605L134.037 89.4392ZM129.503 95.1886C127.6 96.739 125.315 97.9699 122.55 98.832L127.313 114.107C131.869 112.686 136 110.532 139.606 107.596L129.503 95.1886ZM122.626 98.809C119.743 99.6769 116.704 100.122 113.479 100.122V116.122C118.204 116.122 122.8 115.466 127.238 114.13L122.626 98.809ZM113.479 100.122C109.932 100.122 107.018 99.7454 104.654 99.1032L100.46 114.544C104.471 115.633 108.839 116.122 113.479 116.122V100.122ZM104.742 99.1277C102.424 98.4695 100.484 97.5057 98.8393 96.2787L89.2719 109.103C92.5864 111.576 96.3139 113.367 100.372 114.519L104.742 99.1277ZM98.9039 96.3275C97.2348 95.0558 95.6591 93.3624 94.2142 91.1349L80.7908 99.842C83.1243 103.439 85.9172 106.548 89.2072 109.054L98.9039 96.3275ZM94.2555 91.1993C92.8091 88.922 91.4467 86.0521 90.2284 82.5015L75.0946 87.6945C76.6313 92.1729 78.4962 96.2299 80.7495 99.7775L94.2555 91.1993ZM85.6696 92.5109L93.8167 89.2048L87.8004 74.379L79.6533 77.6851L85.6696 92.5109ZM93.7081 89.2479C94.2166 89.0502 94.5586 88.9831 94.7532 88.9617C94.9365 88.9415 95.0089 88.9591 95.0128 88.9599L98.4117 73.3251C94.7446 72.5279 91.1586 73.0721 87.909 74.3359L93.7081 89.2479ZM95.0128 88.9599C95.0596 88.9701 94.8211 88.9246 94.4699 88.6798C94.0952 88.4186 93.7991 88.0739 93.6154 87.7433L107.602 79.973C105.532 76.2466 102.113 74.1298 98.4117 73.3251L95.0128 88.9599ZM93.5758 87.6712C95.6405 91.4793 98.1668 94.9316 101.377 97.3709L111.058 84.6323C110.332 84.0805 109.119 82.7705 107.642 80.0452L93.5758 87.6712ZM101.519 97.477C105.003 100.004 109.02 101.186 113.243 101.186V85.186C112.112 85.186 111.446 84.9117 110.915 84.5263L101.519 97.477ZM113.243 101.186C116.143 101.186 119.077 100.713 121.823 99.4849L115.289 84.8798C115.043 84.9897 114.435 85.186 113.243 85.186V101.186ZM121.908 99.4461C124.237 98.3712 126.4 96.9094 128.204 94.961L116.464 84.0905C116.3 84.2674 115.945 84.5767 115.203 84.9187L121.908 99.4461ZM128.197 94.9693C129.918 93.1158 131.25 90.9777 132.136 88.5919L117.137 83.0209C117 83.3902 116.797 83.7316 116.472 84.0821L128.197 94.9693ZM132.136 88.5919C132.966 86.3566 133.404 84.0177 133.404 81.6148H117.404C117.404 82.0456 117.33 82.5012 117.137 83.0209L132.136 88.5919ZM133.404 81.6148C133.404 79.383 133.239 77.218 132.851 75.1686L117.13 78.1428C117.294 79.0059 117.404 80.147 117.404 81.6148H133.404ZM132.893 75.408C132.356 72.0062 130.689 69.0969 128.217 66.8719L117.514 78.7647C117.501 78.7533 117.396 78.6521 117.284 78.4506C117.17 78.2447 117.111 78.0445 117.089 77.9034L132.893 75.408ZM128.217 66.8719C125.618 64.5322 122.344 63.3031 119.283 62.6005L115.704 78.1951C116.513 78.3809 117.039 78.5698 117.351 78.71C117.663 78.8508 117.664 78.8994 117.514 78.7646L128.217 66.8719ZM119.433 62.6367C116.136 61.8123 112.072 61.5122 107.575 61.5122V77.5122C111.58 77.5122 114.127 77.8025 115.553 78.1589L119.433 62.6367ZM115.575 69.5122V56.8783H99.575V69.5122H115.575ZM107.575 64.8783C111.482 64.8783 115.1 64.5864 118.194 63.813L114.313 48.2907C112.999 48.6193 110.832 48.8783 107.575 48.8783V64.8783ZM118.194 63.813C121.004 63.1105 123.913 61.9873 126.328 60.0554L116.333 47.5615C116.386 47.5188 116.292 47.6058 115.942 47.7602C115.595 47.9136 115.068 48.102 114.313 48.2907L118.194 63.813ZM126.353 60.0357C128.73 58.1183 130.554 55.5776 131.443 52.464L116.059 48.0685C116.097 47.9335 116.164 47.7909 116.246 47.6714C116.323 47.5575 116.368 47.5332 116.309 47.5811L126.353 60.0357ZM131.443 52.464C132.07 50.2718 132.341 48.0052 132.341 45.7204H116.341C116.341 46.7417 116.22 47.5056 116.059 48.0685L131.443 52.464ZM132.341 45.7204C132.341 41.1042 131.208 36.2991 127.77 32.5334L115.954 43.3217C115.822 43.1769 116.341 43.567 116.341 45.7204H132.341ZM127.89 32.6686C124.262 28.5093 119.201 27.1528 114.423 27.1528V43.1528C115.383 43.1528 115.852 43.2882 115.996 43.342C116.061 43.3661 116.052 43.3704 116 43.3355C115.947 43.299 115.886 43.2465 115.833 43.1865L127.89 32.6686ZM114.423 27.1528C110.197 27.1528 106.111 28.3191 102.632 31.0011L112.4 43.6732C112.699 43.4427 113.218 43.1528 114.423 43.1528V27.1528ZM102.651 30.9861C99.5856 33.3344 97.3245 36.4146 96.0891 40.1207L111.268 45.1803C111.45 44.6357 111.747 44.1737 112.381 43.6882L102.651 30.9861ZM96.2048 39.7969C96.0994 40.0729 96.0086 40.2657 95.9423 40.3908C95.8759 40.516 95.8431 40.5565 95.8575 40.5374C95.8912 40.4927 96.1439 40.1782 96.6885 39.8899L104.175 54.0305C107.935 52.04 109.987 48.5563 111.152 45.5041L96.2048 39.7969ZM96.6885 39.8899C97.1936 39.6224 97.4897 39.6242 97.3387 39.6366C97.1839 39.6494 96.7502 39.6569 95.9591 39.5314L93.4509 55.3335C96.6144 55.8357 100.587 55.9296 104.175 54.0305L96.6885 39.8899ZM96.098 39.5547L86.416 37.8426L83.6299 53.5982L93.312 55.3102L96.098 39.5547Z" fill="url(#paint1_linear_335_224)" mask="url(#path-2-outside-1_335_224)"/>
</g>
<mask id="path-4-outside-2_335_224" maskUnits="userSpaceOnUse" x="8.33575" y="15.1777" width="140" height="98" fill="black">
<rect fill="white" x="8.33575" y="15.1777" width="140" height="98"/>
<path d="M77.457 64.1399C77.457 71.6572 76.6502 78.171 75.0365 83.6811C73.4228 89.1912 71.1794 93.7567 68.3063 97.3776C65.4725 100.999 62.0878 103.695 58.152 105.466C54.2555 107.237 50.0246 108.122 45.459 108.122C40.8935 108.122 36.6626 107.237 32.7661 105.466C28.9091 103.695 25.5636 100.999 22.7299 97.3776C19.8961 93.7567 17.6724 89.1912 16.0587 83.6811C14.4844 78.171 13.6972 71.6572 13.6972 64.1399C13.6972 56.6225 14.4844 50.1088 16.0587 44.5987C17.6724 39.0886 19.8961 34.5231 22.7299 30.9021C25.5636 27.2812 28.9091 24.6049 32.7661 22.8731C36.6626 21.102 40.8935 20.2165 45.459 20.2165C50.0246 20.2165 54.2555 21.102 58.152 22.8731C62.0878 24.6049 65.4725 27.2812 68.3063 30.9021C71.1794 34.5231 73.4228 39.0886 75.0365 44.5987C76.6502 50.1088 77.457 56.6225 77.457 64.1399ZM58.5652 64.1399C58.5652 58.1968 58.1913 53.3361 57.4435 49.5578C56.6957 45.7401 55.6921 42.7489 54.4326 40.5842C53.2125 38.4195 51.8153 36.9436 50.241 36.1564C48.6667 35.3299 47.0727 34.9166 45.459 34.9166C43.8454 34.9166 42.2514 35.3299 40.6771 36.1564C39.1421 36.9436 37.7646 38.4195 36.5445 40.5842C35.3637 42.7489 34.3995 45.7401 33.6517 49.5578C32.9432 53.3361 32.589 58.1968 32.589 64.1399C32.589 70.1223 32.9432 75.0027 33.6517 78.781C34.3995 82.5594 35.3637 85.5506 36.5445 87.7546C37.7646 89.9193 39.1421 91.4149 40.6771 92.2414C42.2514 93.0286 43.8454 93.4222 45.459 93.4222C47.0727 93.4222 48.6667 93.0286 50.241 92.2414C51.8153 91.4149 53.2125 89.9193 54.4326 87.7546C55.6921 85.5506 56.6957 82.5594 57.4435 78.781C58.1913 75.0027 58.5652 70.1223 58.5652 64.1399ZM85.0229 45.7204C85.6527 41.4304 86.8531 37.6914 88.6242 34.5034C90.4347 31.3154 92.6584 28.6587 95.2954 26.5334C97.9717 24.4081 101.022 22.8338 104.446 21.8105C107.87 20.7478 111.55 20.2165 115.486 20.2165C119.737 20.2165 123.515 20.8265 126.821 22.0466C130.127 23.2274 132.921 24.841 135.204 26.8876C137.487 28.9343 139.219 31.3154 140.399 34.0311C141.58 36.7074 142.171 39.5412 142.171 42.5324C142.171 45.2481 141.895 47.6489 141.344 49.7349C140.793 51.7815 139.967 53.5723 138.865 55.1072C137.802 56.6028 136.464 57.882 134.85 58.9446C133.276 59.9679 131.465 60.8338 129.419 61.5423C138.943 64.8877 143.706 71.3817 143.706 81.0244C143.706 85.5899 142.879 89.5651 141.226 92.9499C139.573 96.3346 137.349 99.1487 134.555 101.392C131.8 103.636 128.592 105.328 124.932 106.469C121.272 107.571 117.454 108.122 113.479 108.122C109.385 108.122 105.745 107.689 102.557 106.824C99.3689 105.918 96.5351 104.541 94.0556 102.691C91.576 100.802 89.3917 98.4009 87.5025 95.4884C85.6527 92.576 84.039 89.1125 82.6615 85.098L90.8086 81.7919C92.9339 80.9654 94.9018 80.7489 96.7122 81.1425C98.5227 81.5361 99.8215 82.4413 100.609 83.8582C102.38 87.1249 104.249 89.506 106.217 91.0016C108.224 92.4579 110.566 93.186 113.243 93.186C115.289 93.186 117.06 92.8515 118.556 92.1824C120.091 91.4739 121.35 90.5884 122.334 89.5257C123.358 88.4237 124.125 87.1839 124.637 85.8064C125.148 84.4289 125.404 83.0317 125.404 81.6148C125.404 79.765 125.266 78.1119 124.991 76.6557C124.755 75.1601 124.046 73.881 122.866 72.8183C121.685 71.7556 119.894 70.9488 117.493 70.3978C115.132 69.8074 111.826 69.5122 107.575 69.5122V56.8784C111.157 56.8784 114.049 56.6028 116.253 56.0518C118.457 55.5008 120.15 54.753 121.331 53.8084C122.551 52.8245 123.358 51.6438 123.751 50.2662C124.145 48.8887 124.341 47.3734 124.341 45.7204C124.341 42.3356 123.515 39.738 121.862 37.9275C120.248 36.0777 117.769 35.1528 114.423 35.1528C111.708 35.1528 109.405 35.8809 107.516 37.3372C105.666 38.754 104.387 40.5251 103.679 42.6505C102.852 44.8152 101.77 46.2517 100.432 46.9602C99.0934 47.6686 97.1845 47.826 94.705 47.4325L85.0229 45.7204Z"/>
</mask>
<path d="M75.0365 83.6811L70.7701 82.4316L70.7701 82.4316L75.0365 83.6811ZM68.3063 97.3776L64.8239 94.6144L64.8146 94.6261L64.8054 94.6378L68.3063 97.3776ZM58.152 105.466L56.3277 101.412L56.32 101.415L56.3124 101.419L58.152 105.466ZM32.7661 105.466L30.911 109.506L30.9188 109.509L30.9265 109.513L32.7661 105.466ZM22.7299 97.3776L19.229 100.117H19.229L22.7299 97.3776ZM16.0587 83.6811L11.7842 84.9024L11.7882 84.9164L11.7923 84.9305L16.0587 83.6811ZM16.0587 44.5987L11.7923 43.3493L11.7882 43.3633L11.7842 43.3774L16.0587 44.5987ZM22.7299 30.9021L19.229 28.1623H19.229L22.7299 30.9021ZM32.7661 22.8731L34.587 26.9287L34.5963 26.9245L34.6057 26.9202L32.7661 22.8731ZM58.152 22.8731L56.3124 26.9202L56.3369 26.9314L56.3616 26.9422L58.152 22.8731ZM68.3063 30.9021L64.8054 33.642L64.8146 33.6537L64.8239 33.6654L68.3063 30.9021ZM75.0365 44.5987L70.7701 45.8481L70.7701 45.8481L75.0365 44.5987ZM57.4435 49.5578L53.0809 50.4123L53.0826 50.4209L57.4435 49.5578ZM54.4326 40.5842L50.5599 42.767L50.5748 42.7935L50.5901 42.8198L54.4326 40.5842ZM50.241 36.1564L48.1746 40.0925L48.2136 40.113L48.2529 40.1326L50.241 36.1564ZM40.6771 36.1564L42.7056 40.1121L42.7246 40.1024L42.7435 40.0925L40.6771 36.1564ZM36.5445 40.5842L32.6717 38.4014L32.6566 38.4283L32.6418 38.4554L36.5445 40.5842ZM33.6517 49.5578L29.289 48.7032L29.2856 48.7209L29.2823 48.7385L33.6517 49.5578ZM33.6517 78.781L29.2823 79.6003L29.2864 79.6222L29.2907 79.6441L33.6517 78.781ZM36.5445 87.7546L32.6258 89.8539L32.6483 89.8959L32.6717 89.9374L36.5445 87.7546ZM40.6771 92.2414L38.5694 96.1556L38.6287 96.1875L38.689 96.2176L40.6771 92.2414ZM50.241 92.2414L52.2291 96.2176L52.2685 96.198L52.3075 96.1775L50.241 92.2414ZM54.4326 87.7546L50.5728 85.549L50.5663 85.5604L50.5599 85.5718L54.4326 87.7546ZM57.4435 78.781L53.0826 77.9179V77.9179L57.4435 78.781ZM73.0115 64.1399C73.0115 71.3571 72.2348 77.4303 70.7701 82.4316L79.3028 84.9305C81.0655 78.9116 81.9025 71.9574 81.9025 64.1399H73.0115ZM70.7701 82.4316C69.2799 87.5201 67.2656 91.5372 64.8239 94.6144L71.7887 100.141C75.0933 95.9762 77.5657 90.8622 79.3028 84.9305L70.7701 82.4316ZM64.8054 94.6378C62.3859 97.7294 59.5636 99.9555 56.3277 101.412L59.9763 109.52C64.6119 107.434 68.5592 104.268 71.8072 100.117L64.8054 94.6378ZM56.3124 101.419C53.0316 102.91 49.433 103.677 45.459 103.677V112.568C50.6161 112.568 55.4794 111.564 59.9915 109.513L56.3124 101.419ZM45.459 103.677C41.4851 103.677 37.8864 102.91 34.6057 101.419L30.9265 109.513C35.4387 111.564 40.302 112.568 45.459 112.568V103.677ZM34.6212 101.426C31.4613 99.9747 28.6647 97.7478 26.2308 94.6378L19.229 100.117C22.4626 104.249 26.3568 107.414 30.911 109.506L34.6212 101.426ZM26.2308 94.6378C23.8189 91.5559 21.8183 87.5306 20.3251 82.4316L11.7923 84.9305C13.5264 90.8517 15.9733 95.9575 19.229 100.117L26.2308 94.6378ZM20.3332 82.4598C18.9013 77.4482 18.1428 71.3648 18.1428 64.1399H9.25168C9.25168 71.9496 10.0675 78.8937 11.7842 84.9024L20.3332 82.4598ZM18.1428 64.1399C18.1428 56.9149 18.9013 50.8316 20.3332 45.82L11.7842 43.3774C10.0675 49.386 9.25168 56.3301 9.25168 64.1399H18.1428ZM20.3251 45.8481C21.8183 40.7491 23.8189 36.7238 26.2308 33.642L19.229 28.1623C15.9733 32.3223 13.5264 37.428 11.7923 43.3493L20.3251 45.8481ZM26.2308 33.642C28.6594 30.5386 31.4449 28.3394 34.587 26.9287L30.9453 18.8176C26.3732 20.8704 22.4678 24.0238 19.229 28.1623L26.2308 33.642ZM34.6057 26.9202C37.8864 25.429 41.4851 24.662 45.459 24.662V15.7709C40.302 15.7709 35.4387 16.7751 30.9265 18.8261L34.6057 26.9202ZM45.459 24.662C49.433 24.662 53.0316 25.429 56.3124 26.9202L59.9915 18.8261C55.4794 16.7751 50.6161 15.7709 45.459 15.7709V24.662ZM56.3616 26.9422C59.58 28.3583 62.3913 30.5572 64.8054 33.642L71.8072 28.1623C68.5538 24.0052 64.5955 20.8514 59.9424 18.8041L56.3616 26.9422ZM64.8239 33.6654C67.2656 36.7426 69.2799 40.7596 70.7701 45.8481L79.3028 43.3493C77.5657 37.4176 75.0933 32.3035 71.7887 28.1389L64.8239 33.6654ZM70.7701 45.8481C72.2348 50.8494 73.0115 56.9227 73.0115 64.1399H81.9025C81.9025 56.3223 81.0655 49.3682 79.3028 43.3493L70.7701 45.8481ZM63.0108 64.1399C63.0108 58.045 62.6301 52.8665 61.8045 48.6947L53.0826 50.4209C53.7525 53.8058 54.1197 58.3487 54.1197 64.1399H63.0108ZM61.8062 48.7032C61.0098 44.6377 59.882 41.1103 58.2751 38.3485L50.5901 42.8198C51.5022 44.3875 52.3816 46.8424 53.0809 50.4123L61.8062 48.7032ZM58.3054 38.4014C56.8223 35.7701 54.861 33.4961 52.2291 32.1802L48.2529 40.1326C48.7697 40.391 49.6028 41.0689 50.5599 42.767L58.3054 38.4014ZM52.3075 32.2203C50.1619 31.0939 47.8638 30.4711 45.459 30.4711V39.3622C46.2816 39.3622 47.1715 39.5659 48.1746 40.0925L52.3075 32.2203ZM45.459 30.4711C43.0543 30.4711 40.7562 31.0939 38.6106 32.2203L42.7435 40.0925C43.7466 39.5659 44.6365 39.3622 45.459 39.3622V30.4711ZM38.6485 32.2007C36.0671 33.5245 34.1402 35.796 32.6717 38.4014L40.4172 42.767C41.389 41.043 42.2171 40.3627 42.7056 40.1121L38.6485 32.2007ZM32.6418 38.4554C31.1555 41.1803 30.0799 44.6658 29.289 48.7032L38.0143 50.4123C38.7191 46.8144 39.572 44.3174 40.4472 42.7129L32.6418 38.4554ZM29.2823 48.7385C28.5037 52.8911 28.1435 58.0533 28.1435 64.1399H37.0346C37.0346 58.3404 37.3828 53.7812 38.0211 50.377L29.2823 48.7385ZM28.1435 64.1399C28.1435 70.2637 28.5034 75.4463 29.2823 79.6003L38.0211 77.9618C37.3831 74.559 37.0346 69.9809 37.0346 64.1399H28.1435ZM29.2907 79.6441C30.0831 83.6477 31.157 87.1121 32.6258 89.8539L40.4631 85.6553C39.5705 83.9891 38.7159 81.4711 38.0126 77.9179L29.2907 79.6441ZM32.6717 89.9374C34.1375 92.5381 36.0429 94.7951 38.5694 96.1556L42.7847 88.3272C42.2413 88.0347 41.3916 87.3005 40.4172 85.5718L32.6717 89.9374ZM38.689 96.2176C40.8235 97.2849 43.0942 97.8677 45.459 97.8677V88.9766C44.5966 88.9766 43.6792 88.7722 42.6652 88.2652L38.689 96.2176ZM45.459 97.8677C47.8239 97.8677 50.0946 97.2849 52.2291 96.2176L48.2529 88.2652C47.2389 88.7722 46.3215 88.9766 45.459 88.9766V97.8677ZM52.3075 96.1775C54.8856 94.824 56.8253 92.5634 58.3054 89.9374L50.5599 85.5718C49.5998 87.2752 48.7451 88.0058 48.1746 88.3053L52.3075 96.1775ZM58.2925 89.9602C59.8801 87.1818 61.0065 83.6762 61.8045 79.6441L53.0826 77.9179C52.385 81.4425 51.5041 83.9193 50.5728 85.549L58.2925 89.9602ZM61.8045 79.6441C62.6304 75.4709 63.0108 70.2719 63.0108 64.1399H54.1197C54.1197 69.9727 53.7522 74.5344 53.0826 77.9179L61.8045 79.6441ZM85.0229 45.7204L80.6245 45.0748L79.9975 49.3463L84.2489 50.098L85.0229 45.7204ZM88.6242 34.5034L84.7585 32.3081L84.7482 32.3262L84.7381 32.3444L88.6242 34.5034ZM95.2954 26.5334L92.5308 23.0521L92.5182 23.0621L92.5057 23.0721L95.2954 26.5334ZM104.446 21.8105L105.719 26.0699L105.741 26.0632L105.764 26.0563L104.446 21.8105ZM126.821 22.0466L125.282 26.2172L125.304 26.2253L125.326 26.2332L126.821 22.0466ZM135.204 26.8876L132.237 30.1977L132.237 30.1977L135.204 26.8876ZM140.399 34.0311L136.323 35.8036L136.327 35.8146L136.332 35.8255L140.399 34.0311ZM141.344 49.7349L145.637 50.8906L145.64 50.8804L145.642 50.8702L141.344 49.7349ZM138.865 55.1072L135.253 52.5146L135.247 52.5235L135.241 52.5324L138.865 55.1072ZM134.85 58.9446L137.273 62.672L137.284 62.6647L137.295 62.6574L134.85 58.9446ZM129.419 61.5423L127.964 57.3413L115.917 61.5116L127.945 65.7366L129.419 61.5423ZM141.226 92.9499L145.221 94.9007L141.226 92.9499ZM134.555 101.392L131.772 97.9255L131.76 97.9352L131.748 97.9449L134.555 101.392ZM124.932 106.469L126.213 110.726L126.234 110.72L126.255 110.713L124.932 106.469ZM102.557 106.824L101.343 111.1L101.367 111.107L101.392 111.114L102.557 106.824ZM94.0556 102.691L91.3614 106.227L91.3793 106.241L91.3973 106.254L94.0556 102.691ZM87.5025 95.4884L83.7499 97.8719L83.7613 97.8898L83.7729 97.9077L87.5025 95.4884ZM82.6615 85.098L80.9899 80.9787L77.0909 82.5608L78.4566 86.5408L82.6615 85.098ZM90.8086 81.7919L89.1973 77.6486L89.167 77.6604L89.137 77.6726L90.8086 81.7919ZM96.7122 81.1425L95.7679 85.4866L96.7122 81.1425ZM100.609 83.8582L104.517 81.7393L104.506 81.7192L104.495 81.6992L100.609 83.8582ZM106.217 91.0016L103.527 94.541L103.567 94.5709L103.607 94.6L106.217 91.0016ZM118.556 92.1824L120.371 96.2404L120.395 96.2297L120.419 96.2188L118.556 92.1824ZM122.334 89.5257L119.077 86.5007L119.072 86.5054L122.334 89.5257ZM124.637 85.8064L128.804 87.3543V87.3543L124.637 85.8064ZM124.991 76.6557L120.6 77.349L120.61 77.4157L120.623 77.4821L124.991 76.6557ZM122.866 72.8183L119.892 76.1226H119.892L122.866 72.8183ZM117.493 70.3978L116.415 74.7106L116.457 74.721L116.499 74.7307L117.493 70.3978ZM107.575 69.5122H103.129V73.9578H107.575V69.5122ZM107.575 56.8783V52.4328H103.129V56.8783H107.575ZM121.331 53.8084L124.108 57.2798L124.115 57.2744L124.121 57.2689L121.331 53.8084ZM121.862 37.9275L118.512 40.8499L118.545 40.8878L118.579 40.925L121.862 37.9275ZM107.516 37.3372L110.219 40.8664L110.23 40.8581L107.516 37.3372ZM103.679 42.6505L107.832 44.2362L107.866 44.1469L107.896 44.0563L103.679 42.6505ZM100.432 46.9602L98.3515 43.0312H98.3515L100.432 46.9602ZM94.705 47.4325L93.9309 51.8101L93.9694 51.8169L94.0081 51.823L94.705 47.4325ZM89.4214 46.366C89.9875 42.5092 91.0441 39.3015 92.5103 36.6623L84.7381 32.3444C82.6621 36.0812 81.3178 40.3515 80.6245 45.0748L89.4214 46.366ZM92.4899 36.6987C94.0473 33.9563 95.9178 31.7414 98.085 29.9947L92.5057 23.0721C89.399 25.576 86.822 28.6745 84.7585 32.3081L92.4899 36.6987ZM98.06 30.0148C100.273 28.2574 102.812 26.9387 105.719 26.0699L103.173 17.5511C99.232 18.7289 95.6704 20.5588 92.5308 23.0521L98.06 30.0148ZM105.764 26.0563C108.722 25.1383 111.954 24.662 115.486 24.662V15.7709C111.147 15.7709 107.019 16.3573 103.128 17.5647L105.764 26.0563ZM115.486 24.662C119.317 24.662 122.558 25.2122 125.282 26.2172L128.36 17.876C124.471 16.4409 120.157 15.7709 115.486 15.7709V24.662ZM125.326 26.2332C128.167 27.2479 130.441 28.5877 132.237 30.1977L138.172 23.5776C135.402 21.0944 132.087 19.2068 128.316 17.8601L125.326 26.2332ZM132.237 30.1977C134.061 31.833 135.406 33.6951 136.323 35.8036L144.476 32.2585C143.032 28.9357 140.913 26.0355 138.172 23.5776L132.237 30.1977ZM136.332 35.8255C137.258 37.9235 137.725 40.1448 137.725 42.5324H146.616C146.616 38.9376 145.903 35.4913 144.467 32.2367L136.332 35.8255ZM137.725 42.5324C137.725 44.9589 137.478 46.9651 137.046 48.5995L145.642 50.8702C146.312 48.3327 146.616 45.5373 146.616 42.5324H137.725ZM137.051 48.5792C136.623 50.1721 136.008 51.4633 135.253 52.5146L142.476 57.6999C143.925 55.6813 144.964 53.3909 145.637 50.8906L137.051 48.5792ZM135.241 52.5324C134.514 53.5554 133.583 54.4559 132.405 55.2318L137.295 62.6574C139.344 61.3081 141.09 59.6503 142.488 57.6821L135.241 52.5324ZM132.427 55.2173C131.197 56.0167 129.721 56.7332 127.964 57.3413L130.873 65.7432C133.209 64.9344 135.354 63.9192 137.273 62.672L132.427 55.2173ZM127.945 65.7366C132.077 67.1879 134.818 69.1908 136.549 71.5508C138.267 73.8941 139.26 76.957 139.26 81.0244H148.151C148.151 75.4491 146.763 70.4436 143.719 66.2929C140.687 62.1588 136.285 59.2421 130.892 57.3479L127.945 65.7366ZM139.26 81.0244C139.26 85.055 138.531 88.337 137.231 90.999L145.221 94.9007C147.227 90.7931 148.151 86.1248 148.151 81.0244H139.26ZM137.231 90.999C135.851 93.8263 134.03 96.1129 131.772 97.9255L137.338 104.859C140.669 102.185 143.295 98.843 145.221 94.9007L137.231 90.999ZM131.748 97.9449C129.466 99.8031 126.771 101.239 123.608 102.225L126.255 110.713C130.413 109.417 134.134 107.468 137.362 104.839L131.748 97.9449ZM123.65 102.212C120.422 103.184 117.037 103.677 113.479 103.677V112.568C117.871 112.568 122.121 111.958 126.213 110.726L123.65 102.212ZM113.479 103.677C109.689 103.677 106.452 103.275 103.722 102.533L101.392 111.114C105.037 112.104 109.082 112.568 113.479 112.568V103.677ZM103.771 102.547C101.067 101.779 98.7294 100.631 96.7139 99.1277L91.3973 106.254C94.3408 108.45 97.6712 110.058 101.343 111.1L103.771 102.547ZM96.7498 99.1548C94.7206 97.6088 92.8744 95.6011 91.2321 93.0692L83.7729 97.9077C85.9089 101.201 88.4315 103.995 91.3614 106.227L96.7498 99.1548ZM91.2551 93.105C89.6295 90.5455 88.1554 87.4118 86.8664 83.6551L78.4566 86.5408C79.9226 90.8131 81.6759 94.6064 83.7499 97.8719L91.2551 93.105ZM84.3331 89.2173L92.4802 85.9112L89.137 77.6726L80.9899 80.9787L84.3331 89.2173ZM92.4198 85.9352C93.9204 85.3516 94.9891 85.3173 95.7679 85.4866L97.6566 76.7984C94.8144 76.1805 91.9473 76.5792 89.1973 77.6486L92.4198 85.9352ZM95.7679 85.4866C96.5275 85.6517 96.6484 85.8836 96.7226 86.0171L104.495 81.6992C102.995 78.999 100.518 77.4204 97.6566 76.7984L95.7679 85.4866ZM96.7006 85.977C98.6348 89.5446 100.869 92.521 103.527 94.541L108.907 87.4623C107.629 86.4911 106.125 84.7052 104.517 81.7393L96.7006 85.977ZM103.607 94.6C106.434 96.6513 109.707 97.6315 113.243 97.6315V88.7405C111.425 88.7405 110.015 88.2645 108.828 87.4033L103.607 94.6ZM113.243 97.6315C115.764 97.6315 118.181 97.2202 120.371 96.2404L116.74 88.1244C115.94 88.4827 114.815 88.7405 113.243 88.7405V97.6315ZM120.419 96.2188C122.395 95.3067 124.156 94.1009 125.596 92.5461L119.072 86.5054C118.544 87.0758 117.787 87.6412 116.693 88.146L120.419 96.2188ZM125.592 92.5507C127.003 91.0311 128.084 89.2921 128.804 87.3543L120.469 84.2585C120.166 85.0758 119.712 85.8163 119.077 86.5007L125.592 92.5507ZM128.804 87.3543C129.493 85.5001 129.85 83.5796 129.85 81.6148H120.959C120.959 82.4837 120.804 83.3577 120.469 84.2585L128.804 87.3543ZM129.85 81.6148C129.85 79.5527 129.697 77.6152 129.359 75.8293L120.623 77.4821C120.836 78.6087 120.959 79.9772 120.959 81.6148H129.85ZM129.382 75.9624C128.979 73.4075 127.738 71.2225 125.839 69.5139L119.892 76.1226C120.355 76.5394 120.531 76.9127 120.6 77.349L129.382 75.9624ZM125.839 69.514C123.87 67.7416 121.256 66.7002 118.488 66.0649L116.499 74.7307C118.532 75.1974 119.499 75.7697 119.892 76.1226L125.839 69.514ZM118.571 66.085C115.69 65.3646 111.962 65.0667 107.575 65.0667V73.9578C111.689 73.9578 114.574 74.2502 116.415 74.7106L118.571 66.085ZM112.021 69.5122V56.8783H103.129V69.5122H112.021ZM107.575 61.3239C111.337 61.3239 114.633 61.0392 117.332 60.3646L115.175 51.739C113.465 52.1665 110.976 52.4328 107.575 52.4328V61.3239ZM117.332 60.3646C119.872 59.7295 122.241 58.7731 124.108 57.2798L118.553 50.3371C118.059 50.733 117.043 51.2722 115.175 51.739L117.332 60.3646ZM124.121 57.2689C125.985 55.7662 127.356 53.8298 128.026 51.4875L119.477 49.0449C119.359 49.4577 119.117 49.8827 118.54 50.348L124.121 57.2689ZM128.026 51.4875C128.549 49.6573 128.787 47.7245 128.787 45.7204H119.896C119.896 47.0224 119.741 48.1201 119.477 49.0449L128.026 51.4875ZM128.787 45.7204C128.787 41.6513 127.79 37.827 125.145 34.93L118.579 40.925C119.24 41.649 119.896 43.0199 119.896 45.7204H128.787ZM125.212 35.0052C122.479 31.872 118.565 30.7073 114.423 30.7073V39.5983C116.973 39.5983 118.018 40.2834 118.512 40.8499L125.212 35.0052ZM114.423 30.7073C110.868 30.7073 107.575 31.6789 104.802 33.8162L110.23 40.8581C111.236 40.0829 112.547 39.5983 114.423 39.5983V30.7073ZM104.813 33.8079C102.287 35.7424 100.462 38.241 99.4612 41.2447L107.896 44.0563C108.312 42.8093 109.045 41.7657 110.219 40.8664L104.813 33.8079ZM99.5255 41.0647C99.2205 41.8634 98.9265 42.3709 98.6964 42.6763C98.5846 42.8246 98.4962 42.9143 98.4388 42.9652C98.3829 43.0147 98.3533 43.0303 98.3515 43.0312L102.512 50.8891C105.195 49.4682 106.817 46.8941 107.832 44.2362L99.5255 41.0647ZM98.3515 43.0312C98.2632 43.078 97.5013 43.3751 95.4019 43.0419L94.0081 51.823C96.8677 52.2769 99.9236 52.2592 102.512 50.8891L98.3515 43.0312ZM95.4791 43.0548L85.797 41.3428L84.2489 50.098L93.9309 51.8101L95.4791 43.0548Z" fill="url(#paint2_linear_335_224)" mask="url(#path-4-outside-2_335_224)"/>
</g>
<defs>
<linearGradient id="paint0_linear_335_224" x1="79.6875" y1="3.40267" x2="79.6875" y2="148.375" gradientUnits="userSpaceOnUse">
<stop stop-color="#D9D9D9"/>
<stop offset="1" stop-color="#737373" stop-opacity="0"/>
</linearGradient>
<linearGradient id="paint1_linear_335_224" x1="232.39" y1="-9.82227" x2="232.39" y2="140.382" gradientUnits="userSpaceOnUse">
<stop stop-color="#D9FFDE"/>
<stop offset="1" stop-color="white" stop-opacity="0"/>
</linearGradient>
<linearGradient id="paint2_linear_335_224" x1="232.39" y1="-9.82227" x2="232.39" y2="140.382" gradientUnits="userSpaceOnUse">
<stop stop-color="#D9FFDE"/>
<stop offset="1" stop-color="white" stop-opacity="0"/>
</linearGradient>
</defs>
</svg>
