<svg width="160" height="120" viewBox="0 0 160 120" fill="none" xmlns="http://www.w3.org/2000/svg">
<mask id="mask0_335_244" style="mask-type:alpha" maskUnits="userSpaceOnUse" x="0" y="0" width="160" height="120">
<rect y="0.56958" width="159.375" height="119" fill="url(#paint0_linear_335_244)"/>
</mask>
<g mask="url(#mask0_335_244)">
<g opacity="0.95">
<mask id="path-2-outside-1_335_244" maskUnits="userSpaceOnUse" x="5.33575" y="12.178" width="146" height="104" fill="black">
<rect fill="white" x="5.33575" y="12.178" width="146" height="104"/>
<path d="M77.457 64.1401C77.457 71.6575 76.6502 78.1712 75.0365 83.6813C73.4228 89.1914 71.1794 93.7569 68.3063 97.3779C65.4725 100.999 62.0878 103.695 58.152 105.466C54.2555 107.237 50.0246 108.123 45.459 108.123C40.8935 108.123 36.6626 107.237 32.7661 105.466C28.9091 103.695 25.5636 100.999 22.7299 97.3779C19.8961 93.7569 17.6724 89.1914 16.0587 83.6813C14.4844 78.1712 13.6972 71.6575 13.6972 64.1401C13.6972 56.6228 14.4844 50.109 16.0587 44.5989C17.6724 39.0888 19.8961 34.5233 22.7299 30.9024C25.5636 27.2815 28.9091 24.6051 32.7661 22.8734C36.6626 21.1023 40.8935 20.2167 45.459 20.2167C50.0246 20.2167 54.2555 21.1023 58.152 22.8734C62.0878 24.6051 65.4725 27.2815 68.3063 30.9024C71.1794 34.5233 73.4228 39.0888 75.0365 44.5989C76.6502 50.109 77.457 56.6228 77.457 64.1401ZM58.5652 64.1401C58.5652 58.1971 58.1913 53.3364 57.4435 49.558C56.6957 45.7403 55.6921 42.7491 54.4326 40.5844C53.2125 38.4197 51.8153 36.9438 50.241 36.1567C48.6667 35.3302 47.0727 34.9169 45.459 34.9169C43.8454 34.9169 42.2514 35.3302 40.6771 36.1567C39.1421 36.9438 37.7646 38.4197 36.5445 40.5844C35.3637 42.7491 34.3995 45.7403 33.6517 49.558C32.9432 53.3364 32.589 58.1971 32.589 64.1401C32.589 70.1225 32.9432 75.0029 33.6517 78.7813C34.3995 82.5596 35.3637 85.5508 36.5445 87.7549C37.7646 89.9195 39.1421 91.4151 40.6771 92.2417C42.2514 93.0288 43.8454 93.4224 45.459 93.4224C47.0727 93.4224 48.6667 93.0288 50.241 92.2417C51.8153 91.4151 53.2125 89.9195 54.4326 87.7549C55.6921 85.5508 56.6957 82.5596 57.4435 78.7813C58.1913 75.0029 58.5652 70.1225 58.5652 64.1401ZM106.04 51.4472C107.654 51.1323 109.208 50.9159 110.704 50.7978C112.2 50.6797 113.656 50.6207 115.073 50.6207C119.599 50.6207 123.594 51.3095 127.057 52.687C130.521 54.0645 133.433 55.9537 135.795 58.3545C138.156 60.716 139.927 63.5104 141.108 66.7377C142.328 69.9257 142.938 73.3499 142.938 77.0102C142.938 81.615 142.112 85.8263 140.459 89.644C138.845 93.4224 136.582 96.6891 133.669 99.4442C130.757 102.199 127.274 104.344 123.22 105.879C119.205 107.375 114.797 108.123 109.996 108.123C107.201 108.123 104.525 107.827 101.967 107.237C99.4476 106.647 97.0665 105.859 94.8231 104.876C92.619 103.852 90.5724 102.691 88.6832 101.392C86.7941 100.054 85.082 98.6373 83.547 97.1417L89.2146 89.585C89.8049 88.7978 90.4937 88.2075 91.2809 87.8139C92.068 87.381 92.9142 87.1645 93.8194 87.1645C95.0002 87.1645 96.1022 87.499 97.1255 88.1681C98.1882 88.7978 99.3295 89.5063 100.55 90.2934C101.809 91.0412 103.265 91.73 104.918 92.3597C106.571 92.9895 108.618 93.3043 111.058 93.3043C113.498 93.3043 115.584 92.9107 117.316 92.1236C119.048 91.2971 120.445 90.195 121.508 88.8175C122.61 87.4006 123.397 85.7673 123.869 83.9175C124.381 82.0283 124.637 80.021 124.637 77.8957C124.637 73.7238 123.456 70.5555 121.094 68.3908C118.733 66.1867 115.388 65.0847 111.058 65.0847C107.201 65.0847 103.423 65.8128 99.7231 67.2691L88.388 64.1992L95.7086 21.1613H139.75V28.718C139.75 29.9775 139.553 31.1189 139.16 32.1422C138.766 33.1655 138.136 34.0707 137.271 34.8579C136.444 35.6057 135.342 36.196 133.964 36.629C132.587 37.0225 130.934 37.2193 129.005 37.2193H108.461L106.04 51.4472Z"/>
</mask>
<path d="M75.0365 83.6813L67.359 81.4329L75.0365 83.6813ZM68.3063 97.3779L62.0395 92.4053L62.0228 92.4263L62.0063 92.4474L68.3063 97.3779ZM58.152 105.466L54.869 98.1705L54.8553 98.1767L54.8415 98.183L58.152 105.466ZM32.7661 105.466L29.4278 112.736L29.4417 112.742L29.4557 112.749L32.7661 105.466ZM22.7299 97.3779L16.4298 102.308H16.4298L22.7299 97.3779ZM16.0587 83.6813L8.36651 85.8791L8.37375 85.9044L8.38116 85.9297L16.0587 83.6813ZM16.0587 44.5989L8.38116 42.3505L8.37375 42.3758L8.36651 42.4012L16.0587 44.5989ZM22.7299 30.9024L16.4298 25.9719H16.4298L22.7299 30.9024ZM32.7661 22.8734L36.0429 30.1715L36.0597 30.164L36.0765 30.1563L32.7661 22.8734ZM58.152 22.8734L54.8415 30.1563L54.8857 30.1764L54.9301 30.1959L58.152 22.8734ZM68.3063 30.9024L62.0063 35.8329L62.0228 35.854L62.0395 35.875L68.3063 30.9024ZM75.0365 44.5989L67.359 46.8474V46.8474L75.0365 44.5989ZM57.4435 49.558L49.5927 51.0958L49.5942 51.1035L49.5957 51.1112L57.4435 49.558ZM54.4326 40.5844L47.4634 44.5125L47.4903 44.5602L47.5179 44.6076L54.4326 40.5844ZM50.241 36.1567L46.5224 43.2398L46.5925 43.2767L46.6633 43.3121L50.241 36.1567ZM40.6771 36.1567L44.3276 43.2752L44.3617 43.2577L44.3957 43.2398L40.6771 36.1567ZM36.5445 40.5844L29.5753 36.6563L29.548 36.7048L29.5213 36.7536L36.5445 40.5844ZM33.6517 49.558L25.8009 48.0202L25.7947 48.052L25.7887 48.0837L33.6517 49.558ZM33.6517 78.7813L25.7887 80.2556L25.7961 80.2951L25.8039 80.3345L33.6517 78.7813ZM36.5445 87.7549L29.4926 91.5326L29.5331 91.6082L29.5753 91.683L36.5445 87.7549ZM40.6771 92.2417L36.8843 99.2854L36.991 99.3429L37.0993 99.3971L40.6771 92.2417ZM50.241 92.2417L53.8187 99.3971L53.8896 99.3617L53.9597 99.3248L50.241 92.2417ZM54.4326 87.7549L47.4867 83.7857L47.475 83.8062L47.4634 83.8268L54.4326 87.7549ZM57.4435 78.7813L49.5957 77.2281L57.4435 78.7813ZM69.457 64.1401C69.457 71.1173 68.7045 76.8384 67.359 81.4329L82.714 85.9297C84.5959 79.504 85.457 72.1977 85.457 64.1401H69.457ZM67.359 81.4329C65.9675 86.1843 64.1362 89.7628 62.0395 92.4053L74.5731 102.35C78.2226 97.7511 80.8782 92.1985 82.714 85.9297L67.359 81.4329ZM62.0063 92.4474C59.918 95.1158 57.5453 96.9662 54.869 98.1705L61.4349 112.761C66.6302 110.423 71.0271 106.882 74.6063 102.308L62.0063 92.4474ZM54.8415 98.183C52.0531 99.4505 48.9601 100.123 45.459 100.123V116.123C51.089 116.123 56.458 115.024 61.4624 112.749L54.8415 98.183ZM45.459 100.123C41.958 100.123 38.865 99.4505 36.0765 98.183L29.4557 112.749C34.4601 115.024 39.829 116.123 45.459 116.123V100.123ZM36.1045 98.1957C33.502 97.0007 31.1442 95.149 29.0299 92.4474L16.4298 102.308C19.9831 106.849 24.3161 110.389 29.4278 112.736L36.1045 98.1957ZM29.0299 92.4474C26.9553 89.7965 25.1332 86.2031 23.7362 81.4329L8.38116 85.9297C10.2115 92.1797 12.8369 97.7173 16.4298 102.308L29.0299 92.4474ZM23.7509 81.4836C22.4329 76.8706 21.6972 71.1313 21.6972 64.1401H5.69723C5.69723 72.1837 6.53587 79.4718 8.36651 85.8791L23.7509 81.4836ZM21.6972 64.1401C21.6972 57.149 22.4329 51.4097 23.7509 46.7967L8.36651 42.4012C6.53587 48.8084 5.69723 56.0966 5.69723 64.1401H21.6972ZM23.7362 46.8474C25.1332 42.0771 26.9553 38.4837 29.0299 35.8329L16.4298 25.9719C12.8369 30.5629 10.2115 36.1006 8.38116 42.3505L23.7362 46.8474ZM29.0299 35.8329C31.1347 33.1434 33.4725 31.3256 36.0429 30.1715L29.4894 15.5752C24.3456 17.8847 19.9925 21.4196 16.4298 25.9719L29.0299 35.8329ZM36.0765 30.1563C38.865 28.8888 41.958 28.2167 45.459 28.2167V12.2167C39.829 12.2167 34.4601 13.3157 29.4557 15.5904L36.0765 30.1563ZM45.459 28.2167C48.9601 28.2167 52.0531 28.8888 54.8415 30.1563L61.4624 15.5904C56.458 13.3157 51.089 12.2167 45.459 12.2167V28.2167ZM54.9301 30.1959C57.575 31.3597 59.9276 33.1768 62.0063 35.8329L74.6063 25.9719C71.0175 21.3861 66.6005 17.8506 61.3739 15.5509L54.9301 30.1959ZM62.0395 35.875C64.1362 38.5175 65.9675 42.0959 67.359 46.8474L82.714 42.3505C80.8782 36.0817 78.2226 30.5291 74.5731 25.9298L62.0395 35.875ZM67.359 46.8474C68.7045 51.4418 69.457 57.163 69.457 64.1401H85.457C85.457 56.0826 84.5959 48.7762 82.714 42.3505L67.359 46.8474ZM66.5652 64.1401C66.5652 57.9238 66.1792 52.4912 65.2913 48.0048L49.5957 51.1112C50.2034 54.1816 50.5652 58.4704 50.5652 64.1401H66.5652ZM65.2943 48.0202C64.4592 43.7566 63.232 39.8004 61.3474 36.5613L47.5179 44.6076C48.1522 45.6978 48.9323 47.724 49.5927 51.0958L65.2943 48.0202ZM61.4019 36.6563C59.7085 33.652 57.2962 30.74 53.8187 29.0012L46.6633 43.3121C46.3345 43.1477 46.7166 43.1875 47.4634 44.5125L61.4019 36.6563ZM53.9597 29.0735C51.3574 27.7073 48.4963 26.9169 45.459 26.9169V42.9169C45.6491 42.9169 45.976 42.953 46.5224 43.2398L53.9597 29.0735ZM45.459 26.9169C42.4218 26.9169 39.5607 27.7073 36.9584 29.0735L44.3957 43.2398C44.9421 42.953 45.269 42.9169 45.459 42.9169V26.9169ZM37.0265 29.0381C33.6084 30.791 31.2423 33.6987 29.5753 36.6563L43.5137 44.5125C43.8807 43.8614 44.1712 43.4946 44.3411 43.3125C44.5041 43.138 44.5102 43.1816 44.3276 43.2752L37.0265 29.0381ZM29.5213 36.7536C27.7907 39.9264 26.6261 43.8071 25.8009 48.0202L41.5025 51.0958C42.1728 47.6735 42.9368 45.5718 43.5676 44.4153L29.5213 36.7536ZM25.7887 48.0837C24.954 52.5355 24.589 57.9388 24.589 64.1401H40.589C40.589 58.4553 40.9325 54.1372 41.5147 51.0323L25.7887 48.0837ZM24.589 64.1401C24.589 70.377 24.9535 75.8013 25.7887 80.2556L41.5147 77.307C40.9329 74.2045 40.589 69.8681 40.589 64.1401H24.589ZM25.8039 80.3345C26.6319 84.5181 27.7935 88.3608 29.4926 91.5326L43.5963 83.9771C42.934 82.7408 42.167 80.6012 41.4995 77.2281L25.8039 80.3345ZM29.5753 91.683C31.2375 94.6322 33.5649 97.4981 36.8843 99.2854L44.4699 85.1979C44.7194 85.3322 44.2916 85.2069 43.5137 83.8268L29.5753 91.683ZM37.0993 99.3971C39.6819 100.688 42.4935 101.422 45.459 101.422V85.4224C45.1972 85.4224 44.8209 85.3693 44.2548 85.0862L37.0993 99.3971ZM45.459 101.422C48.4246 101.422 51.2362 100.688 53.8187 99.3971L46.6633 85.0862C46.0972 85.3693 45.7209 85.4224 45.459 85.4224V101.422ZM53.9597 99.3248C57.3404 97.55 59.7139 94.6777 61.4019 91.683L47.4634 83.8268C46.7112 85.1614 46.2903 85.2803 46.5224 85.1585L53.9597 99.3248ZM61.3786 91.724C63.2287 88.4863 64.4531 84.5695 65.2913 80.3345L49.5957 77.2281C48.9383 80.5498 48.1555 82.6153 47.4867 83.7857L61.3786 91.724ZM65.2913 80.3345C66.1797 75.8455 66.5652 70.3918 66.5652 64.1401H50.5652C50.5652 69.8533 50.2029 74.1603 49.5957 77.2281L65.2913 80.3345ZM106.04 51.4472L98.1534 50.1055L96.2122 61.5157L107.572 59.2991L106.04 51.4472ZM110.704 50.7978L110.074 42.8226L110.704 50.7978ZM127.057 52.687L124.101 60.1206L127.057 52.687ZM135.795 58.3545L130.091 63.9644L130.114 63.988L130.138 64.0114L135.795 58.3545ZM141.108 66.7377L133.595 69.4864L133.615 69.542L133.636 69.5972L141.108 66.7377ZM140.459 89.644L133.117 86.4653L133.109 86.4836L133.101 86.5019L140.459 89.644ZM133.669 99.4442L128.172 93.6324L133.669 99.4442ZM123.22 105.879L126.013 113.376L126.033 113.368L126.053 113.361L123.22 105.879ZM101.967 107.237L100.141 115.026L100.154 115.029L100.168 115.032L101.967 107.237ZM94.8231 104.876L91.4542 112.132L91.5316 112.168L91.6098 112.202L94.8231 104.876ZM88.6832 101.392L84.0591 107.921L84.1048 107.953L84.151 107.985L88.6832 101.392ZM83.547 97.1417L77.147 92.3417L72.9291 97.9656L77.9641 102.872L83.547 97.1417ZM89.2146 89.585L95.6146 94.385L89.2146 89.585ZM91.2809 87.8139L94.8586 94.9693L94.9988 94.8992L95.1362 94.8236L91.2809 87.8139ZM97.1255 88.1681L92.7475 94.8639L92.8952 94.9605L93.0471 95.0505L97.1255 88.1681ZM100.55 90.2934L96.2126 97.0158L96.3375 97.0964L96.4653 97.1723L100.55 90.2934ZM117.316 92.1236L120.627 99.4065L120.695 99.3756L120.762 99.3434L117.316 92.1236ZM121.508 88.8175L115.193 83.906L115.183 83.9185L115.173 83.9311L121.508 88.8175ZM123.869 83.9175L116.147 81.8261L116.132 81.8822L116.118 81.9384L123.869 83.9175ZM121.094 68.3908L115.636 74.2392L115.662 74.2637L115.689 74.288L121.094 68.3908ZM99.7231 67.2691L97.6318 74.9909L100.188 75.6833L102.653 74.7132L99.7231 67.2691ZM88.388 64.1992L80.5013 62.8577L79.2828 70.0214L86.2967 71.921L88.388 64.1992ZM95.7086 21.1613V13.1613H88.9545L87.8219 19.8198L95.7086 21.1613ZM139.75 21.1613H147.75V13.1613H139.75V21.1613ZM139.16 32.1422L131.693 29.2703L131.693 29.2704L139.16 32.1422ZM137.271 34.8579L142.638 40.7902L142.645 40.7838L142.652 40.7774L137.271 34.8579ZM133.964 36.629L136.162 44.3212L136.263 44.2923L136.363 44.2609L133.964 36.629ZM108.461 37.2193V29.2193H101.707L100.574 35.8776L108.461 37.2193ZM107.572 59.2991C108.916 59.037 110.168 58.865 111.334 58.773L110.074 42.8226C108.249 42.9668 106.392 43.2277 104.508 43.5953L107.572 59.2991ZM111.334 58.773C112.632 58.6705 113.878 58.6207 115.073 58.6207V42.6207C113.434 42.6207 111.767 42.689 110.074 42.8226L111.334 58.773ZM115.073 58.6207C118.797 58.6207 121.756 59.1881 124.101 60.1206L130.014 45.2534C125.431 43.4308 120.4 42.6207 115.073 42.6207V58.6207ZM124.101 60.1206C126.643 61.1317 128.588 62.4365 130.091 63.9644L141.498 52.7446C138.278 49.4708 134.399 46.9973 130.014 45.2534L124.101 60.1206ZM130.138 64.0114C131.652 65.5258 132.802 67.3193 133.595 69.4864L148.621 63.9891C147.052 59.7015 144.66 55.9062 141.451 52.6977L130.138 64.0114ZM133.636 69.5972C134.483 71.8081 134.938 74.2561 134.938 77.0102H150.938C150.938 72.4436 150.173 68.0433 148.579 63.8783L133.636 69.5972ZM134.938 77.0102C134.938 80.639 134.291 83.7534 133.117 86.4653L147.8 92.8228C149.932 87.8992 150.938 82.5911 150.938 77.0102H134.938ZM133.101 86.5019C131.907 89.2981 130.268 91.6494 128.172 93.6324L139.167 105.256C142.896 101.729 145.782 97.5467 147.816 92.7861L133.101 86.5019ZM128.172 93.6324C126.089 95.6027 123.532 97.2067 120.387 98.3975L126.053 113.361C131.015 111.482 135.425 108.796 139.167 105.256L128.172 93.6324ZM120.427 98.3825C117.407 99.5075 113.958 100.123 109.996 100.123V116.123C115.636 116.123 121.003 115.242 126.013 113.376L120.427 98.3825ZM109.996 100.123C107.768 100.123 105.697 99.8877 103.765 99.4419L100.168 115.032C103.352 115.767 106.634 116.123 109.996 116.123V100.123ZM103.792 99.4481C101.722 98.963 99.808 98.3263 98.0364 97.5492L91.6098 112.202C94.3249 113.393 97.1728 114.33 100.141 115.026L103.792 99.4481ZM98.192 97.6195C96.3695 96.7733 94.7148 95.8309 93.2155 94.8L84.151 107.985C86.43 109.551 88.8686 110.931 91.4542 112.132L98.192 97.6195ZM93.3074 94.8642C91.7312 93.7477 90.3439 92.5947 89.1299 91.4119L77.9641 102.872C79.8201 104.68 81.8569 106.361 84.0591 107.921L93.3074 94.8642ZM89.947 101.942L95.6146 94.385L82.8146 84.785L77.147 92.3417L89.947 101.942ZM95.6146 94.385C95.5888 94.4193 95.5146 94.5107 95.3802 94.6259C95.2433 94.7433 95.0678 94.8647 94.8586 94.9693L87.7031 80.6585C85.6798 81.6702 84.0612 83.1228 82.8146 84.785L95.6146 94.385ZM95.1362 94.8236C94.9562 94.9226 94.7368 95.0137 94.4885 95.0773C94.2405 95.1407 94.0111 95.1645 93.8194 95.1645V79.1645C91.577 79.1645 89.4032 79.7164 87.4255 80.8042L95.1362 94.8236ZM93.8194 95.1645C93.6425 95.1645 93.429 95.1376 93.2076 95.0704C92.9884 95.0039 92.8324 94.9194 92.7475 94.8639L101.503 81.4724C99.2274 79.9842 96.6125 79.1645 93.8194 79.1645V95.1645ZM93.0471 95.0505C94.009 95.6205 95.0634 96.2744 96.2126 97.0158L104.887 83.5711C103.596 82.7382 102.367 81.9752 101.204 81.2858L93.0471 95.0505ZM96.4653 97.1723C98.1901 98.1964 100.074 99.075 102.07 99.8356L107.766 84.8838C106.457 84.385 105.428 83.8861 104.634 83.4146L96.4653 97.1723ZM102.07 99.8356C104.907 100.916 107.988 101.304 111.058 101.304V85.3043C109.248 85.3043 108.236 85.0628 107.766 84.8838L102.07 99.8356ZM111.058 101.304C114.33 101.304 117.605 100.78 120.627 99.4065L114.006 84.8407C113.564 85.0416 112.667 85.3043 111.058 85.3043V101.304ZM120.762 99.3434C123.508 98.0329 125.937 96.174 127.842 93.7039L115.173 83.9311C114.954 84.2161 114.588 84.5612 113.87 84.9037L120.762 99.3434ZM127.823 93.729C129.642 91.3894 130.894 88.7433 131.621 85.8965L116.118 81.9384C115.9 82.7912 115.577 83.4118 115.193 83.906L127.823 93.729ZM131.591 86.0088C132.302 83.3821 132.637 80.6672 132.637 77.8957H116.637C116.637 79.3748 116.459 80.6744 116.147 81.8261L131.591 86.0088ZM132.637 77.8957C132.637 72.1974 130.978 66.5978 126.5 62.4935L115.689 74.288C115.934 74.5131 116.637 75.2502 116.637 77.8957H132.637ZM126.553 62.5423C122.265 58.5406 116.71 57.0847 111.058 57.0847V73.0847C114.065 73.0847 115.201 73.8329 115.636 74.2392L126.553 62.5423ZM111.058 57.0847C106.167 57.0847 101.397 58.013 96.793 59.825L102.653 74.7132C105.449 73.6127 108.235 73.0847 111.058 73.0847V57.0847ZM101.814 59.5473L90.4794 56.4773L86.2967 71.921L97.6318 74.9909L101.814 59.5473ZM96.2748 65.5407L103.595 22.5028L87.8219 19.8198L80.5013 62.8577L96.2748 65.5407ZM95.7086 29.1613H139.75V13.1613H95.7086V29.1613ZM131.75 21.1613V28.718H147.75V21.1613H131.75ZM131.75 28.718C131.75 29.1398 131.686 29.2891 131.693 29.2703L146.626 35.014C147.421 32.9486 147.75 30.8151 147.75 28.718H131.75ZM131.693 29.2704C131.728 29.1789 131.775 29.0918 131.825 29.0201C131.874 28.9501 131.904 28.9245 131.889 28.9383L142.652 40.7774C144.377 39.2088 145.755 37.2797 146.626 35.014L131.693 29.2704ZM131.903 28.9256C132.027 28.8139 132.092 28.785 132.046 28.8096C131.997 28.8359 131.849 28.9079 131.566 28.997L136.363 44.2609C138.529 43.5802 140.743 42.505 142.638 40.7902L131.903 28.9256ZM131.767 28.9368C131.302 29.0695 130.43 29.2193 129.005 29.2193V45.2193C131.438 45.2193 133.872 44.9756 136.162 44.3212L131.767 28.9368ZM129.005 29.2193H108.461V45.2193H129.005V29.2193ZM100.574 35.8776L98.1534 50.1055L113.927 52.7889L116.347 38.561L100.574 35.8776Z" fill="url(#paint1_linear_335_244)" mask="url(#path-2-outside-1_335_244)"/>
</g>
<mask id="path-4-outside-2_335_244" maskUnits="userSpaceOnUse" x="8.33575" y="15.178" width="140" height="98" fill="black">
<rect fill="white" x="8.33575" y="15.178" width="140" height="98"/>
<path d="M77.457 64.1401C77.457 71.6575 76.6502 78.1712 75.0365 83.6813C73.4228 89.1914 71.1794 93.7569 68.3063 97.3779C65.4725 100.999 62.0878 103.695 58.152 105.466C54.2555 107.237 50.0246 108.123 45.459 108.123C40.8935 108.123 36.6626 107.237 32.7661 105.466C28.9091 103.695 25.5636 100.999 22.7299 97.3779C19.8961 93.7569 17.6724 89.1914 16.0587 83.6813C14.4844 78.1712 13.6972 71.6575 13.6972 64.1401C13.6972 56.6228 14.4844 50.109 16.0587 44.5989C17.6724 39.0888 19.8961 34.5233 22.7299 30.9024C25.5636 27.2815 28.9091 24.6051 32.7661 22.8734C36.6626 21.1023 40.8935 20.2167 45.459 20.2167C50.0246 20.2167 54.2555 21.1023 58.152 22.8734C62.0878 24.6051 65.4725 27.2815 68.3063 30.9024C71.1794 34.5233 73.4228 39.0888 75.0365 44.5989C76.6502 50.109 77.457 56.6228 77.457 64.1401ZM58.5652 64.1401C58.5652 58.1971 58.1913 53.3364 57.4435 49.558C56.6957 45.7403 55.6921 42.7491 54.4326 40.5844C53.2125 38.4197 51.8153 36.9438 50.241 36.1567C48.6667 35.3302 47.0727 34.9169 45.459 34.9169C43.8454 34.9169 42.2514 35.3302 40.6771 36.1567C39.1421 36.9438 37.7646 38.4197 36.5445 40.5844C35.3637 42.7491 34.3995 45.7403 33.6517 49.558C32.9432 53.3364 32.589 58.1971 32.589 64.1401C32.589 70.1225 32.9432 75.0029 33.6517 78.7813C34.3995 82.5596 35.3637 85.5508 36.5445 87.7549C37.7646 89.9195 39.1421 91.4151 40.6771 92.2417C42.2514 93.0288 43.8454 93.4224 45.459 93.4224C47.0727 93.4224 48.6667 93.0288 50.241 92.2417C51.8153 91.4151 53.2125 89.9195 54.4326 87.7549C55.6921 85.5508 56.6957 82.5596 57.4435 78.7813C58.1913 75.0029 58.5652 70.1225 58.5652 64.1401ZM106.04 51.4472C107.654 51.1323 109.208 50.9159 110.704 50.7978C112.2 50.6797 113.656 50.6207 115.073 50.6207C119.599 50.6207 123.594 51.3095 127.057 52.687C130.521 54.0645 133.433 55.9537 135.795 58.3545C138.156 60.716 139.927 63.5104 141.108 66.7377C142.328 69.9257 142.938 73.3499 142.938 77.0102C142.938 81.615 142.112 85.8263 140.459 89.644C138.845 93.4224 136.582 96.6891 133.669 99.4442C130.757 102.199 127.274 104.344 123.22 105.879C119.205 107.375 114.797 108.123 109.996 108.123C107.201 108.123 104.525 107.827 101.967 107.237C99.4476 106.647 97.0665 105.859 94.8231 104.876C92.619 103.852 90.5724 102.691 88.6832 101.392C86.7941 100.054 85.082 98.6373 83.547 97.1417L89.2146 89.585C89.8049 88.7978 90.4937 88.2075 91.2809 87.8139C92.068 87.381 92.9142 87.1645 93.8194 87.1645C95.0002 87.1645 96.1022 87.499 97.1255 88.1681C98.1882 88.7978 99.3295 89.5063 100.55 90.2934C101.809 91.0412 103.265 91.73 104.918 92.3597C106.571 92.9895 108.618 93.3043 111.058 93.3043C113.498 93.3043 115.584 92.9107 117.316 92.1236C119.048 91.2971 120.445 90.195 121.508 88.8175C122.61 87.4006 123.397 85.7673 123.869 83.9175C124.381 82.0283 124.637 80.021 124.637 77.8957C124.637 73.7238 123.456 70.5555 121.094 68.3908C118.733 66.1867 115.388 65.0847 111.058 65.0847C107.201 65.0847 103.423 65.8128 99.7231 67.2691L88.388 64.1992L95.7086 21.1613H139.75V28.718C139.75 29.9775 139.553 31.1189 139.16 32.1422C138.766 33.1655 138.136 34.0707 137.271 34.8579C136.444 35.6057 135.342 36.196 133.964 36.629C132.587 37.0225 130.934 37.2193 129.005 37.2193H108.461L106.04 51.4472Z"/>
</mask>
<path d="M75.0365 83.6813L70.7701 82.4319L70.7701 82.4319L75.0365 83.6813ZM68.3063 97.3779L64.8239 94.6146L64.8146 94.6263L64.8054 94.638L68.3063 97.3779ZM58.152 105.466L56.3277 101.412L56.32 101.415L56.3124 101.419L58.152 105.466ZM32.7661 105.466L30.911 109.506L30.9188 109.509L30.9265 109.513L32.7661 105.466ZM22.7299 97.3779L19.229 100.118H19.229L22.7299 97.3779ZM16.0587 83.6813L11.7842 84.9026L11.7882 84.9167L11.7923 84.9307L16.0587 83.6813ZM16.0587 44.5989L11.7923 43.3495L11.7882 43.3636L11.7842 43.3777L16.0587 44.5989ZM22.7299 30.9024L19.229 28.1626H19.229L22.7299 30.9024ZM32.7661 22.8734L34.587 26.9289L34.5963 26.9247L34.6057 26.9205L32.7661 22.8734ZM58.152 22.8734L56.3124 26.9205L56.3369 26.9316L56.3616 26.9425L58.152 22.8734ZM68.3063 30.9024L64.8054 33.6422L64.8146 33.654L64.8239 33.6656L68.3063 30.9024ZM75.0365 44.5989L70.7701 45.8484L70.7701 45.8484L75.0365 44.5989ZM57.4435 49.558L53.0809 50.4126L53.0826 50.4211L57.4435 49.558ZM54.4326 40.5844L50.5599 42.7672L50.5748 42.7938L50.5901 42.8201L54.4326 40.5844ZM50.241 36.1567L48.1746 40.0927L48.2136 40.1132L48.2529 40.1329L50.241 36.1567ZM40.6771 36.1567L42.7056 40.1124L42.7246 40.1027L42.7435 40.0927L40.6771 36.1567ZM36.5445 40.5844L32.6717 38.4016L32.6566 38.4285L32.6418 38.4557L36.5445 40.5844ZM33.6517 49.558L29.289 48.7035L29.2856 48.7211L29.2823 48.7388L33.6517 49.558ZM33.6517 78.7813L29.2823 79.6005L29.2864 79.6225L29.2907 79.6444L33.6517 78.7813ZM36.5445 87.7549L32.6258 89.8541L32.6483 89.8962L32.6717 89.9377L36.5445 87.7549ZM40.6771 92.2417L38.5694 96.1558L38.6287 96.1878L38.689 96.2179L40.6771 92.2417ZM50.241 92.2417L52.2291 96.2179L52.2685 96.1982L52.3075 96.1777L50.241 92.2417ZM54.4326 87.7549L50.5728 85.5493L50.5663 85.5606L50.5599 85.572L54.4326 87.7549ZM57.4435 78.7813L53.0826 77.9182V77.9182L57.4435 78.7813ZM73.0115 64.1401C73.0115 71.3573 72.2348 77.4306 70.7701 82.4319L79.3028 84.9307C81.0655 78.9118 81.9025 71.9577 81.9025 64.1401H73.0115ZM70.7701 82.4319C69.2799 87.5204 67.2656 91.5374 64.8239 94.6146L71.7887 100.141C75.0933 95.9765 77.5657 90.8624 79.3028 84.9307L70.7701 82.4319ZM64.8054 94.638C62.3859 97.7296 59.5636 99.9558 56.3277 101.412L59.9763 109.52C64.6119 107.434 68.5592 104.268 71.8072 100.118L64.8054 94.638ZM56.3124 101.419C53.0316 102.91 49.433 103.677 45.459 103.677V112.568C50.6161 112.568 55.4794 111.564 59.9915 109.513L56.3124 101.419ZM45.459 103.677C41.4851 103.677 37.8864 102.91 34.6057 101.419L30.9265 109.513C35.4387 111.564 40.302 112.568 45.459 112.568V103.677ZM34.6212 101.426C31.4613 99.975 28.6647 97.7481 26.2308 94.638L19.229 100.118C22.4626 104.249 26.3568 107.415 30.911 109.506L34.6212 101.426ZM26.2308 94.638C23.8189 91.5562 21.8183 87.5309 20.3251 82.4319L11.7923 84.9307C13.5264 90.852 15.9733 95.9577 19.229 100.118L26.2308 94.638ZM20.3332 82.46C18.9013 77.4485 18.1428 71.3651 18.1428 64.1401H9.25168C9.25168 71.9499 10.0675 78.894 11.7842 84.9026L20.3332 82.46ZM18.1428 64.1401C18.1428 56.9152 18.9013 50.8318 20.3332 45.8202L11.7842 43.3777C10.0675 49.3863 9.25168 56.3304 9.25168 64.1401H18.1428ZM20.3251 45.8484C21.8183 40.7494 23.8189 36.7241 26.2308 33.6422L19.229 28.1626C15.9733 32.3226 13.5264 37.4283 11.7923 43.3495L20.3251 45.8484ZM26.2308 33.6422C28.6594 30.5389 31.4449 28.3396 34.587 26.9289L30.9453 18.8178C26.3732 20.8706 22.4678 24.024 19.229 28.1626L26.2308 33.6422ZM34.6057 26.9205C37.8864 25.4292 41.4851 24.6623 45.459 24.6623V15.7712C40.302 15.7712 35.4387 16.7753 30.9265 18.8263L34.6057 26.9205ZM45.459 24.6623C49.433 24.6623 53.0316 25.4292 56.3124 26.9205L59.9915 18.8263C55.4794 16.7753 50.6161 15.7712 45.459 15.7712V24.6623ZM56.3616 26.9425C59.58 28.3586 62.3913 30.5575 64.8054 33.6422L71.8072 28.1626C68.5538 24.0055 64.5955 20.8517 59.9424 18.8043L56.3616 26.9425ZM64.8239 33.6656C67.2656 36.7428 69.2799 40.7599 70.7701 45.8484L79.3028 43.3495C77.5657 37.4178 75.0933 32.3038 71.7887 28.1391L64.8239 33.6656ZM70.7701 45.8484C72.2348 50.8497 73.0115 56.923 73.0115 64.1401H81.9025C81.9025 56.3226 81.0655 49.3684 79.3028 43.3495L70.7701 45.8484ZM63.0108 64.1401C63.0108 58.0452 62.6301 52.8667 61.8045 48.6949L53.0826 50.4211C53.7525 53.806 54.1197 58.3489 54.1197 64.1401H63.0108ZM61.8062 48.7035C61.0098 44.638 59.882 41.1105 58.2751 38.3488L50.5901 42.8201C51.5022 44.3877 52.3816 46.8427 53.0809 50.4126L61.8062 48.7035ZM58.3054 38.4016C56.8223 35.7703 54.861 33.4964 52.2291 32.1805L48.2529 40.1329C48.7697 40.3913 49.6028 41.0692 50.5599 42.7672L58.3054 38.4016ZM52.3075 32.2206C50.1619 31.0942 47.8638 30.4713 45.459 30.4713V39.3624C46.2816 39.3624 47.1715 39.5661 48.1746 40.0927L52.3075 32.2206ZM45.459 30.4713C43.0543 30.4713 40.7562 31.0942 38.6106 32.2206L42.7435 40.0927C43.7466 39.5661 44.6365 39.3624 45.459 39.3624V30.4713ZM38.6485 32.2009C36.0671 33.5247 34.1402 35.7963 32.6717 38.4016L40.4172 42.7673C41.389 41.0432 42.2171 40.3629 42.7056 40.1124L38.6485 32.2009ZM32.6418 38.4557C31.1555 41.1805 30.0799 44.666 29.289 48.7035L38.0143 50.4126C38.7191 46.8146 39.572 44.3177 40.4472 42.7132L32.6418 38.4557ZM29.2823 48.7388C28.5037 52.8914 28.1435 58.0536 28.1435 64.1401H37.0346C37.0346 58.3406 37.3828 53.7814 38.0211 50.3773L29.2823 48.7388ZM28.1435 64.1401C28.1435 70.2639 28.5034 75.4466 29.2823 79.6005L38.0211 77.962C37.3831 74.5592 37.0346 69.9811 37.0346 64.1401H28.1435ZM29.2907 79.6444C30.0831 83.6479 31.157 87.1123 32.6258 89.8541L40.4631 85.6556C39.5705 83.9893 38.7159 81.4713 38.0126 77.9182L29.2907 79.6444ZM32.6717 89.9377C34.1375 92.5383 36.0429 94.7954 38.5694 96.1558L42.7847 88.3275C42.2413 88.0349 41.3916 87.3008 40.4172 85.572L32.6717 89.9377ZM38.689 96.2179C40.8235 97.2852 43.0942 97.8679 45.459 97.8679V88.9769C44.5966 88.9769 43.6792 88.7725 42.6652 88.2654L38.689 96.2179ZM45.459 97.8679C47.8239 97.8679 50.0946 97.2852 52.2291 96.2179L48.2529 88.2654C47.2389 88.7725 46.3215 88.9769 45.459 88.9769V97.8679ZM52.3075 96.1777C54.8856 94.8242 56.8253 92.5636 58.3054 89.9377L50.5599 85.572C49.5998 87.2755 48.7451 88.0061 48.1746 88.3056L52.3075 96.1777ZM58.2925 89.9605C59.8801 87.182 61.0065 83.6765 61.8045 79.6444L53.0826 77.9182C52.385 81.4428 51.5041 83.9196 50.5728 85.5493L58.2925 89.9605ZM61.8045 79.6444C62.6304 75.4711 63.0108 70.2722 63.0108 64.1401H54.1197C54.1197 69.9729 53.7522 74.5347 53.0826 77.9182L61.8045 79.6444ZM106.04 51.4472L101.657 50.7016L100.579 57.0422L106.891 55.8105L106.04 51.4472ZM110.704 50.7978L110.354 46.366L110.704 50.7978ZM127.057 52.687L125.414 56.8178H125.414L127.057 52.687ZM135.795 58.3545L132.625 61.4719L132.638 61.485L132.651 61.498L135.795 58.3545ZM141.108 66.7377L136.933 68.2652L136.944 68.296L136.956 68.3267L141.108 66.7377ZM140.459 89.644L136.379 87.8776L136.375 87.8878L136.37 87.898L140.459 89.644ZM133.669 99.4442L130.614 96.2146L133.669 99.4442ZM123.22 105.879L124.772 110.045L124.783 110.041L124.794 110.037L123.22 105.879ZM101.967 107.237L100.952 111.565L100.959 111.567L100.967 111.569L101.967 107.237ZM94.8231 104.876L92.951 108.908L92.994 108.928L93.0375 108.947L94.8231 104.876ZM88.6832 101.392L86.1136 105.02L86.139 105.038L86.1647 105.056L88.6832 101.392ZM83.547 97.1417L79.9906 94.4744L77.6467 97.5996L80.4446 100.326L83.547 97.1417ZM89.2146 89.585L92.771 92.2523L89.2146 89.585ZM91.2809 87.8139L93.269 91.7901L93.3469 91.7511L93.4232 91.7092L91.2809 87.8139ZM97.1255 88.1681L94.6927 91.8889L94.7748 91.9426L94.8591 91.9926L97.1255 88.1681ZM100.55 90.2934L98.1396 94.029L98.209 94.0738L98.28 94.116L100.55 90.2934ZM117.316 92.1236L119.156 96.1707L119.193 96.1535L119.231 96.1356L117.316 92.1236ZM121.508 88.8175L117.999 86.0882L117.993 86.0952L117.988 86.1022L121.508 88.8175ZM123.869 83.9175L119.578 82.7553L119.57 82.7865L119.562 82.8177L123.869 83.9175ZM121.094 68.3908L118.061 71.6407L118.076 71.6543L118.09 71.6678L121.094 68.3908ZM99.7231 67.2691L98.561 71.56L99.9817 71.9448L101.351 71.4057L99.7231 67.2691ZM88.388 64.1992L84.0054 63.4537L83.3283 67.4345L87.2259 68.4901L88.388 64.1992ZM95.7086 21.1613V16.7158H91.9554L91.326 20.4159L95.7086 21.1613ZM139.75 21.1613H144.196V16.7158H139.75V21.1613ZM139.16 32.1422L135.01 30.5463L135.01 30.5463L139.16 32.1422ZM137.271 34.8579L140.253 38.1544L140.261 38.1473L137.271 34.8579ZM133.964 36.629L135.186 40.9035L135.242 40.8875L135.297 40.87L133.964 36.629ZM108.461 37.2193V32.7738H104.707L104.078 36.4737L108.461 37.2193ZM106.891 55.8105C108.355 55.5249 109.742 55.3332 111.054 55.2296L110.354 46.366C108.675 46.4986 106.953 46.7398 105.189 47.0839L106.891 55.8105ZM111.054 55.2296C112.44 55.1201 113.779 55.0662 115.073 55.0662V46.1751C113.532 46.1751 111.959 46.2393 110.354 46.366L111.054 55.2296ZM115.073 55.0662C119.154 55.0662 122.572 55.6875 125.414 56.8178L128.7 48.5562C124.615 46.9314 120.044 46.1751 115.073 46.1751V55.0662ZM125.414 56.8178C128.366 57.9917 130.741 59.5562 132.625 61.4719L138.964 55.2371C136.125 52.3512 132.676 50.1373 128.7 48.5562L125.414 56.8178ZM132.651 61.498C134.542 63.3887 135.968 65.627 136.933 68.2652L145.283 65.2103C143.887 61.3938 141.77 58.0432 138.938 55.211L132.651 61.498ZM136.956 68.3267C137.968 70.9718 138.493 73.8535 138.493 77.0102H147.384C147.384 72.8463 146.688 68.8797 145.26 65.1488L136.956 68.3267ZM138.493 77.0102C138.493 81.0726 137.766 84.6744 136.379 87.8776L144.538 91.4104C146.457 86.9782 147.384 82.1574 147.384 77.0102H138.493ZM136.37 87.898C134.99 91.1305 133.073 93.8886 130.614 96.2146L136.724 102.674C140.09 99.4896 142.7 95.7142 144.547 91.3901L136.37 87.898ZM130.614 96.2146C128.163 98.5336 125.194 100.378 121.646 101.722L124.794 110.037C129.353 108.31 133.351 105.865 136.724 102.674L130.614 96.2146ZM121.668 101.713C118.206 103.003 114.331 103.677 109.996 103.677V112.568C115.263 112.568 120.204 111.747 124.772 110.045L121.668 101.713ZM109.996 103.677C107.516 103.677 105.176 103.415 102.966 102.905L100.967 111.569C103.873 112.239 106.886 112.568 109.996 112.568V103.677ZM102.981 102.909C100.712 102.377 98.5899 101.673 96.6087 100.804L93.0375 108.947C95.543 110.046 98.1835 110.916 100.952 111.565L102.981 102.909ZM96.6951 100.843C94.7031 99.9185 92.8743 98.8789 91.2018 97.7291L86.1647 105.056C88.2705 106.503 90.5349 107.786 92.951 108.908L96.6951 100.843ZM91.2528 97.7647C89.5376 96.5497 88.006 95.2795 86.6494 93.9577L80.4446 100.326C82.158 101.995 84.0505 103.559 86.1136 105.02L91.2528 97.7647ZM87.1035 99.809L92.771 92.2523L85.6581 86.9177L79.9906 94.4744L87.1035 99.809ZM92.771 92.2523C92.9967 91.9514 93.1687 91.8402 93.269 91.7901L89.2927 83.8377C87.8186 84.5747 86.6132 85.6443 85.6581 86.9177L92.771 92.2523ZM93.4232 91.7092C93.5488 91.6401 93.6573 91.61 93.8194 91.61V82.7189C92.1711 82.7189 90.5872 83.1218 89.1385 83.9186L93.4232 91.7092ZM93.8194 91.61C94.1042 91.61 94.3655 91.675 94.6927 91.8889L99.5583 84.4473C97.8389 83.3231 95.8962 82.7189 93.8194 82.7189V91.61ZM94.8591 91.9926C95.8659 92.5891 96.9589 93.2673 98.1396 94.029L102.96 86.5579C101.7 85.7453 100.51 85.0065 99.3918 84.3437L94.8591 91.9926ZM98.28 94.116C99.798 95.0173 101.492 95.8116 103.336 96.514L106.501 88.2054C105.039 87.6484 103.82 87.0652 102.819 86.4709L98.28 94.116ZM103.336 96.514C105.646 97.3942 108.268 97.7499 111.058 97.7499V88.8588C108.968 88.8588 107.497 88.5847 106.501 88.2054L103.336 96.514ZM111.058 97.7499C113.96 97.7499 116.707 97.2836 119.156 96.1707L115.477 88.0765C114.461 88.5379 113.037 88.8588 111.058 88.8588V97.7499ZM119.231 96.1356C121.526 95.0401 123.497 93.5175 125.028 91.5329L117.988 86.1022C117.393 86.8726 116.569 87.554 115.401 88.1116L119.231 96.1356ZM125.017 91.5468C126.518 89.6172 127.563 87.4211 128.177 85.0172L119.562 82.8177C119.231 84.1135 118.702 85.1841 117.999 86.0882L125.017 91.5468ZM128.16 85.0796C128.783 82.7806 129.082 80.3801 129.082 77.8957H120.191C120.191 79.6619 119.979 81.276 119.578 82.7553L128.16 85.0796ZM129.082 77.8957C129.082 72.8756 127.636 68.3562 124.098 65.1137L118.09 71.6678C119.276 72.7547 120.191 74.572 120.191 77.8957H129.082ZM124.128 65.1408C120.696 61.9378 116.123 60.6392 111.058 60.6392V69.5303C114.653 69.5303 116.77 70.4356 118.061 71.6407L124.128 65.1408ZM111.058 60.6392C106.627 60.6392 102.297 61.4785 98.0949 63.1325L101.351 71.4057C104.549 70.1472 107.776 69.5303 111.058 69.5303V60.6392ZM100.885 62.9781L89.5502 59.9082L87.2259 68.4901L98.561 71.56L100.885 62.9781ZM92.7706 64.9446L100.091 21.9068L91.326 20.4159L84.0054 63.4537L92.7706 64.9446ZM95.7086 25.6069H139.75V16.7158H95.7086V25.6069ZM135.305 21.1613V28.718H144.196V21.1613H135.305ZM135.305 28.718C135.305 29.512 135.181 30.1021 135.01 30.5463L143.309 33.738C143.925 32.1357 144.196 30.443 144.196 28.718H135.305ZM135.01 30.5463C134.882 30.8792 134.668 31.2155 134.28 31.5684L140.261 38.1473C141.605 36.9259 142.65 35.4517 143.309 33.738L135.01 30.5463ZM134.288 31.5613C134.055 31.7718 133.571 32.0927 132.632 32.3879L135.297 40.87C137.113 40.2994 138.833 39.4395 140.253 38.1544L134.288 31.5613ZM132.743 32.3545C131.873 32.6031 130.654 32.7738 129.005 32.7738V41.6649C131.214 41.6649 133.301 41.442 135.186 40.9035L132.743 32.3545ZM129.005 32.7738H108.461V41.6649H129.005V32.7738ZM104.078 36.4737L101.657 50.7016L110.423 52.1928L112.843 37.9649L104.078 36.4737Z" fill="url(#paint2_linear_335_244)" mask="url(#path-4-outside-2_335_244)"/>
</g>
<defs>
<linearGradient id="paint0_linear_335_244" x1="79.6875" y1="3.40291" x2="79.6875" y2="148.375" gradientUnits="userSpaceOnUse">
<stop stop-color="#D9D9D9"/>
<stop offset="1" stop-color="#737373" stop-opacity="0"/>
</linearGradient>
<linearGradient id="paint1_linear_335_244" x1="232.39" y1="-9.82202" x2="232.39" y2="140.382" gradientUnits="userSpaceOnUse">
<stop stop-color="#D9FFDE"/>
<stop offset="1" stop-color="white" stop-opacity="0"/>
</linearGradient>
<linearGradient id="paint2_linear_335_244" x1="232.39" y1="-9.82202" x2="232.39" y2="140.382" gradientUnits="userSpaceOnUse">
<stop stop-color="#D9FFDE"/>
<stop offset="1" stop-color="white" stop-opacity="0"/>
</linearGradient>
</defs>
</svg>
