<svg width="160" height="120" viewBox="0 0 160 120" fill="none" xmlns="http://www.w3.org/2000/svg">
<mask id="mask0_335_203" style="mask-type:alpha" maskUnits="userSpaceOnUse" x="0" y="0" width="160" height="120">
<rect y="0.569336" width="159.375" height="119" fill="url(#paint0_linear_335_203)"/>
</mask>
<g mask="url(#mask0_335_203)">
<g opacity="0.95">
<mask id="path-2-outside-1_335_203" maskUnits="userSpaceOnUse" x="5.33569" y="12.1777" width="147" height="104" fill="black">
<rect fill="white" x="5.33569" y="12.1777" width="147" height="104"/>
<path d="M77.4569 64.1399C77.4569 71.6572 76.6501 78.171 75.0364 83.6811C73.4228 89.1912 71.1794 93.7567 68.3062 97.3776C65.4725 100.999 62.0877 103.695 58.1519 105.466C54.2555 107.237 50.0245 108.122 45.459 108.122C40.8935 108.122 36.6625 107.237 32.7661 105.466C28.909 103.695 25.5636 100.999 22.7298 97.3776C19.896 93.7567 17.6723 89.1912 16.0586 83.6811C14.4843 78.171 13.6972 71.6572 13.6972 64.1399C13.6972 56.6225 14.4843 50.1088 16.0586 44.5987C17.6723 39.0886 19.896 34.5231 22.7298 30.9021C25.5636 27.2812 28.909 24.6049 32.7661 22.8731C36.6625 21.102 40.8935 20.2165 45.459 20.2165C50.0245 20.2165 54.2555 21.102 58.1519 22.8731C62.0877 24.6049 65.4725 27.2812 68.3062 30.9021C71.1794 34.5231 73.4228 39.0886 75.0364 44.5987C76.6501 50.1088 77.4569 56.6225 77.4569 64.1399ZM58.5652 64.1399C58.5652 58.1968 58.1913 53.3361 57.4435 49.5578C56.6957 45.7401 55.692 42.7489 54.4326 40.5842C53.2125 38.4195 51.8153 36.9436 50.241 36.1564C48.6667 35.3299 47.0727 34.9166 45.459 34.9166C43.8453 34.9166 42.2513 35.3299 40.677 36.1564C39.142 36.9436 37.7645 38.4195 36.5444 40.5842C35.3637 42.7489 34.3994 45.7401 33.6516 49.5578C32.9432 53.3361 32.589 58.1968 32.589 64.1399C32.589 70.1223 32.9432 75.0027 33.6516 78.781C34.3994 82.5594 35.3637 85.5506 36.5444 87.7546C37.7645 89.9193 39.142 91.4149 40.677 92.2414C42.2513 93.0286 43.8453 93.4222 45.459 93.4222C47.0727 93.4222 48.6667 93.0286 50.241 92.2414C51.8153 91.4149 53.2125 89.9193 54.4326 87.7546C55.692 85.5506 56.6957 82.5594 57.4435 78.781C58.1913 75.0027 58.5652 70.1223 58.5652 64.1399ZM137.448 90.6474C139.415 90.6474 140.97 91.1984 142.112 92.3005C143.253 93.3631 143.824 94.78 143.824 96.5511V107.178H83.3699V101.274C83.3699 100.133 83.606 98.9126 84.0783 97.6138C84.5506 96.315 85.3771 95.1342 86.5578 94.0716L111.353 69.099C113.479 66.9736 115.328 64.9467 116.903 63.0182C118.477 61.0896 119.776 59.2005 120.799 57.3506C121.823 55.4615 122.59 53.592 123.102 51.7421C123.613 49.853 123.869 47.8654 123.869 45.7794C123.869 42.3553 123.043 39.738 121.39 37.9275C119.776 36.0777 117.296 35.1528 113.951 35.1528C111.235 35.1528 108.933 35.8809 107.044 37.3372C105.194 38.754 103.915 40.5251 103.206 42.6505C102.38 44.8152 101.297 46.2517 99.9592 46.9602C98.621 47.6686 96.7122 47.826 94.2326 47.4325L84.5506 45.7204C85.1803 41.4304 86.3807 37.6914 88.1518 34.5034C89.9623 31.3154 92.186 28.6587 94.823 26.5334C97.4993 24.4081 100.55 22.8338 103.974 21.8105C107.398 20.7478 111.078 20.2165 115.014 20.2165C119.264 20.2165 123.082 20.8462 126.467 22.1057C129.891 23.3258 132.803 25.0378 135.204 27.2419C137.605 29.4459 139.435 32.0829 140.695 35.1528C141.993 38.1834 142.643 41.5288 142.643 45.1891C142.643 48.3377 142.19 51.2502 141.285 53.9265C140.419 56.6028 139.219 59.1611 137.684 61.6013C136.149 64.0021 134.358 66.3439 132.311 68.6267C130.304 70.8701 128.159 73.1528 125.876 75.475L109.051 92.7137C111.216 92.0446 113.361 91.533 115.486 91.1788C117.611 90.8245 119.579 90.6474 121.39 90.6474H137.448Z"/>
</mask>
<path d="M75.0364 83.6811L67.3589 81.4327L75.0364 83.6811ZM68.3062 97.3776L62.0394 92.405L62.0227 92.426L62.0062 92.4472L68.3062 97.3776ZM58.1519 105.466L54.869 98.1703L54.8552 98.1765L54.8415 98.1827L58.1519 105.466ZM32.7661 105.466L29.4277 112.736L29.4417 112.742L29.4556 112.749L32.7661 105.466ZM22.7298 97.3776L16.4298 102.308H16.4298L22.7298 97.3776ZM16.0586 83.6811L8.36645 85.8788L8.37369 85.9042L8.3811 85.9295L16.0586 83.6811ZM16.0586 44.5987L8.3811 42.3503L8.37369 42.3756L8.36645 42.4009L16.0586 44.5987ZM22.7298 30.9021L16.4298 25.9717H16.4298L22.7298 30.9021ZM32.7661 22.8731L36.0428 30.1713L36.0597 30.1637L36.0765 30.1561L32.7661 22.8731ZM58.1519 22.8731L54.8415 30.1561L54.8856 30.1761L54.93 30.1957L58.1519 22.8731ZM68.3062 30.9021L62.0062 35.8326L62.0227 35.8537L62.0394 35.8747L68.3062 30.9021ZM75.0364 44.5987L67.3589 46.8471V46.8471L75.0364 44.5987ZM57.4435 49.5578L49.5927 51.0956L49.5942 51.1033L49.5957 51.111L57.4435 49.5578ZM54.4326 40.5842L47.4634 44.5123L47.4903 44.56L47.5178 44.6073L54.4326 40.5842ZM50.241 36.1564L46.5223 43.2396L46.5924 43.2764L46.6633 43.3118L50.241 36.1564ZM40.677 36.1564L44.3275 43.275L44.3617 43.2574L44.3957 43.2396L40.677 36.1564ZM36.5444 40.5842L29.5752 36.6561L29.5479 36.7045L29.5213 36.7534L36.5444 40.5842ZM33.6516 49.5578L25.8008 48.02L25.7946 48.0517L25.7886 48.0835L33.6516 49.5578ZM33.6516 78.781L25.7886 80.2553L25.796 80.2948L25.8038 80.3342L33.6516 78.781ZM36.5444 87.7546L29.4926 91.5324L29.5331 91.608L29.5752 91.6827L36.5444 87.7546ZM40.677 92.2414L36.8842 99.2852L36.9909 99.3426L37.0993 99.3968L40.677 92.2414ZM50.241 92.2414L53.8187 99.3968L53.8895 99.3614L53.9596 99.3246L50.241 92.2414ZM54.4326 87.7546L47.4866 83.7855L47.4749 83.806L47.4634 83.8265L54.4326 87.7546ZM57.4435 78.781L49.5957 77.2278L57.4435 78.781ZM69.4569 64.1399C69.4569 71.1171 68.7044 76.8382 67.3589 81.4327L82.714 85.9295C84.5958 79.5038 85.4569 72.1974 85.4569 64.1399H69.4569ZM67.3589 81.4327C65.9674 86.1841 64.1362 89.7625 62.0394 92.405L74.5731 102.35C78.2226 97.7509 80.8781 92.1983 82.714 85.9295L67.3589 81.4327ZM62.0062 92.4472C59.9179 95.1155 57.5453 96.966 54.869 98.1703L61.4348 112.761C66.6301 110.423 71.027 106.882 74.6063 102.308L62.0062 92.4472ZM54.8415 98.1827C52.053 99.4502 48.96 100.122 45.459 100.122V116.122C51.089 116.122 56.4579 115.023 61.4623 112.749L54.8415 98.1827ZM45.459 100.122C41.958 100.122 38.8649 99.4502 36.0765 98.1827L29.4556 112.749C34.46 115.023 39.829 116.122 45.459 116.122V100.122ZM36.1044 98.1955C33.502 97.0005 31.1441 95.1487 29.0298 92.4472L16.4298 102.308C19.983 106.848 24.316 110.389 29.4277 112.736L36.1044 98.1955ZM29.0298 92.4472C26.9553 89.7963 25.1332 86.2029 23.7362 81.4327L8.3811 85.9295C10.2114 92.1795 12.8368 97.7171 16.4298 102.308L29.0298 92.4472ZM23.7508 81.4833C22.4328 76.8703 21.6972 71.131 21.6972 64.1399H5.69717C5.69717 72.1834 6.53581 79.4716 8.36645 85.8788L23.7508 81.4833ZM21.6972 64.1399C21.6972 57.1487 22.4328 51.4094 23.7508 46.7965L8.36645 42.4009C6.53581 48.8082 5.69717 56.0963 5.69717 64.1399H21.6972ZM23.7362 46.8471C25.1332 42.0769 26.9553 38.4835 29.0298 35.8326L16.4298 25.9717C12.8368 30.5627 10.2114 36.1003 8.3811 42.3503L23.7362 46.8471ZM29.0298 35.8326C31.1347 33.1431 33.4725 31.3253 36.0428 30.1713L29.4893 15.575C24.3455 17.8845 19.9925 21.4193 16.4298 25.9717L29.0298 35.8326ZM36.0765 30.1561C38.8649 28.8886 41.958 28.2165 45.459 28.2165V12.2165C39.829 12.2165 34.46 13.3155 29.4556 15.5902L36.0765 30.1561ZM45.459 28.2165C48.96 28.2165 52.053 28.8886 54.8415 30.1561L61.4623 15.5902C56.4579 13.3155 51.089 12.2165 45.459 12.2165V28.2165ZM54.93 30.1957C57.5749 31.3594 59.9275 33.1766 62.0062 35.8326L74.6063 25.9717C71.0174 21.3859 66.6005 17.8503 61.3738 15.5506L54.93 30.1957ZM62.0394 35.8747C64.1362 38.5172 65.9674 42.0957 67.3589 46.8471L82.714 42.3503C80.8781 36.0815 78.2226 30.5289 74.5731 25.9295L62.0394 35.8747ZM67.3589 46.8471C68.7044 51.4416 69.4569 57.1627 69.4569 64.1399H85.4569C85.4569 56.0823 84.5958 48.776 82.714 42.3503L67.3589 46.8471ZM66.5652 64.1399C66.5652 57.9236 66.1792 52.491 65.2912 48.0046L49.5957 51.111C50.2034 54.1813 50.5652 58.4701 50.5652 64.1399H66.5652ZM65.2943 48.02C64.4591 43.7563 63.2319 39.8001 61.3474 36.561L47.5178 44.6073C48.1521 45.6976 48.9322 47.7238 49.5927 51.0956L65.2943 48.02ZM61.4018 36.6561C59.7084 33.6517 57.2961 30.7397 53.8187 29.001L46.6633 43.3118C46.3344 43.1474 46.7165 43.1873 47.4634 44.5123L61.4018 36.6561ZM53.9596 29.0732C51.3573 27.707 48.4963 26.9166 45.459 26.9166V42.9166C45.649 42.9166 45.976 42.9528 46.5223 43.2396L53.9596 29.0732ZM45.459 26.9166C42.4217 26.9166 39.5606 27.707 36.9583 29.0732L44.3957 43.2396C44.942 42.9528 45.2689 42.9166 45.459 42.9166V26.9166ZM37.0265 29.0379C33.6084 30.7907 31.2422 33.6984 29.5752 36.6561L43.5136 44.5123C43.8806 43.8612 44.1711 43.4944 44.3411 43.3123C44.504 43.1377 44.5101 43.1813 44.3275 43.275L37.0265 29.0379ZM29.5213 36.7534C27.7907 39.9261 26.6261 43.8068 25.8008 48.02L41.5024 51.0956C42.1728 47.6733 42.9367 45.5716 43.5676 44.415L29.5213 36.7534ZM25.7886 48.0835C24.9539 52.5353 24.589 57.9386 24.589 64.1399H40.589C40.589 58.4551 40.9324 54.137 41.5146 51.0321L25.7886 48.0835ZM24.589 64.1399C24.589 70.3767 24.9535 75.8011 25.7886 80.2553L41.5146 77.3067C40.9329 74.2042 40.589 69.8678 40.589 64.1399H24.589ZM25.8038 80.3342C26.6319 84.5178 27.7934 88.3606 29.4926 91.5324L43.5963 83.9768C42.934 82.7405 42.167 80.6009 41.4994 77.2278L25.8038 80.3342ZM29.5752 91.6827C31.2375 94.6319 33.5648 97.4978 36.8842 99.2852L44.4698 85.1976C44.7193 85.332 44.2916 85.2067 43.5136 83.8265L29.5752 91.6827ZM37.0993 99.3968C39.6818 100.688 42.4935 101.422 45.459 101.422V85.4221C45.1971 85.4221 44.8208 85.369 44.2547 85.086L37.0993 99.3968ZM45.459 101.422C48.4245 101.422 51.2362 100.688 53.8187 99.3968L46.6633 85.086C46.0971 85.369 45.7208 85.4221 45.459 85.4221V101.422ZM53.9596 99.3246C57.3403 97.5498 59.7139 94.6774 61.4018 91.6827L47.4634 83.8265C46.7111 85.1611 46.2903 85.2801 46.5223 85.1582L53.9596 99.3246ZM61.3785 91.7237C63.2286 88.486 64.4531 84.5692 65.2912 80.3342L49.5957 77.2278C48.9383 80.5495 48.1554 82.6151 47.4866 83.7855L61.3785 91.7237ZM65.2912 80.3342C66.1797 75.8453 66.5652 70.3915 66.5652 64.1399H50.5652C50.5652 69.853 50.2029 74.16 49.5957 77.2278L65.2912 80.3342ZM142.112 92.3005L136.555 98.0557L136.607 98.1061L136.66 98.1556L142.112 92.3005ZM143.824 107.178V115.178H151.824V107.178H143.824ZM83.3699 107.178H75.3699V115.178H83.3699V107.178ZM84.0783 97.6138L91.5966 100.348L84.0783 97.6138ZM86.5578 94.0716L91.9096 100.018L92.0765 99.8676L92.2348 99.7082L86.5578 94.0716ZM111.353 69.099L105.696 63.4421L105.686 63.4522L105.676 63.4623L111.353 69.099ZM116.903 63.0182L123.1 68.0772L123.1 68.0772L116.903 63.0182ZM120.799 57.3506L127.799 61.2231L127.817 61.1921L127.834 61.1609L120.799 57.3506ZM123.102 51.7421L130.812 53.8748L130.818 53.8542L130.823 53.8335L123.102 51.7421ZM121.39 37.9275L115.361 43.1865L115.421 43.2548L115.482 43.3217L121.39 37.9275ZM107.044 37.3372L111.908 43.6882L111.918 43.6807L111.928 43.6732L107.044 37.3372ZM103.206 42.6505L110.68 45.5041L110.741 45.3434L110.796 45.1803L103.206 42.6505ZM94.2326 47.4325L92.8396 55.3102L92.909 55.3225L92.9785 55.3335L94.2326 47.4325ZM84.5506 45.7204L76.6354 44.5585L75.5071 52.2453L83.1576 53.5982L84.5506 45.7204ZM88.1518 34.5034L81.1954 30.5528L81.1768 30.5854L81.1586 30.6182L88.1518 34.5034ZM94.823 26.5334L89.8479 20.2685L89.8253 20.2865L89.8028 20.3047L94.823 26.5334ZM103.974 21.8105L106.264 29.4755L106.305 29.4635L106.345 29.451L103.974 21.8105ZM126.467 22.1057L123.677 29.6034L123.729 29.6229L123.782 29.6415L126.467 22.1057ZM135.204 27.2419L129.794 33.1351H129.794L135.204 27.2419ZM140.695 35.1528L133.293 38.1892L133.317 38.2469L133.341 38.3042L140.695 35.1528ZM141.285 53.9265L133.707 51.3633L133.69 51.4135L133.673 51.464L141.285 53.9265ZM137.684 61.6013L144.424 65.9106L144.44 65.8858L144.455 65.8609L137.684 61.6013ZM132.311 68.6267L126.355 63.2863L126.349 63.2923L132.311 68.6267ZM125.876 75.475L120.171 69.8667L120.161 69.8769L120.151 69.8871L125.876 75.475ZM109.051 92.7137L103.326 87.1259L111.413 100.357L109.051 92.7137ZM115.486 91.1787L114.171 83.2876H114.171L115.486 91.1787ZM137.448 98.6474C137.692 98.6474 137.645 98.6821 137.417 98.6011C137.16 98.51 136.84 98.3307 136.555 98.0557L147.668 86.5452C144.696 83.6758 140.964 82.6474 137.448 82.6474V98.6474ZM136.66 98.1556C136.391 97.9048 136.137 97.5521 135.975 97.149C135.822 96.7685 135.824 96.5285 135.824 96.5511H151.824C151.824 92.891 150.558 89.2335 147.563 86.4453L136.66 98.1556ZM135.824 96.5511V107.178H151.824V96.5511H135.824ZM143.824 99.1777H83.3699V115.178H143.824V99.1777ZM91.3699 107.178V101.274H75.3699V107.178H91.3699ZM91.3699 101.274C91.3699 101.238 91.3779 100.949 91.5966 100.348L76.56 94.8798C75.8341 96.8758 75.3699 99.027 75.3699 101.274H91.3699ZM91.5966 100.348C91.5837 100.383 91.5769 100.384 91.6063 100.342C91.6383 100.296 91.7248 100.184 91.9096 100.018L81.2061 88.1252C79.1975 89.9329 77.5432 92.1758 76.56 94.8798L91.5966 100.348ZM92.2348 99.7082L117.03 74.7357L105.676 63.4623L80.8809 88.4349L92.2348 99.7082ZM117.01 74.7558C119.288 72.4779 121.325 70.2513 123.1 68.0772L110.705 57.9592C109.332 59.6421 107.669 61.4694 105.696 63.4421L117.01 74.7558ZM123.1 68.0772C124.925 65.8413 126.508 63.5576 127.799 61.2231L113.799 53.4782C113.044 54.8433 112.029 56.338 110.705 57.9592L123.1 68.0772ZM127.834 61.1609C129.111 58.8021 130.121 56.3721 130.812 53.8748L115.391 49.6095C115.059 50.8119 114.534 52.1208 113.765 53.5404L127.834 61.1609ZM130.823 53.8335C131.531 51.2192 131.869 48.5254 131.869 45.7794H115.869C115.869 47.2054 115.695 48.4867 115.38 49.6508L130.823 53.8335ZM131.869 45.7794C131.869 41.1528 130.75 36.3144 127.297 32.5334L115.482 43.3217C115.335 43.1615 115.869 43.5578 115.869 45.7794H131.869ZM127.418 32.6686C123.79 28.5093 118.729 27.1528 113.951 27.1528V43.1528C114.91 43.1528 115.38 43.2882 115.524 43.342C115.588 43.3661 115.58 43.3704 115.528 43.3355C115.474 43.299 115.413 43.2465 115.361 43.1865L127.418 32.6686ZM113.951 27.1528C109.725 27.1528 105.639 28.3191 102.16 31.0011L111.928 43.6732C112.227 43.4427 112.746 43.1528 113.951 43.1528V27.1528ZM102.179 30.9861C99.1132 33.3344 96.8521 36.4146 95.6168 40.1207L110.796 45.1803C110.977 44.6357 111.274 44.1737 111.908 43.6882L102.179 30.9861ZM95.7325 39.7969C95.6271 40.0729 95.5362 40.2657 95.47 40.3908C95.4036 40.516 95.3707 40.5565 95.3851 40.5374C95.4188 40.4927 95.6715 40.1782 96.2161 39.8899L103.702 54.0305C107.462 52.04 109.515 48.5563 110.68 45.5041L95.7325 39.7969ZM96.2161 39.8899C96.7212 39.6224 97.0174 39.6242 96.8664 39.6366C96.7115 39.6494 96.2779 39.6569 95.4868 39.5314L92.9785 55.3335C96.1421 55.8357 100.115 55.9296 103.702 54.0305L96.2161 39.8899ZM95.6256 39.5547L85.9436 37.8426L83.1576 53.5982L92.8396 55.3102L95.6256 39.5547ZM92.4658 46.8823C92.9811 43.3718 93.9227 40.5889 95.1451 38.3885L81.1586 30.6182C78.8388 34.7939 77.3796 39.489 76.6354 44.5585L92.4658 46.8823ZM95.1083 38.454C96.4635 36.0678 98.0515 34.2062 99.8432 32.7622L89.8028 20.3047C86.3205 23.1113 83.4611 26.563 81.1954 30.5528L95.1083 38.454ZM99.7981 32.7983C101.641 31.3351 103.771 30.2207 106.264 29.4755L101.683 14.1454C97.3284 15.4468 93.358 17.4811 89.8479 20.2685L99.7981 32.7983ZM106.345 29.451C108.93 28.6487 111.804 28.2165 115.014 28.2165V12.2165C110.352 12.2165 105.866 12.8469 101.603 14.17L106.345 29.451ZM115.014 28.2165C118.477 28.2165 121.327 28.7292 123.677 29.6034L129.257 14.6079C124.837 12.9632 120.052 12.2165 115.014 12.2165V28.2165ZM123.782 29.6415C126.313 30.5436 128.269 31.7347 129.794 33.1351L140.614 21.3486C137.338 18.3409 133.469 16.1079 129.152 14.5698L123.782 29.6415ZM129.794 33.1351C131.313 34.5299 132.471 36.1859 133.293 38.1892L148.096 32.1164C146.399 27.9799 143.897 24.3619 140.614 21.3486L129.794 33.1351ZM133.341 38.3042C134.169 40.2345 134.643 42.4925 134.643 45.1891H150.643C150.643 40.5651 149.818 36.1322 148.048 32.0014L133.341 38.3042ZM134.643 45.1891C134.643 47.5649 134.303 49.6014 133.707 51.3633L148.863 56.4897C150.078 52.899 150.643 49.1105 150.643 45.1891H134.643ZM133.673 51.464C133.017 53.4932 132.102 55.4493 130.912 57.3417L144.455 65.8609C146.335 62.8729 147.821 59.7125 148.897 56.3891L133.673 51.464ZM130.944 57.292C129.658 59.3023 128.134 61.3014 126.355 63.2863L138.268 73.967C140.582 71.3864 142.639 68.702 144.424 65.9106L130.944 57.292ZM126.349 63.2923C124.432 65.4352 122.373 67.6267 120.171 69.8667L131.581 81.0833C133.945 78.679 136.176 76.3049 138.273 73.961L126.349 63.2923ZM120.151 69.8871L103.326 87.1259L114.776 98.3015L131.601 81.0628L120.151 69.8871ZM111.413 100.357C113.252 99.7885 115.048 99.3621 116.801 99.0699L114.171 83.2876C111.673 83.7038 109.179 84.3008 106.688 85.0705L111.413 100.357ZM116.801 99.0699C118.571 98.7749 120.093 98.6474 121.39 98.6474V82.6474C119.065 82.6474 116.652 82.8741 114.171 83.2876L116.801 99.0699ZM121.39 98.6474H137.448V82.6474H121.39V98.6474Z" fill="url(#paint1_linear_335_203)" mask="url(#path-2-outside-1_335_203)"/>
</g>
<mask id="path-4-outside-2_335_203" maskUnits="userSpaceOnUse" x="8.33569" y="15.1777" width="140" height="98" fill="black">
<rect fill="white" x="8.33569" y="15.1777" width="140" height="98"/>
<path d="M77.4569 64.1399C77.4569 71.6572 76.6501 78.171 75.0364 83.6811C73.4228 89.1912 71.1794 93.7567 68.3062 97.3776C65.4725 100.999 62.0877 103.695 58.1519 105.466C54.2555 107.237 50.0245 108.122 45.459 108.122C40.8935 108.122 36.6625 107.237 32.7661 105.466C28.909 103.695 25.5636 100.999 22.7298 97.3776C19.896 93.7567 17.6723 89.1912 16.0586 83.6811C14.4843 78.171 13.6972 71.6572 13.6972 64.1399C13.6972 56.6225 14.4843 50.1088 16.0586 44.5987C17.6723 39.0886 19.896 34.5231 22.7298 30.9021C25.5636 27.2812 28.909 24.6049 32.7661 22.8731C36.6625 21.102 40.8935 20.2165 45.459 20.2165C50.0245 20.2165 54.2555 21.102 58.1519 22.8731C62.0877 24.6049 65.4725 27.2812 68.3062 30.9021C71.1794 34.5231 73.4228 39.0886 75.0364 44.5987C76.6501 50.1088 77.4569 56.6225 77.4569 64.1399ZM58.5652 64.1399C58.5652 58.1968 58.1913 53.3361 57.4435 49.5578C56.6957 45.7401 55.692 42.7489 54.4326 40.5842C53.2125 38.4195 51.8153 36.9436 50.241 36.1564C48.6667 35.3299 47.0727 34.9166 45.459 34.9166C43.8453 34.9166 42.2513 35.3299 40.677 36.1564C39.142 36.9436 37.7645 38.4195 36.5444 40.5842C35.3637 42.7489 34.3994 45.7401 33.6516 49.5578C32.9432 53.3361 32.589 58.1968 32.589 64.1399C32.589 70.1223 32.9432 75.0027 33.6516 78.781C34.3994 82.5594 35.3637 85.5506 36.5444 87.7546C37.7645 89.9193 39.142 91.4149 40.677 92.2414C42.2513 93.0286 43.8453 93.4222 45.459 93.4222C47.0727 93.4222 48.6667 93.0286 50.241 92.2414C51.8153 91.4149 53.2125 89.9193 54.4326 87.7546C55.692 85.5506 56.6957 82.5594 57.4435 78.781C58.1913 75.0027 58.5652 70.1223 58.5652 64.1399ZM137.448 90.6474C139.415 90.6474 140.97 91.1984 142.112 92.3005C143.253 93.3631 143.824 94.78 143.824 96.5511V107.178H83.3699V101.274C83.3699 100.133 83.606 98.9126 84.0783 97.6138C84.5506 96.315 85.3771 95.1342 86.5578 94.0716L111.353 69.099C113.479 66.9736 115.328 64.9467 116.903 63.0182C118.477 61.0896 119.776 59.2005 120.799 57.3506C121.823 55.4615 122.59 53.592 123.102 51.7421C123.613 49.853 123.869 47.8654 123.869 45.7794C123.869 42.3553 123.043 39.738 121.39 37.9275C119.776 36.0777 117.296 35.1528 113.951 35.1528C111.235 35.1528 108.933 35.8809 107.044 37.3372C105.194 38.754 103.915 40.5251 103.206 42.6505C102.38 44.8152 101.297 46.2517 99.9592 46.9602C98.621 47.6686 96.7122 47.826 94.2326 47.4325L84.5506 45.7204C85.1803 41.4304 86.3807 37.6914 88.1518 34.5034C89.9623 31.3154 92.186 28.6587 94.823 26.5334C97.4993 24.4081 100.55 22.8338 103.974 21.8105C107.398 20.7478 111.078 20.2165 115.014 20.2165C119.264 20.2165 123.082 20.8462 126.467 22.1057C129.891 23.3258 132.803 25.0378 135.204 27.2419C137.605 29.4459 139.435 32.0829 140.695 35.1528C141.993 38.1834 142.643 41.5288 142.643 45.1891C142.643 48.3377 142.19 51.2502 141.285 53.9265C140.419 56.6028 139.219 59.1611 137.684 61.6013C136.149 64.0021 134.358 66.3439 132.311 68.6267C130.304 70.8701 128.159 73.1528 125.876 75.475L109.051 92.7137C111.216 92.0446 113.361 91.533 115.486 91.1788C117.611 90.8245 119.579 90.6474 121.39 90.6474H137.448Z"/>
</mask>
<path d="M75.0364 83.6811L70.7701 82.4316L70.7701 82.4316L75.0364 83.6811ZM68.3062 97.3776L64.8238 94.6144L64.8145 94.6261L64.8053 94.6378L68.3062 97.3776ZM58.1519 105.466L56.3276 101.412L56.32 101.415L56.3123 101.419L58.1519 105.466ZM32.7661 105.466L30.911 109.506L30.9187 109.509L30.9265 109.513L32.7661 105.466ZM22.7298 97.3776L19.2289 100.117H19.2289L22.7298 97.3776ZM16.0586 83.6811L11.7841 84.9024L11.7882 84.9164L11.7923 84.9305L16.0586 83.6811ZM16.0586 44.5987L11.7923 43.3493L11.7882 43.3633L11.7841 43.3774L16.0586 44.5987ZM22.7298 30.9021L19.2289 28.1623H19.2289L22.7298 30.9021ZM32.7661 22.8731L34.5869 26.9287L34.5963 26.9245L34.6056 26.9202L32.7661 22.8731ZM58.1519 22.8731L56.3123 26.9202L56.3368 26.9314L56.3615 26.9422L58.1519 22.8731ZM68.3062 30.9021L64.8053 33.642L64.8145 33.6537L64.8238 33.6654L68.3062 30.9021ZM75.0364 44.5987L70.7701 45.8481L70.7701 45.8481L75.0364 44.5987ZM57.4435 49.5578L53.0808 50.4123L53.0825 50.4209L57.4435 49.5578ZM54.4326 40.5842L50.5598 42.767L50.5748 42.7935L50.5901 42.8198L54.4326 40.5842ZM50.241 36.1564L48.1745 40.0925L48.2135 40.113L48.2529 40.1326L50.241 36.1564ZM40.677 36.1564L42.7056 40.1121L42.7246 40.1024L42.7434 40.0925L40.677 36.1564ZM36.5444 40.5842L32.6717 38.4014L32.6565 38.4283L32.6417 38.4554L36.5444 40.5842ZM33.6516 49.5578L29.289 48.7032L29.2855 48.7209L29.2822 48.7385L33.6516 49.5578ZM33.6516 78.781L29.2822 79.6003L29.2863 79.6222L29.2907 79.6441L33.6516 78.781ZM36.5444 87.7546L32.6258 89.8539L32.6483 89.8959L32.6717 89.9374L36.5444 87.7546ZM40.677 92.2414L38.5694 96.1556L38.6287 96.1875L38.6889 96.2176L40.677 92.2414ZM50.241 92.2414L52.2291 96.2176L52.2684 96.198L52.3074 96.1775L50.241 92.2414ZM54.4326 87.7546L50.5728 85.549L50.5663 85.5604L50.5598 85.5718L54.4326 87.7546ZM57.4435 78.781L53.0825 77.9179V77.9179L57.4435 78.781ZM73.0114 64.1399C73.0114 71.3571 72.2347 77.4303 70.7701 82.4316L79.3028 84.9305C81.0655 78.9116 81.9025 71.9574 81.9025 64.1399H73.0114ZM70.7701 82.4316C69.2799 87.5201 67.2655 91.5372 64.8238 94.6144L71.7887 100.141C75.0932 95.9762 77.5657 90.8622 79.3028 84.9305L70.7701 82.4316ZM64.8053 94.6378C62.3858 97.7294 59.5635 99.9555 56.3276 101.412L59.9762 109.52C64.6119 107.434 68.5591 104.268 71.8071 100.117L64.8053 94.6378ZM56.3123 101.419C53.0316 102.91 49.433 103.677 45.459 103.677V112.568C50.616 112.568 55.4794 111.564 59.9915 109.513L56.3123 101.419ZM45.459 103.677C41.485 103.677 37.8864 102.91 34.6056 101.419L30.9265 109.513C35.4386 111.564 40.3019 112.568 45.459 112.568V103.677ZM34.6212 101.426C31.4613 99.9747 28.6646 97.7478 26.2307 94.6378L19.2289 100.117C22.4625 104.249 26.3567 107.414 30.911 109.506L34.6212 101.426ZM26.2307 94.6378C23.8188 91.5559 21.8183 87.5306 20.325 82.4316L11.7923 84.9305C13.5264 90.8517 15.9733 95.9575 19.2289 100.117L26.2307 94.6378ZM20.3331 82.4598C18.9013 77.4482 18.1427 71.3648 18.1427 64.1399H9.25162C9.25162 71.9496 10.0674 78.8937 11.7841 84.9024L20.3331 82.4598ZM18.1427 64.1399C18.1427 56.9149 18.9013 50.8316 20.3331 45.82L11.7841 43.3774C10.0674 49.386 9.25162 56.3301 9.25162 64.1399H18.1427ZM20.325 45.8481C21.8183 40.7491 23.8188 36.7238 26.2307 33.642L19.2289 28.1623C15.9733 32.3223 13.5264 37.428 11.7923 43.3493L20.325 45.8481ZM26.2307 33.642C28.6594 30.5386 31.4449 28.3394 34.5869 26.9287L30.9452 18.8176C26.3731 20.8704 22.4678 24.0238 19.2289 28.1623L26.2307 33.642ZM34.6056 26.9202C37.8864 25.429 41.485 24.662 45.459 24.662V15.7709C40.3019 15.7709 35.4386 16.7751 30.9265 18.8261L34.6056 26.9202ZM45.459 24.662C49.433 24.662 53.0316 25.429 56.3123 26.9202L59.9915 18.8261C55.4794 16.7751 50.616 15.7709 45.459 15.7709V24.662ZM56.3615 26.9422C59.58 28.3583 62.3912 30.5572 64.8053 33.642L71.8071 28.1623C68.5537 24.0052 64.5954 20.8514 59.9423 18.8041L56.3615 26.9422ZM64.8238 33.6654C67.2655 36.7426 69.2799 40.7596 70.7701 45.8481L79.3028 43.3493C77.5657 37.4176 75.0932 32.3035 71.7887 28.1389L64.8238 33.6654ZM70.7701 45.8481C72.2347 50.8494 73.0114 56.9227 73.0114 64.1399H81.9025C81.9025 56.3223 81.0655 49.3682 79.3028 43.3493L70.7701 45.8481ZM63.0107 64.1399C63.0107 58.045 62.6301 52.8665 61.8044 48.6947L53.0825 50.4209C53.7524 53.8058 54.1196 58.3487 54.1196 64.1399H63.0107ZM61.8061 48.7032C61.0098 44.6377 59.8819 41.1103 58.2751 38.3485L50.5901 42.8198C51.5022 44.3875 52.3816 46.8424 53.0808 50.4123L61.8061 48.7032ZM58.3053 38.4014C56.8222 35.7701 54.8609 33.4961 52.2291 32.1802L48.2529 40.1326C48.7696 40.391 49.6027 41.0689 50.5598 42.767L58.3053 38.4014ZM52.3074 32.2203C50.1618 31.0939 47.8637 30.4711 45.459 30.4711V39.3622C46.2816 39.3622 47.1715 39.5659 48.1745 40.0925L52.3074 32.2203ZM45.459 30.4711C43.0542 30.4711 40.7561 31.0939 38.6106 32.2203L42.7434 40.0925C43.7465 39.5659 44.6364 39.3622 45.459 39.3622V30.4711ZM38.6484 32.2007C36.067 33.5245 34.1401 35.796 32.6717 38.4014L40.4172 42.767C41.3889 41.043 42.2171 40.3627 42.7056 40.1121L38.6484 32.2007ZM32.6417 38.4554C31.1554 41.1803 30.0798 44.6658 29.289 48.7032L38.0143 50.4123C38.719 46.8144 39.572 44.3174 40.4471 42.7129L32.6417 38.4554ZM29.2822 48.7385C28.5036 52.8911 28.1434 58.0533 28.1434 64.1399H37.0345C37.0345 58.3404 37.3827 53.7812 38.021 50.377L29.2822 48.7385ZM28.1434 64.1399C28.1434 70.2637 28.5034 75.4463 29.2822 79.6003L38.021 77.9618C37.383 74.559 37.0345 69.9809 37.0345 64.1399H28.1434ZM29.2907 79.6441C30.083 83.6477 31.1569 87.1121 32.6258 89.8539L40.4631 85.6553C39.5704 83.9891 38.7158 81.4711 38.0126 77.9179L29.2907 79.6441ZM32.6717 89.9374C34.1375 92.5381 36.0428 94.7951 38.5694 96.1556L42.7846 88.3272C42.2413 88.0347 41.3915 87.3005 40.4172 85.5718L32.6717 89.9374ZM38.6889 96.2176C40.8235 97.2849 43.0941 97.8677 45.459 97.8677V88.9766C44.5965 88.9766 43.6792 88.7722 42.6651 88.2652L38.6889 96.2176ZM45.459 97.8677C47.8239 97.8677 50.0945 97.2849 52.2291 96.2176L48.2529 88.2652C47.2388 88.7722 46.3214 88.9766 45.459 88.9766V97.8677ZM52.3074 96.1775C54.8855 94.824 56.8253 92.5634 58.3053 89.9374L50.5598 85.5718C49.5997 87.2752 48.7451 88.0058 48.1745 88.3053L52.3074 96.1775ZM58.2924 89.9602C59.8801 87.1818 61.0064 83.6762 61.8044 79.6441L53.0825 77.9179C52.3849 81.4425 51.504 83.9193 50.5728 85.549L58.2924 89.9602ZM61.8044 79.6441C62.6304 75.4709 63.0107 70.2719 63.0107 64.1399H54.1196C54.1196 69.9727 53.7522 74.5344 53.0825 77.9179L61.8044 79.6441ZM142.112 92.3005L139.024 95.4986L139.053 95.5266L139.082 95.5541L142.112 92.3005ZM143.824 107.178V111.623H148.269V107.178H143.824ZM83.3699 107.178H78.9243V111.623H83.3699V107.178ZM84.0783 97.6138L88.2562 99.133L84.0783 97.6138ZM86.5578 94.0716L89.5318 97.3759L89.6245 97.2924L89.7125 97.2038L86.5578 94.0716ZM111.353 69.099L108.21 65.9555L108.204 65.9611L108.199 65.9667L111.353 69.099ZM116.903 63.0182L120.347 65.8294V65.8294L116.903 63.0182ZM120.799 57.3506L124.689 59.5026L124.699 59.4853L124.708 59.468L120.799 57.3506ZM123.102 51.7421L127.386 52.9273L127.389 52.9158L127.393 52.9043L123.102 51.7421ZM121.39 37.9275L118.04 40.8499L118.073 40.8878L118.107 40.925L121.39 37.9275ZM107.044 37.3372L109.747 40.8664L109.758 40.8581L107.044 37.3372ZM103.206 42.6505L107.359 44.2362L107.393 44.1469L107.424 44.0563L103.206 42.6505ZM94.2326 47.4325L93.4585 51.8101L93.4971 51.8169L93.5357 51.823L94.2326 47.4325ZM84.5506 45.7204L80.1522 45.0748L79.5252 49.3463L83.7765 50.098L84.5506 45.7204ZM88.1518 34.5034L84.2862 32.3081L84.2759 32.3262L84.2657 32.3444L88.1518 34.5034ZM94.823 26.5334L92.0584 23.0521L92.0458 23.0621L92.0333 23.0721L94.823 26.5334ZM103.974 21.8105L105.247 26.0699L105.269 26.0632L105.291 26.0563L103.974 21.8105ZM126.467 22.1057L124.916 26.2721L124.945 26.2829L124.975 26.2933L126.467 22.1057ZM135.204 27.2419L132.198 30.5167L135.204 27.2419ZM140.695 35.1528L136.582 36.8401L136.595 36.8722L136.609 36.904L140.695 35.1528ZM141.285 53.9265L137.074 52.5021L137.064 52.53L137.055 52.5581L141.285 53.9265ZM137.684 61.6013L141.429 63.9959L141.438 63.9822L141.447 63.9683L137.684 61.6013ZM132.311 68.6267L129.001 65.6591L128.998 65.6624L132.311 68.6267ZM125.876 75.475L122.706 72.3585L122.701 72.3641L122.695 72.3698L125.876 75.475ZM109.051 92.7137L105.869 89.6086L110.364 96.961L109.051 92.7137ZM115.486 91.1787L114.755 86.7937L115.486 91.1787ZM137.448 95.093C138.555 95.093 138.899 95.3787 139.024 95.4986L145.199 89.1023C143.041 87.0182 140.276 86.2019 137.448 86.2019V95.093ZM139.082 95.5541C139.194 95.6579 139.378 95.8297 139.378 96.5511H148.269C148.269 93.7303 147.312 91.0683 145.141 89.0468L139.082 95.5541ZM139.378 96.5511V107.178H148.269V96.5511H139.378ZM143.824 102.732H83.3699V111.623H143.824V102.732ZM87.8154 107.178V101.274H78.9243V107.178H87.8154ZM87.8154 101.274C87.8154 100.747 87.9248 100.044 88.2562 99.133L79.9004 96.0945C79.2872 97.7807 78.9243 99.5182 78.9243 101.274H87.8154ZM88.2562 99.133C88.4445 98.615 88.811 98.0245 89.5318 97.3759L83.5839 90.7672C81.9432 92.2439 80.6566 94.0149 79.9004 96.0945L88.2562 99.133ZM89.7125 97.2038L114.508 72.2312L108.199 65.9667L83.4032 90.9393L89.7125 97.2038ZM114.497 72.2424C116.707 70.0323 118.661 67.8944 120.347 65.8294L113.459 60.2069C111.996 61.999 110.25 63.915 108.21 65.9555L114.497 72.2424ZM120.347 65.8294C122.06 63.7301 123.517 61.6217 124.689 59.5026L116.909 55.1987C116.035 56.7792 114.894 58.4492 113.459 60.2069L120.347 65.8294ZM124.708 59.468C125.873 57.3179 126.775 55.1369 127.386 52.9273L118.817 50.557C118.405 52.0471 117.772 53.6051 116.89 55.2333L124.708 59.468ZM127.393 52.9043C128.013 50.6122 128.315 48.2322 128.315 45.7794H119.424C119.424 47.4986 119.213 49.0937 118.811 50.58L127.393 52.9043ZM128.315 45.7794C128.315 41.687 127.325 37.8355 124.673 34.93L118.107 40.925C118.76 41.6404 119.424 43.0235 119.424 45.7794H128.315ZM124.74 35.0052C122.006 31.872 118.092 30.7073 113.951 30.7073V39.5983C116.5 39.5983 117.545 40.2834 118.04 40.8499L124.74 35.0052ZM113.951 30.7073C110.396 30.7073 107.102 31.6789 104.33 33.8162L109.758 40.8581C110.763 40.0829 112.075 39.5983 113.951 39.5983V30.7073ZM104.34 33.8079C101.815 35.7424 99.9901 38.241 98.9888 41.2447L107.424 44.0563C107.839 42.8093 108.573 41.7657 109.747 40.8664L104.34 33.8079ZM99.0531 41.0647C98.7482 41.8634 98.4541 42.3709 98.224 42.6763C98.1123 42.8246 98.0239 42.9143 97.9664 42.9652C97.9105 43.0147 97.881 43.0303 97.8792 43.0312L102.039 50.8891C104.723 49.4682 106.345 46.8941 107.359 44.2362L99.0531 41.0647ZM97.8792 43.0312C97.7909 43.078 97.029 43.3751 94.9296 43.0419L93.5357 51.823C96.3954 52.2769 99.4512 52.2592 102.039 50.8891L97.8792 43.0312ZM95.0067 43.0548L85.3247 41.3428L83.7765 50.098L93.4585 51.8101L95.0067 43.0548ZM88.949 46.366C89.5151 42.5092 90.5717 39.3015 92.0379 36.6623L84.2657 32.3444C82.1897 36.0812 80.8455 40.3515 80.1522 45.0748L88.949 46.366ZM92.0175 36.6987C93.575 33.9563 95.4454 31.7414 97.6127 29.9947L92.0333 23.0721C88.9266 25.576 86.3497 28.6745 84.2862 32.3081L92.0175 36.6987ZM97.5876 30.0148C99.8006 28.2574 102.34 26.9387 105.247 26.0699L102.701 17.5511C98.7596 18.7289 95.198 20.5588 92.0584 23.0521L97.5876 30.0148ZM105.291 26.0563C108.249 25.1383 111.481 24.662 115.014 24.662V15.7709C110.674 15.7709 106.546 16.3573 102.656 17.5647L105.291 26.0563ZM115.014 24.662C118.827 24.662 122.107 25.2267 124.916 26.2721L128.017 17.9392C124.057 16.4657 119.702 15.7709 115.014 15.7709V24.662ZM124.975 26.2933C127.903 27.3366 130.283 28.7593 132.198 30.5167L138.211 23.967C135.323 21.3164 131.879 19.3149 127.959 17.918L124.975 26.2933ZM132.198 30.5167C134.109 32.271 135.565 34.3629 136.582 36.8401L144.807 33.4655C143.305 29.8029 141.101 26.6208 138.211 23.967L132.198 30.5167ZM136.609 36.904C137.645 39.3232 138.197 42.0643 138.197 45.1891H147.088C147.088 40.9932 146.342 37.0436 144.781 33.4016L136.609 36.904ZM138.197 45.1891C138.197 47.9082 137.807 50.334 137.074 52.5021L145.496 55.3509C146.573 52.1664 147.088 48.7671 147.088 45.1891H138.197ZM137.055 52.5581C136.306 54.8748 135.264 57.0985 133.921 59.2343L141.447 63.9683C143.173 61.2237 144.532 58.3309 145.515 55.2949L137.055 52.5581ZM133.938 59.2067C132.542 61.3904 130.9 63.5418 129.001 65.6591L135.621 71.5943C137.816 69.146 139.755 66.6138 141.429 63.9959L133.938 59.2067ZM128.998 65.6624C127.041 67.85 124.944 70.082 122.706 72.3585L129.047 78.5915C131.374 76.2237 133.567 73.8902 135.624 71.5909L128.998 65.6624ZM122.695 72.3698L105.869 89.6086L112.232 95.8188L129.058 78.5801L122.695 72.3698ZM110.364 96.961C112.347 96.3478 114.298 95.8836 116.217 95.5638L114.755 86.7937C112.423 87.1824 110.084 87.7414 107.738 88.4664L110.364 96.961ZM116.217 95.5638C118.145 95.2425 119.865 95.093 121.39 95.093V86.2019C119.293 86.2019 117.078 86.4065 114.755 86.7937L116.217 95.5638ZM121.39 95.093H137.448V86.2019H121.39V95.093Z" fill="url(#paint2_linear_335_203)" mask="url(#path-4-outside-2_335_203)"/>
</g>
<defs>
<linearGradient id="paint0_linear_335_203" x1="79.6875" y1="3.40267" x2="79.6875" y2="148.375" gradientUnits="userSpaceOnUse">
<stop stop-color="#D9D9D9"/>
<stop offset="1" stop-color="#737373" stop-opacity="0"/>
</linearGradient>
<linearGradient id="paint1_linear_335_203" x1="232.39" y1="-9.82227" x2="232.39" y2="140.382" gradientUnits="userSpaceOnUse">
<stop stop-color="#D9FFDE"/>
<stop offset="1" stop-color="white" stop-opacity="0"/>
</linearGradient>
<linearGradient id="paint2_linear_335_203" x1="232.39" y1="-9.82227" x2="232.39" y2="140.382" gradientUnits="userSpaceOnUse">
<stop stop-color="#D9FFDE"/>
<stop offset="1" stop-color="white" stop-opacity="0"/>
</linearGradient>
</defs>
</svg>
