<svg width="160" height="120" viewBox="0 0 160 120" fill="none" xmlns="http://www.w3.org/2000/svg">
<mask id="mask0_335_175" style="mask-type:alpha" maskUnits="userSpaceOnUse" x="0" y="0" width="160" height="120">
<rect y="0.569336" width="159.375" height="119" fill="url(#paint0_linear_335_175)"/>
</mask>
<g mask="url(#mask0_335_175)">
<g opacity="0.95">
<mask id="path-2-outside-1_335_175" maskUnits="userSpaceOnUse" x="5.33575" y="12.1777" width="145" height="104" fill="black">
<rect fill="white" x="5.33575" y="12.1777" width="145" height="104"/>
<path d="M77.457 64.1399C77.457 71.6572 76.6502 78.171 75.0365 83.6811C73.4228 89.1912 71.1794 93.7567 68.3063 97.3776C65.4725 100.999 62.0878 103.695 58.152 105.466C54.2555 107.237 50.0246 108.122 45.459 108.122C40.8935 108.122 36.6626 107.237 32.7661 105.466C28.9091 103.695 25.5636 100.999 22.7299 97.3776C19.8961 93.7567 17.6724 89.1912 16.0587 83.6811C14.4844 78.171 13.6972 71.6572 13.6972 64.1399C13.6972 56.6225 14.4844 50.1088 16.0587 44.5987C17.6724 39.0886 19.8961 34.5231 22.7299 30.9021C25.5636 27.2812 28.9091 24.6049 32.7661 22.8731C36.6626 21.102 40.8935 20.2165 45.459 20.2165C50.0246 20.2165 54.2555 21.102 58.152 22.8731C62.0878 24.6049 65.4725 27.2812 68.3063 30.9021C71.1794 34.5231 73.4228 39.0886 75.0365 44.5987C76.6502 50.1088 77.457 56.6225 77.457 64.1399ZM58.5652 64.1399C58.5652 58.1968 58.1913 53.3361 57.4435 49.5578C56.6957 45.7401 55.6921 42.7489 54.4326 40.5842C53.2125 38.4195 51.8153 36.9436 50.241 36.1564C48.6667 35.3299 47.0727 34.9166 45.459 34.9166C43.8454 34.9166 42.2514 35.3299 40.6771 36.1564C39.1421 36.9436 37.7646 38.4195 36.5445 40.5842C35.3637 42.7489 34.3995 45.7401 33.6517 49.5578C32.9432 53.3361 32.589 58.1968 32.589 64.1399C32.589 70.1223 32.9432 75.0027 33.6517 78.781C34.3995 82.5594 35.3637 85.5506 36.5445 87.7546C37.7646 89.9193 39.1421 91.4149 40.6771 92.2414C42.2514 93.0286 43.8454 93.4222 45.459 93.4222C47.0727 93.4222 48.6667 93.0286 50.241 92.2414C51.8153 91.4149 53.2125 89.9193 54.4326 87.7546C55.6921 85.5506 56.6957 82.5594 57.4435 78.781C58.1913 75.0027 58.5652 70.1223 58.5652 64.1399ZM141.875 93.9535V107.178H92.8748V93.9535H109.405V50.5614C109.405 49.4594 109.425 48.3574 109.464 47.2553C109.504 46.114 109.563 44.9726 109.641 43.8312L99.8412 51.9783C98.9753 52.6474 98.1094 53.0606 97.2436 53.2181C96.4171 53.3361 95.6299 53.3361 94.8821 53.2181C94.1343 53.0606 93.4652 52.8048 92.8748 52.4506C92.2845 52.057 91.8515 51.6634 91.576 51.2699L85.7904 43.5951L112.593 21.102H127.707V93.9535H141.875Z"/>
</mask>
<path d="M75.0365 83.6811L67.359 81.4327L75.0365 83.6811ZM68.3063 97.3776L62.0395 92.405L62.0228 92.426L62.0063 92.4472L68.3063 97.3776ZM58.152 105.466L54.869 98.1703L54.8553 98.1765L54.8415 98.1827L58.152 105.466ZM32.7661 105.466L29.4278 112.736L29.4417 112.742L29.4557 112.749L32.7661 105.466ZM22.7299 97.3776L16.4298 102.308H16.4298L22.7299 97.3776ZM16.0587 83.6811L8.36651 85.8788L8.37375 85.9042L8.38116 85.9295L16.0587 83.6811ZM16.0587 44.5987L8.38116 42.3503L8.37375 42.3756L8.36651 42.4009L16.0587 44.5987ZM22.7299 30.9021L16.4298 25.9717H16.4298L22.7299 30.9021ZM32.7661 22.8731L36.0429 30.1713L36.0597 30.1637L36.0765 30.1561L32.7661 22.8731ZM58.152 22.8731L54.8415 30.1561L54.8857 30.1761L54.9301 30.1957L58.152 22.8731ZM68.3063 30.9021L62.0063 35.8326L62.0228 35.8537L62.0395 35.8747L68.3063 30.9021ZM75.0365 44.5987L67.359 46.8471V46.8471L75.0365 44.5987ZM57.4435 49.5578L49.5927 51.0956L49.5942 51.1033L49.5957 51.111L57.4435 49.5578ZM54.4326 40.5842L47.4634 44.5123L47.4903 44.56L47.5179 44.6073L54.4326 40.5842ZM50.241 36.1564L46.5224 43.2396L46.5925 43.2764L46.6633 43.3118L50.241 36.1564ZM40.6771 36.1564L44.3276 43.275L44.3617 43.2574L44.3957 43.2396L40.6771 36.1564ZM36.5445 40.5842L29.5753 36.6561L29.548 36.7045L29.5213 36.7534L36.5445 40.5842ZM33.6517 49.5578L25.8009 48.02L25.7947 48.0517L25.7887 48.0835L33.6517 49.5578ZM33.6517 78.781L25.7887 80.2553L25.7961 80.2948L25.8039 80.3342L33.6517 78.781ZM36.5445 87.7546L29.4926 91.5324L29.5331 91.608L29.5753 91.6827L36.5445 87.7546ZM40.6771 92.2414L36.8843 99.2852L36.991 99.3426L37.0993 99.3968L40.6771 92.2414ZM50.241 92.2414L53.8187 99.3968L53.8896 99.3614L53.9597 99.3246L50.241 92.2414ZM54.4326 87.7546L47.4867 83.7855L47.475 83.806L47.4634 83.8265L54.4326 87.7546ZM57.4435 78.781L49.5957 77.2278L57.4435 78.781ZM69.457 64.1399C69.457 71.1171 68.7045 76.8382 67.359 81.4327L82.714 85.9295C84.5959 79.5038 85.457 72.1974 85.457 64.1399H69.457ZM67.359 81.4327C65.9675 86.1841 64.1362 89.7625 62.0395 92.405L74.5731 102.35C78.2226 97.7509 80.8782 92.1983 82.714 85.9295L67.359 81.4327ZM62.0063 92.4472C59.918 95.1155 57.5453 96.966 54.869 98.1703L61.4349 112.761C66.6302 110.423 71.0271 106.882 74.6063 102.308L62.0063 92.4472ZM54.8415 98.1827C52.0531 99.4502 48.9601 100.122 45.459 100.122V116.122C51.089 116.122 56.458 115.023 61.4624 112.749L54.8415 98.1827ZM45.459 100.122C41.958 100.122 38.865 99.4502 36.0765 98.1827L29.4557 112.749C34.4601 115.023 39.829 116.122 45.459 116.122V100.122ZM36.1045 98.1955C33.502 97.0005 31.1442 95.1487 29.0299 92.4472L16.4298 102.308C19.9831 106.848 24.3161 110.389 29.4278 112.736L36.1045 98.1955ZM29.0299 92.4472C26.9553 89.7963 25.1332 86.2029 23.7362 81.4327L8.38116 85.9295C10.2115 92.1795 12.8369 97.7171 16.4298 102.308L29.0299 92.4472ZM23.7509 81.4833C22.4329 76.8703 21.6972 71.131 21.6972 64.1399H5.69723C5.69723 72.1834 6.53587 79.4716 8.36651 85.8788L23.7509 81.4833ZM21.6972 64.1399C21.6972 57.1487 22.4329 51.4094 23.7509 46.7965L8.36651 42.4009C6.53587 48.8082 5.69723 56.0963 5.69723 64.1399H21.6972ZM23.7362 46.8471C25.1332 42.0769 26.9553 38.4835 29.0299 35.8326L16.4298 25.9717C12.8369 30.5627 10.2115 36.1003 8.38116 42.3503L23.7362 46.8471ZM29.0299 35.8326C31.1347 33.1431 33.4725 31.3253 36.0429 30.1713L29.4894 15.575C24.3456 17.8845 19.9925 21.4193 16.4298 25.9717L29.0299 35.8326ZM36.0765 30.1561C38.865 28.8886 41.958 28.2165 45.459 28.2165V12.2165C39.829 12.2165 34.4601 13.3155 29.4557 15.5902L36.0765 30.1561ZM45.459 28.2165C48.9601 28.2165 52.0531 28.8886 54.8415 30.1561L61.4624 15.5902C56.458 13.3155 51.089 12.2165 45.459 12.2165V28.2165ZM54.9301 30.1957C57.575 31.3594 59.9276 33.1766 62.0063 35.8326L74.6063 25.9717C71.0175 21.3859 66.6005 17.8503 61.3739 15.5506L54.9301 30.1957ZM62.0395 35.8747C64.1362 38.5172 65.9675 42.0957 67.359 46.8471L82.714 42.3503C80.8782 36.0815 78.2226 30.5289 74.5731 25.9295L62.0395 35.8747ZM67.359 46.8471C68.7045 51.4416 69.457 57.1627 69.457 64.1399H85.457C85.457 56.0823 84.5959 48.776 82.714 42.3503L67.359 46.8471ZM66.5652 64.1399C66.5652 57.9236 66.1792 52.491 65.2913 48.0046L49.5957 51.111C50.2034 54.1813 50.5652 58.4701 50.5652 64.1399H66.5652ZM65.2943 48.02C64.4592 43.7563 63.232 39.8001 61.3474 36.561L47.5179 44.6073C48.1522 45.6976 48.9323 47.7238 49.5927 51.0956L65.2943 48.02ZM61.4019 36.6561C59.7085 33.6517 57.2962 30.7397 53.8187 29.001L46.6633 43.3118C46.3345 43.1474 46.7166 43.1873 47.4634 44.5123L61.4019 36.6561ZM53.9597 29.0732C51.3574 27.707 48.4963 26.9166 45.459 26.9166V42.9166C45.6491 42.9166 45.976 42.9528 46.5224 43.2396L53.9597 29.0732ZM45.459 26.9166C42.4218 26.9166 39.5607 27.707 36.9584 29.0732L44.3957 43.2396C44.9421 42.9528 45.269 42.9166 45.459 42.9166V26.9166ZM37.0265 29.0379C33.6084 30.7907 31.2423 33.6984 29.5753 36.6561L43.5137 44.5123C43.8807 43.8612 44.1712 43.4944 44.3411 43.3123C44.5041 43.1377 44.5102 43.1813 44.3276 43.275L37.0265 29.0379ZM29.5213 36.7534C27.7907 39.9261 26.6261 43.8068 25.8009 48.02L41.5025 51.0956C42.1728 47.6733 42.9368 45.5716 43.5676 44.415L29.5213 36.7534ZM25.7887 48.0835C24.954 52.5353 24.589 57.9386 24.589 64.1399H40.589C40.589 58.4551 40.9325 54.137 41.5147 51.0321L25.7887 48.0835ZM24.589 64.1399C24.589 70.3767 24.9535 75.8011 25.7887 80.2553L41.5147 77.3067C40.9329 74.2042 40.589 69.8678 40.589 64.1399H24.589ZM25.8039 80.3342C26.6319 84.5178 27.7935 88.3606 29.4926 91.5324L43.5963 83.9768C42.934 82.7405 42.167 80.6009 41.4995 77.2278L25.8039 80.3342ZM29.5753 91.6827C31.2375 94.6319 33.5649 97.4978 36.8843 99.2852L44.4699 85.1976C44.7194 85.332 44.2916 85.2067 43.5137 83.8265L29.5753 91.6827ZM37.0993 99.3968C39.6819 100.688 42.4935 101.422 45.459 101.422V85.4221C45.1972 85.4221 44.8209 85.369 44.2548 85.086L37.0993 99.3968ZM45.459 101.422C48.4246 101.422 51.2362 100.688 53.8187 99.3968L46.6633 85.086C46.0972 85.369 45.7209 85.4221 45.459 85.4221V101.422ZM53.9597 99.3246C57.3404 97.5498 59.7139 94.6774 61.4019 91.6827L47.4634 83.8265C46.7112 85.1611 46.2903 85.2801 46.5224 85.1582L53.9597 99.3246ZM61.3786 91.7237C63.2287 88.486 64.4531 84.5692 65.2913 80.3342L49.5957 77.2278C48.9383 80.5495 48.1555 82.6151 47.4867 83.7855L61.3786 91.7237ZM65.2913 80.3342C66.1797 75.8453 66.5652 70.3915 66.5652 64.1399H50.5652C50.5652 69.853 50.2029 74.16 49.5957 77.2278L65.2913 80.3342ZM141.875 93.9535H149.875V85.9535H141.875V93.9535ZM141.875 107.178V115.178H149.875V107.178H141.875ZM92.8748 107.178H84.8748V115.178H92.8748V107.178ZM92.8748 93.9535V85.9535H84.8748V93.9535H92.8748ZM109.405 93.9535V101.953H117.405V93.9535H109.405ZM109.464 47.2553L117.459 47.5409L117.459 47.531L109.464 47.2553ZM109.641 43.8312L117.622 44.3816L118.909 25.7233L104.527 37.6794L109.641 43.8312ZM99.8412 51.9783L104.733 58.3086L104.846 58.2213L104.955 58.1301L99.8412 51.9783ZM97.2436 53.2181L98.3749 61.1377L98.5253 61.1162L98.6747 61.089L97.2436 53.2181ZM94.8821 53.2181L93.234 61.0465L93.4333 61.0884L93.6344 61.1202L94.8821 53.2181ZM92.8748 52.4506L88.4372 59.107L88.5956 59.2126L88.7589 59.3105L92.8748 52.4506ZM91.576 51.2699L98.1299 46.6822L98.0491 46.5667L97.9642 46.4541L91.576 51.2699ZM85.7904 43.5951L80.6477 37.467L74.8317 42.3479L79.4022 48.4108L85.7904 43.5951ZM112.593 21.102V13.102H109.681L107.45 14.974L112.593 21.102ZM127.707 21.102H135.707V13.102H127.707V21.102ZM127.707 93.9535H119.707V101.953H127.707V93.9535ZM133.875 93.9535V107.178H149.875V93.9535H133.875ZM141.875 99.1777H92.8748V115.178H141.875V99.1777ZM100.875 107.178V93.9535H84.8748V107.178H100.875ZM92.8748 101.953H109.405V85.9535H92.8748V101.953ZM117.405 93.9535V50.5614H101.405V93.9535H117.405ZM117.405 50.5614C117.405 49.5546 117.423 48.5478 117.459 47.5409L101.469 46.9698C101.427 48.1669 101.405 49.3641 101.405 50.5614H117.405ZM117.459 47.531C117.496 46.4815 117.55 45.4317 117.622 44.3816L101.66 43.2808C101.575 44.5135 101.511 45.7465 101.469 46.9796L117.459 47.531ZM104.527 37.6794L94.727 45.8265L104.955 58.1301L114.755 49.9831L104.527 37.6794ZM94.9496 45.648C94.8552 45.7209 95.1482 45.4679 95.8125 45.3471L98.6747 61.089C101.071 60.6534 103.095 59.5738 104.733 58.3086L94.9496 45.648ZM96.1122 45.2985C96.0512 45.3072 96.0263 45.3066 96.0333 45.3066C96.0367 45.3066 96.0471 45.3068 96.0639 45.308C96.0808 45.3093 96.103 45.3117 96.1298 45.316L93.6344 61.1202C95.2463 61.3747 96.8394 61.357 98.3749 61.1377L96.1122 45.2985ZM96.5302 45.3897C96.5581 45.3955 96.739 45.4396 96.9908 45.5906L88.7589 59.3105C90.1914 60.17 91.7105 60.7257 93.234 61.0465L96.5302 45.3897ZM97.3124 45.7942C97.2825 45.7742 97.3551 45.8192 97.4887 45.9407C97.6199 46.06 97.8633 46.3013 98.1299 46.6822L85.0222 55.8576C86.072 57.3573 87.3775 58.4005 88.4372 59.107L97.3124 45.7942ZM97.9642 46.4541L92.1786 38.7794L79.4022 48.4108L85.1879 56.0856L97.9642 46.4541ZM90.9331 49.7231L117.736 27.2301L107.45 14.974L80.6477 37.467L90.9331 49.7231ZM112.593 29.102H127.707V13.102H112.593V29.102ZM119.707 21.102V93.9535H135.707V21.102H119.707ZM127.707 101.953H141.875V85.9535H127.707V101.953Z" fill="url(#paint1_linear_335_175)" mask="url(#path-2-outside-1_335_175)"/>
</g>
<mask id="path-4-outside-2_335_175" maskUnits="userSpaceOnUse" x="8.33575" y="15.1777" width="138" height="98" fill="black">
<rect fill="white" x="8.33575" y="15.1777" width="138" height="98"/>
<path d="M77.457 64.1399C77.457 71.6572 76.6502 78.171 75.0365 83.6811C73.4228 89.1912 71.1794 93.7567 68.3063 97.3776C65.4725 100.999 62.0878 103.695 58.152 105.466C54.2555 107.237 50.0246 108.122 45.459 108.122C40.8935 108.122 36.6626 107.237 32.7661 105.466C28.9091 103.695 25.5636 100.999 22.7299 97.3776C19.8961 93.7567 17.6724 89.1912 16.0587 83.6811C14.4844 78.171 13.6972 71.6572 13.6972 64.1399C13.6972 56.6225 14.4844 50.1088 16.0587 44.5987C17.6724 39.0886 19.8961 34.5231 22.7299 30.9021C25.5636 27.2812 28.9091 24.6049 32.7661 22.8731C36.6626 21.102 40.8935 20.2165 45.459 20.2165C50.0246 20.2165 54.2555 21.102 58.152 22.8731C62.0878 24.6049 65.4725 27.2812 68.3063 30.9021C71.1794 34.5231 73.4228 39.0886 75.0365 44.5987C76.6502 50.1088 77.457 56.6225 77.457 64.1399ZM58.5652 64.1399C58.5652 58.1968 58.1913 53.3361 57.4435 49.5578C56.6957 45.7401 55.6921 42.7489 54.4326 40.5842C53.2125 38.4195 51.8153 36.9436 50.241 36.1564C48.6667 35.3299 47.0727 34.9166 45.459 34.9166C43.8454 34.9166 42.2514 35.3299 40.6771 36.1564C39.1421 36.9436 37.7646 38.4195 36.5445 40.5842C35.3637 42.7489 34.3995 45.7401 33.6517 49.5578C32.9432 53.3361 32.589 58.1968 32.589 64.1399C32.589 70.1223 32.9432 75.0027 33.6517 78.781C34.3995 82.5594 35.3637 85.5506 36.5445 87.7546C37.7646 89.9193 39.1421 91.4149 40.6771 92.2414C42.2514 93.0286 43.8454 93.4222 45.459 93.4222C47.0727 93.4222 48.6667 93.0286 50.241 92.2414C51.8153 91.4149 53.2125 89.9193 54.4326 87.7546C55.6921 85.5506 56.6957 82.5594 57.4435 78.781C58.1913 75.0027 58.5652 70.1223 58.5652 64.1399ZM141.875 93.9535V107.178H92.8748V93.9535H109.405V50.5614C109.405 49.4594 109.425 48.3574 109.464 47.2553C109.504 46.114 109.563 44.9726 109.641 43.8312L99.8412 51.9783C98.9753 52.6474 98.1094 53.0606 97.2436 53.2181C96.4171 53.3361 95.6299 53.3361 94.8821 53.2181C94.1343 53.0606 93.4652 52.8048 92.8748 52.4506C92.2845 52.057 91.8515 51.6634 91.576 51.2699L85.7904 43.5951L112.593 21.102H127.707V93.9535H141.875Z"/>
</mask>
<path d="M75.0365 83.6811L70.7701 82.4316L70.7701 82.4316L75.0365 83.6811ZM68.3063 97.3776L64.8239 94.6144L64.8146 94.6261L64.8054 94.6378L68.3063 97.3776ZM58.152 105.466L56.3277 101.412L56.32 101.415L56.3124 101.419L58.152 105.466ZM32.7661 105.466L30.911 109.506L30.9188 109.509L30.9265 109.513L32.7661 105.466ZM22.7299 97.3776L19.229 100.117H19.229L22.7299 97.3776ZM16.0587 83.6811L11.7842 84.9024L11.7882 84.9164L11.7923 84.9305L16.0587 83.6811ZM16.0587 44.5987L11.7923 43.3493L11.7882 43.3633L11.7842 43.3774L16.0587 44.5987ZM22.7299 30.9021L19.229 28.1623H19.229L22.7299 30.9021ZM32.7661 22.8731L34.587 26.9287L34.5963 26.9245L34.6057 26.9202L32.7661 22.8731ZM58.152 22.8731L56.3124 26.9202L56.3369 26.9314L56.3616 26.9422L58.152 22.8731ZM68.3063 30.9021L64.8054 33.642L64.8146 33.6537L64.8239 33.6654L68.3063 30.9021ZM75.0365 44.5987L70.7701 45.8481L70.7701 45.8481L75.0365 44.5987ZM57.4435 49.5578L53.0809 50.4123L53.0826 50.4209L57.4435 49.5578ZM54.4326 40.5842L50.5599 42.767L50.5748 42.7935L50.5901 42.8198L54.4326 40.5842ZM50.241 36.1564L48.1746 40.0925L48.2136 40.113L48.2529 40.1326L50.241 36.1564ZM40.6771 36.1564L42.7056 40.1121L42.7246 40.1024L42.7435 40.0925L40.6771 36.1564ZM36.5445 40.5842L32.6717 38.4014L32.6566 38.4283L32.6418 38.4554L36.5445 40.5842ZM33.6517 49.5578L29.289 48.7032L29.2856 48.7209L29.2823 48.7385L33.6517 49.5578ZM33.6517 78.781L29.2823 79.6003L29.2864 79.6222L29.2907 79.6441L33.6517 78.781ZM36.5445 87.7546L32.6258 89.8539L32.6483 89.8959L32.6717 89.9374L36.5445 87.7546ZM40.6771 92.2414L38.5694 96.1556L38.6287 96.1875L38.689 96.2176L40.6771 92.2414ZM50.241 92.2414L52.2291 96.2176L52.2685 96.198L52.3075 96.1775L50.241 92.2414ZM54.4326 87.7546L50.5728 85.549L50.5663 85.5604L50.5599 85.5718L54.4326 87.7546ZM57.4435 78.781L53.0826 77.9179V77.9179L57.4435 78.781ZM73.0115 64.1399C73.0115 71.3571 72.2348 77.4303 70.7701 82.4316L79.3028 84.9305C81.0655 78.9116 81.9025 71.9574 81.9025 64.1399H73.0115ZM70.7701 82.4316C69.2799 87.5201 67.2656 91.5372 64.8239 94.6144L71.7887 100.141C75.0933 95.9762 77.5657 90.8622 79.3028 84.9305L70.7701 82.4316ZM64.8054 94.6378C62.3859 97.7294 59.5636 99.9555 56.3277 101.412L59.9763 109.52C64.6119 107.434 68.5592 104.268 71.8072 100.117L64.8054 94.6378ZM56.3124 101.419C53.0316 102.91 49.433 103.677 45.459 103.677V112.568C50.6161 112.568 55.4794 111.564 59.9915 109.513L56.3124 101.419ZM45.459 103.677C41.4851 103.677 37.8864 102.91 34.6057 101.419L30.9265 109.513C35.4387 111.564 40.302 112.568 45.459 112.568V103.677ZM34.6212 101.426C31.4613 99.9747 28.6647 97.7478 26.2308 94.6378L19.229 100.117C22.4626 104.249 26.3568 107.414 30.911 109.506L34.6212 101.426ZM26.2308 94.6378C23.8189 91.5559 21.8183 87.5306 20.3251 82.4316L11.7923 84.9305C13.5264 90.8517 15.9733 95.9575 19.229 100.117L26.2308 94.6378ZM20.3332 82.4598C18.9013 77.4482 18.1428 71.3648 18.1428 64.1399H9.25168C9.25168 71.9496 10.0675 78.8937 11.7842 84.9024L20.3332 82.4598ZM18.1428 64.1399C18.1428 56.9149 18.9013 50.8316 20.3332 45.82L11.7842 43.3774C10.0675 49.386 9.25168 56.3301 9.25168 64.1399H18.1428ZM20.3251 45.8481C21.8183 40.7491 23.8189 36.7238 26.2308 33.642L19.229 28.1623C15.9733 32.3223 13.5264 37.428 11.7923 43.3493L20.3251 45.8481ZM26.2308 33.642C28.6594 30.5386 31.4449 28.3394 34.587 26.9287L30.9453 18.8176C26.3732 20.8704 22.4678 24.0238 19.229 28.1623L26.2308 33.642ZM34.6057 26.9202C37.8864 25.429 41.4851 24.662 45.459 24.662V15.7709C40.302 15.7709 35.4387 16.7751 30.9265 18.8261L34.6057 26.9202ZM45.459 24.662C49.433 24.662 53.0316 25.429 56.3124 26.9202L59.9915 18.8261C55.4794 16.7751 50.6161 15.7709 45.459 15.7709V24.662ZM56.3616 26.9422C59.58 28.3583 62.3913 30.5572 64.8054 33.642L71.8072 28.1623C68.5538 24.0052 64.5955 20.8514 59.9424 18.8041L56.3616 26.9422ZM64.8239 33.6654C67.2656 36.7426 69.2799 40.7596 70.7701 45.8481L79.3028 43.3493C77.5657 37.4176 75.0933 32.3035 71.7887 28.1389L64.8239 33.6654ZM70.7701 45.8481C72.2348 50.8494 73.0115 56.9227 73.0115 64.1399H81.9025C81.9025 56.3223 81.0655 49.3682 79.3028 43.3493L70.7701 45.8481ZM63.0108 64.1399C63.0108 58.045 62.6301 52.8665 61.8045 48.6947L53.0826 50.4209C53.7525 53.8058 54.1197 58.3487 54.1197 64.1399H63.0108ZM61.8062 48.7032C61.0098 44.6377 59.882 41.1103 58.2751 38.3485L50.5901 42.8198C51.5022 44.3875 52.3816 46.8424 53.0809 50.4123L61.8062 48.7032ZM58.3054 38.4014C56.8223 35.7701 54.861 33.4961 52.2291 32.1802L48.2529 40.1326C48.7697 40.391 49.6028 41.0689 50.5599 42.767L58.3054 38.4014ZM52.3075 32.2203C50.1619 31.0939 47.8638 30.4711 45.459 30.4711V39.3622C46.2816 39.3622 47.1715 39.5659 48.1746 40.0925L52.3075 32.2203ZM45.459 30.4711C43.0543 30.4711 40.7562 31.0939 38.6106 32.2203L42.7435 40.0925C43.7466 39.5659 44.6365 39.3622 45.459 39.3622V30.4711ZM38.6485 32.2007C36.0671 33.5245 34.1402 35.796 32.6717 38.4014L40.4172 42.767C41.389 41.043 42.2171 40.3627 42.7056 40.1121L38.6485 32.2007ZM32.6418 38.4554C31.1555 41.1803 30.0799 44.6658 29.289 48.7032L38.0143 50.4123C38.7191 46.8144 39.572 44.3174 40.4472 42.7129L32.6418 38.4554ZM29.2823 48.7385C28.5037 52.8911 28.1435 58.0533 28.1435 64.1399H37.0346C37.0346 58.3404 37.3828 53.7812 38.0211 50.377L29.2823 48.7385ZM28.1435 64.1399C28.1435 70.2637 28.5034 75.4463 29.2823 79.6003L38.0211 77.9618C37.3831 74.559 37.0346 69.9809 37.0346 64.1399H28.1435ZM29.2907 79.6441C30.0831 83.6477 31.157 87.1121 32.6258 89.8539L40.4631 85.6553C39.5705 83.9891 38.7159 81.4711 38.0126 77.9179L29.2907 79.6441ZM32.6717 89.9374C34.1375 92.5381 36.0429 94.7951 38.5694 96.1556L42.7847 88.3272C42.2413 88.0347 41.3916 87.3005 40.4172 85.5718L32.6717 89.9374ZM38.689 96.2176C40.8235 97.2849 43.0942 97.8677 45.459 97.8677V88.9766C44.5966 88.9766 43.6792 88.7722 42.6652 88.2652L38.689 96.2176ZM45.459 97.8677C47.8239 97.8677 50.0946 97.2849 52.2291 96.2176L48.2529 88.2652C47.2389 88.7722 46.3215 88.9766 45.459 88.9766V97.8677ZM52.3075 96.1775C54.8856 94.824 56.8253 92.5634 58.3054 89.9374L50.5599 85.5718C49.5998 87.2752 48.7451 88.0058 48.1746 88.3053L52.3075 96.1775ZM58.2925 89.9602C59.8801 87.1818 61.0065 83.6762 61.8045 79.6441L53.0826 77.9179C52.385 81.4425 51.5041 83.9193 50.5728 85.549L58.2925 89.9602ZM61.8045 79.6441C62.6304 75.4709 63.0108 70.2719 63.0108 64.1399H54.1197C54.1197 69.9727 53.7522 74.5344 53.0826 77.9179L61.8045 79.6441ZM141.875 93.9535H146.321V89.5079H141.875V93.9535ZM141.875 107.178V111.623H146.321V107.178H141.875ZM92.8748 107.178H88.4293V111.623H92.8748V107.178ZM92.8748 93.9535V89.5079H88.4293V93.9535H92.8748ZM109.405 93.9535V98.399H113.851V93.9535H109.405ZM109.464 47.2553L113.907 47.414L113.907 47.4085L109.464 47.2553ZM109.641 43.8312L114.076 44.1371L114.791 33.7687L106.799 40.4127L109.641 43.8312ZM99.8412 51.9783L102.559 55.496L102.622 55.4475L102.683 55.3968L99.8412 51.9783ZM97.2436 53.2181L97.8723 57.6189L97.9558 57.607L98.0388 57.5919L97.2436 53.2181ZM94.8821 53.2181L93.9663 57.5683L94.077 57.5916L94.1888 57.6092L94.8821 53.2181ZM92.8748 52.4506L90.4089 56.1495L90.4969 56.2082L90.5876 56.2626L92.8748 52.4506ZM91.576 51.2699L95.218 48.7205L95.173 48.6563L95.1259 48.5938L91.576 51.2699ZM85.7904 43.5951L82.9327 40.1898L79.7008 42.902L82.2406 46.2711L85.7904 43.5951ZM112.593 21.102V16.6565H110.975L109.735 17.6967L112.593 21.102ZM127.707 21.102H132.152V16.6565H127.707V21.102ZM127.707 93.9535H123.261V98.399H127.707V93.9535ZM137.43 93.9535V107.178H146.321V93.9535H137.43ZM141.875 102.732H92.8748V111.623H141.875V102.732ZM97.3204 107.178V93.9535H88.4293V107.178H97.3204ZM92.8748 98.399H109.405V89.5079H92.8748V98.399ZM113.851 93.9535V50.5614H104.96V93.9535H113.851ZM113.851 50.5614C113.851 49.5123 113.869 48.4632 113.907 47.414L105.021 47.0967C104.98 48.2515 104.96 49.4065 104.96 50.5614H113.851ZM113.907 47.4085C113.945 46.3182 114.001 45.2277 114.076 44.1371L105.206 43.5254C105.124 44.7175 105.062 45.9097 105.021 47.1021L113.907 47.4085ZM106.799 40.4127L96.9993 48.5598L102.683 55.3968L112.483 47.2497L106.799 40.4127ZM97.123 48.4606C96.6858 48.7984 96.4639 48.8414 96.4483 48.8442L98.0388 57.5919C99.755 57.2799 101.265 56.4964 102.559 55.496L97.123 48.4606ZM96.6149 48.8172C96.1824 48.879 95.843 48.8692 95.5754 48.8269L94.1888 57.6092C95.4168 57.8031 96.6517 57.7933 97.8723 57.6189L96.6149 48.8172ZM95.7979 48.8679C95.4812 48.8012 95.2845 48.712 95.1621 48.6386L90.5876 56.2626C91.646 56.8976 92.7874 57.3201 93.9663 57.5683L95.7979 48.8679ZM95.3408 48.7517C95.2686 48.7035 95.2131 48.6633 95.1721 48.6318C95.1309 48.6001 95.1073 48.5795 95.0978 48.5708C95.0881 48.562 95.0961 48.5684 95.1165 48.5911C95.137 48.6138 95.1732 48.6565 95.218 48.7205L87.9341 53.8192C88.6399 54.8275 89.5577 55.582 90.4089 56.1495L95.3408 48.7517ZM95.1259 48.5938L89.3403 40.919L82.2406 46.2711L88.0262 53.9459L95.1259 48.5938ZM88.6482 47.0004L115.451 24.5073L109.735 17.6967L82.9327 40.1898L88.6482 47.0004ZM112.593 25.5476H127.707V16.6565H112.593V25.5476ZM123.261 21.102V93.9535H132.152V21.102H123.261ZM127.707 98.399H141.875V89.5079H127.707V98.399Z" fill="url(#paint2_linear_335_175)" mask="url(#path-4-outside-2_335_175)"/>
</g>
<defs>
<linearGradient id="paint0_linear_335_175" x1="79.6875" y1="3.40267" x2="79.6875" y2="148.375" gradientUnits="userSpaceOnUse">
<stop stop-color="#D9D9D9"/>
<stop offset="1" stop-color="#737373" stop-opacity="0"/>
</linearGradient>
<linearGradient id="paint1_linear_335_175" x1="232.39" y1="-9.82227" x2="232.39" y2="140.382" gradientUnits="userSpaceOnUse">
<stop stop-color="#D9FFDE"/>
<stop offset="1" stop-color="white" stop-opacity="0"/>
</linearGradient>
<linearGradient id="paint2_linear_335_175" x1="232.39" y1="-9.82227" x2="232.39" y2="140.382" gradientUnits="userSpaceOnUse">
<stop stop-color="#D9FFDE"/>
<stop offset="1" stop-color="white" stop-opacity="0"/>
</linearGradient>
</defs>
</svg>
