<svg width="160" height="120" viewBox="0 0 160 120" fill="none" xmlns="http://www.w3.org/2000/svg">
<mask id="mask0_335_264" style="mask-type:alpha" maskUnits="userSpaceOnUse" x="0" y="0" width="160" height="120">
<rect y="0.56958" width="159.375" height="119" fill="url(#paint0_linear_335_264)"/>
</mask>
<g mask="url(#mask0_335_264)">
<g opacity="0.95">
<mask id="path-2-outside-1_335_264" maskUnits="userSpaceOnUse" x="5.33569" y="11.178" width="149" height="105" fill="black">
<rect fill="white" x="5.33569" y="11.178" width="149" height="105"/>
<path d="M77.4569 64.1401C77.4569 71.6575 76.6501 78.1712 75.0364 83.6813C73.4228 89.1914 71.1794 93.7569 68.3062 97.3779C65.4725 100.999 62.0877 103.695 58.1519 105.466C54.2555 107.237 50.0245 108.123 45.459 108.123C40.8935 108.123 36.6625 107.237 32.7661 105.466C28.909 103.695 25.5636 100.999 22.7298 97.3779C19.896 93.7569 17.6723 89.1914 16.0586 83.6813C14.4843 78.1712 13.6972 71.6575 13.6972 64.1401C13.6972 56.6228 14.4843 50.109 16.0586 44.5989C17.6723 39.0888 19.896 34.5233 22.7298 30.9024C25.5636 27.2815 28.909 24.6051 32.7661 22.8734C36.6625 21.1023 40.8935 20.2167 45.459 20.2167C50.0245 20.2167 54.2555 21.1023 58.1519 22.8734C62.0877 24.6051 65.4725 27.2815 68.3062 30.9024C71.1794 34.5233 73.4228 39.0888 75.0364 44.5989C76.6501 50.109 77.4569 56.6228 77.4569 64.1401ZM58.5652 64.1401C58.5652 58.1971 58.1913 53.3364 57.4435 49.558C56.6957 45.7403 55.692 42.7491 54.4326 40.5844C53.2125 38.4197 51.8153 36.9438 50.241 36.1567C48.6667 35.3302 47.0727 34.9169 45.459 34.9169C43.8453 34.9169 42.2513 35.3302 40.677 36.1567C39.142 36.9438 37.7645 38.4197 36.5444 40.5844C35.3637 42.7491 34.3994 45.7403 33.6516 49.558C32.9432 53.3364 32.589 58.1971 32.589 64.1401C32.589 70.1225 32.9432 75.0029 33.6516 78.7813C34.3994 82.5596 35.3637 85.5508 36.5444 87.7549C37.7645 89.9195 39.142 91.4151 40.677 92.2417C42.2513 93.0288 43.8453 93.4224 45.459 93.4224C47.0727 93.4224 48.6667 93.0288 50.241 92.2417C51.8153 91.4151 53.2125 89.9195 54.4326 87.7549C55.692 85.5508 56.6957 82.5596 57.4435 78.7813C58.1913 75.0029 58.5652 70.1225 58.5652 64.1401ZM120.858 73.7631V51.3291C120.858 49.9516 120.898 48.4757 120.976 46.9014C121.094 45.2877 121.252 43.615 121.449 41.8832L98.7194 73.7631H120.858ZM145.654 73.7631V84.0355C145.654 84.9408 145.339 85.7279 144.709 86.397C144.119 87.0661 143.253 87.4006 142.112 87.4006H136.798V107.178H120.858V87.4006H86.2627C85.1213 87.4006 84.0783 87.0464 83.1337 86.338C82.2285 85.6295 81.6578 84.744 81.4216 83.6813L79.5325 74.6487L119.323 21.1613H136.798V73.7631H145.654Z"/>
</mask>
<path d="M75.0364 83.6813L67.3589 81.4329L75.0364 83.6813ZM68.3062 97.3779L62.0394 92.4053L62.0227 92.4263L62.0062 92.4474L68.3062 97.3779ZM58.1519 105.466L54.869 98.1705L54.8552 98.1767L54.8415 98.183L58.1519 105.466ZM32.7661 105.466L29.4277 112.736L29.4417 112.742L29.4556 112.749L32.7661 105.466ZM22.7298 97.3779L16.4298 102.308H16.4298L22.7298 97.3779ZM16.0586 83.6813L8.36645 85.8791L8.37369 85.9044L8.3811 85.9297L16.0586 83.6813ZM16.0586 44.5989L8.3811 42.3505L8.37369 42.3758L8.36645 42.4012L16.0586 44.5989ZM22.7298 30.9024L16.4298 25.9719H16.4298L22.7298 30.9024ZM32.7661 22.8734L36.0428 30.1715L36.0597 30.164L36.0765 30.1563L32.7661 22.8734ZM58.1519 22.8734L54.8415 30.1563L54.8856 30.1764L54.93 30.1959L58.1519 22.8734ZM68.3062 30.9024L62.0062 35.8329L62.0227 35.854L62.0394 35.875L68.3062 30.9024ZM75.0364 44.5989L67.3589 46.8474V46.8474L75.0364 44.5989ZM57.4435 49.558L49.5927 51.0958L49.5942 51.1035L49.5957 51.1112L57.4435 49.558ZM54.4326 40.5844L47.4634 44.5125L47.4903 44.5602L47.5178 44.6076L54.4326 40.5844ZM50.241 36.1567L46.5223 43.2398L46.5924 43.2767L46.6633 43.3121L50.241 36.1567ZM40.677 36.1567L44.3275 43.2752L44.3617 43.2577L44.3957 43.2398L40.677 36.1567ZM36.5444 40.5844L29.5752 36.6563L29.5479 36.7048L29.5213 36.7536L36.5444 40.5844ZM33.6516 49.558L25.8008 48.0202L25.7946 48.052L25.7886 48.0837L33.6516 49.558ZM33.6516 78.7813L25.7886 80.2556L25.796 80.2951L25.8038 80.3345L33.6516 78.7813ZM36.5444 87.7549L29.4926 91.5326L29.5331 91.6082L29.5752 91.683L36.5444 87.7549ZM40.677 92.2417L36.8842 99.2854L36.9909 99.3429L37.0993 99.3971L40.677 92.2417ZM50.241 92.2417L53.8187 99.3971L53.8895 99.3617L53.9596 99.3248L50.241 92.2417ZM54.4326 87.7549L47.4866 83.7857L47.4749 83.8062L47.4634 83.8268L54.4326 87.7549ZM57.4435 78.7813L49.5957 77.2281L57.4435 78.7813ZM69.4569 64.1401C69.4569 71.1173 68.7044 76.8384 67.3589 81.4329L82.714 85.9297C84.5958 79.504 85.4569 72.1977 85.4569 64.1401H69.4569ZM67.3589 81.4329C65.9674 86.1843 64.1362 89.7628 62.0394 92.4053L74.5731 102.35C78.2226 97.7511 80.8781 92.1985 82.714 85.9297L67.3589 81.4329ZM62.0062 92.4474C59.9179 95.1158 57.5453 96.9662 54.869 98.1705L61.4348 112.761C66.6301 110.423 71.027 106.882 74.6063 102.308L62.0062 92.4474ZM54.8415 98.183C52.053 99.4505 48.96 100.123 45.459 100.123V116.123C51.089 116.123 56.4579 115.024 61.4623 112.749L54.8415 98.183ZM45.459 100.123C41.958 100.123 38.8649 99.4505 36.0765 98.183L29.4556 112.749C34.46 115.024 39.829 116.123 45.459 116.123V100.123ZM36.1044 98.1957C33.502 97.0007 31.1441 95.149 29.0298 92.4474L16.4298 102.308C19.983 106.849 24.316 110.389 29.4277 112.736L36.1044 98.1957ZM29.0298 92.4474C26.9553 89.7965 25.1332 86.2031 23.7362 81.4329L8.3811 85.9297C10.2114 92.1797 12.8368 97.7173 16.4298 102.308L29.0298 92.4474ZM23.7508 81.4836C22.4328 76.8706 21.6972 71.1313 21.6972 64.1401H5.69717C5.69717 72.1837 6.53581 79.4718 8.36645 85.8791L23.7508 81.4836ZM21.6972 64.1401C21.6972 57.149 22.4328 51.4097 23.7508 46.7967L8.36645 42.4012C6.53581 48.8084 5.69717 56.0966 5.69717 64.1401H21.6972ZM23.7362 46.8474C25.1332 42.0771 26.9553 38.4837 29.0298 35.8329L16.4298 25.9719C12.8368 30.5629 10.2114 36.1006 8.3811 42.3505L23.7362 46.8474ZM29.0298 35.8329C31.1347 33.1434 33.4725 31.3256 36.0428 30.1715L29.4893 15.5752C24.3455 17.8847 19.9925 21.4196 16.4298 25.9719L29.0298 35.8329ZM36.0765 30.1563C38.8649 28.8888 41.958 28.2167 45.459 28.2167V12.2167C39.829 12.2167 34.46 13.3157 29.4556 15.5904L36.0765 30.1563ZM45.459 28.2167C48.96 28.2167 52.053 28.8888 54.8415 30.1563L61.4623 15.5904C56.4579 13.3157 51.089 12.2167 45.459 12.2167V28.2167ZM54.93 30.1959C57.5749 31.3597 59.9275 33.1768 62.0062 35.8329L74.6063 25.9719C71.0174 21.3861 66.6005 17.8506 61.3738 15.5509L54.93 30.1959ZM62.0394 35.875C64.1362 38.5175 65.9674 42.0959 67.3589 46.8474L82.714 42.3505C80.8781 36.0817 78.2226 30.5291 74.5731 25.9298L62.0394 35.875ZM67.3589 46.8474C68.7044 51.4418 69.4569 57.163 69.4569 64.1401H85.4569C85.4569 56.0826 84.5958 48.7762 82.714 42.3505L67.3589 46.8474ZM66.5652 64.1401C66.5652 57.9238 66.1792 52.4912 65.2912 48.0048L49.5957 51.1112C50.2034 54.1816 50.5652 58.4704 50.5652 64.1401H66.5652ZM65.2943 48.0202C64.4591 43.7566 63.2319 39.8004 61.3474 36.5613L47.5178 44.6076C48.1521 45.6978 48.9322 47.724 49.5927 51.0958L65.2943 48.0202ZM61.4018 36.6563C59.7084 33.652 57.2961 30.74 53.8187 29.0012L46.6633 43.3121C46.3344 43.1477 46.7165 43.1875 47.4634 44.5125L61.4018 36.6563ZM53.9596 29.0735C51.3573 27.7073 48.4963 26.9169 45.459 26.9169V42.9169C45.649 42.9169 45.976 42.953 46.5223 43.2398L53.9596 29.0735ZM45.459 26.9169C42.4217 26.9169 39.5606 27.7073 36.9583 29.0735L44.3957 43.2398C44.942 42.953 45.2689 42.9169 45.459 42.9169V26.9169ZM37.0265 29.0381C33.6084 30.791 31.2422 33.6987 29.5752 36.6563L43.5136 44.5125C43.8806 43.8614 44.1711 43.4946 44.3411 43.3125C44.504 43.138 44.5101 43.1816 44.3275 43.2752L37.0265 29.0381ZM29.5213 36.7536C27.7907 39.9264 26.6261 43.8071 25.8008 48.0202L41.5024 51.0958C42.1728 47.6735 42.9367 45.5718 43.5676 44.4153L29.5213 36.7536ZM25.7886 48.0837C24.9539 52.5355 24.589 57.9388 24.589 64.1401H40.589C40.589 58.4553 40.9324 54.1372 41.5146 51.0323L25.7886 48.0837ZM24.589 64.1401C24.589 70.377 24.9535 75.8013 25.7886 80.2556L41.5146 77.307C40.9329 74.2045 40.589 69.8681 40.589 64.1401H24.589ZM25.8038 80.3345C26.6319 84.5181 27.7934 88.3608 29.4926 91.5326L43.5963 83.9771C42.934 82.7408 42.167 80.6012 41.4994 77.2281L25.8038 80.3345ZM29.5752 91.683C31.2375 94.6322 33.5648 97.4981 36.8842 99.2854L44.4698 85.1979C44.7193 85.3322 44.2916 85.2069 43.5136 83.8268L29.5752 91.683ZM37.0993 99.3971C39.6818 100.688 42.4935 101.422 45.459 101.422V85.4224C45.1971 85.4224 44.8208 85.3693 44.2547 85.0862L37.0993 99.3971ZM45.459 101.422C48.4245 101.422 51.2362 100.688 53.8187 99.3971L46.6633 85.0862C46.0971 85.3693 45.7208 85.4224 45.459 85.4224V101.422ZM53.9596 99.3248C57.3403 97.55 59.7139 94.6777 61.4018 91.683L47.4634 83.8268C46.7111 85.1614 46.2903 85.2803 46.5223 85.1585L53.9596 99.3248ZM61.3785 91.724C63.2286 88.4863 64.4531 84.5695 65.2912 80.3345L49.5957 77.2281C48.9383 80.5498 48.1554 82.6153 47.4866 83.7857L61.3785 91.724ZM65.2912 80.3345C66.1797 75.8455 66.5652 70.3918 66.5652 64.1401H50.5652C50.5652 69.8533 50.2029 74.1603 49.5957 77.2281L65.2912 80.3345ZM120.858 73.7631V81.7631H128.858V73.7631H120.858ZM120.976 46.9014L112.998 46.3176L112.991 46.4097L112.986 46.5019L120.976 46.9014ZM121.449 41.8832L129.397 42.7865L132.89 12.0555L114.935 37.239L121.449 41.8832ZM98.7194 73.7631L92.2055 69.1189L83.1906 81.7631H98.7194V73.7631ZM145.654 73.7631H153.654V65.7631H145.654V73.7631ZM144.709 86.397L138.884 80.9141L138.795 81.0077L138.71 81.104L144.709 86.397ZM136.798 87.4006V79.4006H128.798V87.4006H136.798ZM136.798 107.178V115.178H144.798V107.178H136.798ZM120.858 107.178H112.858V115.178H120.858V107.178ZM120.858 87.4006H128.858V79.4006H120.858V87.4006ZM83.1337 86.338L78.2032 92.638L78.268 92.6887L78.3337 92.738L83.1337 86.338ZM81.4216 83.6813L73.5911 85.3191L73.6013 85.368L73.6121 85.4168L81.4216 83.6813ZM79.5325 74.6487L73.1138 69.8737L70.9648 72.7623L71.7019 76.2865L79.5325 74.6487ZM119.323 21.1613V13.1613H115.304L112.905 16.3863L119.323 21.1613ZM136.798 21.1613H144.798V13.1613H136.798V21.1613ZM136.798 73.7631H128.798V81.7631H136.798V73.7631ZM128.858 73.7631V51.3291H112.858V73.7631H128.858ZM128.858 51.3291C128.858 50.1022 128.893 48.7606 128.966 47.3009L112.986 46.5019C112.902 48.1907 112.858 49.801 112.858 51.3291H128.858ZM128.955 47.4852C129.065 45.986 129.212 44.42 129.397 42.7865L113.5 40.98C113.292 42.8099 113.124 44.5894 112.998 46.3176L128.955 47.4852ZM114.935 37.239L92.2055 69.1189L105.233 78.4073L127.963 46.5274L114.935 37.239ZM98.7194 81.7631H120.858V65.7631H98.7194V81.7631ZM137.654 73.7631V84.0355H153.654V73.7631H137.654ZM137.654 84.0355C137.654 83.5401 137.744 82.9477 137.99 82.3337C138.234 81.7218 138.57 81.2477 138.884 80.9141L150.535 91.8799C152.538 89.7516 153.654 87.0124 153.654 84.0355H137.654ZM138.71 81.104C139.299 80.4366 140.019 79.9635 140.734 79.6873C141.405 79.4281 141.915 79.4006 142.112 79.4006V95.4006C144.863 95.4006 148.198 94.5348 150.708 91.69L138.71 81.104ZM142.112 79.4006H136.798V95.4006H142.112V79.4006ZM128.798 87.4006V107.178H144.798V87.4006H128.798ZM136.798 99.178H120.858V115.178H136.798V99.178ZM128.858 107.178V87.4006H112.858V107.178H128.858ZM120.858 79.4006H86.2627V95.4006H120.858V79.4006ZM86.2627 79.4006C86.535 79.4006 86.8602 79.4455 87.197 79.5599C87.531 79.6733 87.7789 79.8219 87.9337 79.938L78.3337 92.738C80.6118 94.4466 83.3273 95.4006 86.2627 95.4006V79.4006ZM88.0642 80.0379C88.2512 80.1843 88.5105 80.4352 88.7513 80.8089C88.9954 81.1876 89.1509 81.585 89.2311 81.9459L73.6121 85.4168C74.2739 88.3949 75.9268 90.8564 78.2032 92.638L88.0642 80.0379ZM89.2522 82.0436L87.363 73.0109L71.7019 76.2865L73.5911 85.3191L89.2522 82.0436ZM85.9511 79.4237L125.742 25.9363L112.905 16.3863L73.1138 69.8737L85.9511 79.4237ZM119.323 29.1613H136.798V13.1613H119.323V29.1613ZM128.798 21.1613V73.7631H144.798V21.1613H128.798ZM136.798 81.7631H145.654V65.7631H136.798V81.7631Z" fill="url(#paint1_linear_335_264)" mask="url(#path-2-outside-1_335_264)"/>
</g>
<mask id="path-4-outside-2_335_264" maskUnits="userSpaceOnUse" x="8.33569" y="15.178" width="142" height="98" fill="black">
<rect fill="white" x="8.33569" y="15.178" width="142" height="98"/>
<path d="M77.4569 64.1401C77.4569 71.6575 76.6501 78.1712 75.0364 83.6813C73.4228 89.1914 71.1794 93.7569 68.3062 97.3779C65.4725 100.999 62.0877 103.695 58.1519 105.466C54.2555 107.237 50.0245 108.123 45.459 108.123C40.8935 108.123 36.6625 107.237 32.7661 105.466C28.909 103.695 25.5636 100.999 22.7298 97.3779C19.896 93.7569 17.6723 89.1914 16.0586 83.6813C14.4843 78.1712 13.6972 71.6575 13.6972 64.1401C13.6972 56.6228 14.4843 50.109 16.0586 44.5989C17.6723 39.0888 19.896 34.5233 22.7298 30.9024C25.5636 27.2815 28.909 24.6051 32.7661 22.8734C36.6625 21.1023 40.8935 20.2167 45.459 20.2167C50.0245 20.2167 54.2555 21.1023 58.1519 22.8734C62.0877 24.6051 65.4725 27.2815 68.3062 30.9024C71.1794 34.5233 73.4228 39.0888 75.0364 44.5989C76.6501 50.109 77.4569 56.6228 77.4569 64.1401ZM58.5652 64.1401C58.5652 58.1971 58.1913 53.3364 57.4435 49.558C56.6957 45.7403 55.692 42.7491 54.4326 40.5844C53.2125 38.4197 51.8153 36.9438 50.241 36.1567C48.6667 35.3302 47.0727 34.9169 45.459 34.9169C43.8453 34.9169 42.2513 35.3302 40.677 36.1567C39.142 36.9438 37.7645 38.4197 36.5444 40.5844C35.3637 42.7491 34.3994 45.7403 33.6516 49.558C32.9432 53.3364 32.589 58.1971 32.589 64.1401C32.589 70.1225 32.9432 75.0029 33.6516 78.7813C34.3994 82.5596 35.3637 85.5508 36.5444 87.7549C37.7645 89.9195 39.142 91.4151 40.677 92.2417C42.2513 93.0288 43.8453 93.4224 45.459 93.4224C47.0727 93.4224 48.6667 93.0288 50.241 92.2417C51.8153 91.4151 53.2125 89.9195 54.4326 87.7549C55.692 85.5508 56.6957 82.5596 57.4435 78.7813C58.1913 75.0029 58.5652 70.1225 58.5652 64.1401ZM120.858 73.7631V51.3291C120.858 49.9516 120.898 48.4757 120.976 46.9014C121.094 45.2877 121.252 43.615 121.449 41.8832L98.7194 73.7631H120.858ZM145.654 73.7631V84.0355C145.654 84.9408 145.339 85.7279 144.709 86.397C144.119 87.0661 143.253 87.4006 142.112 87.4006H136.798V107.178H120.858V87.4006H86.2627C85.1213 87.4006 84.0783 87.0464 83.1337 86.338C82.2285 85.6295 81.6578 84.744 81.4216 83.6813L79.5325 74.6487L119.323 21.1613H136.798V73.7631H145.654Z"/>
</mask>
<path d="M75.0364 83.6813L70.7701 82.4319L70.7701 82.4319L75.0364 83.6813ZM68.3062 97.3779L64.8238 94.6146L64.8145 94.6263L64.8053 94.638L68.3062 97.3779ZM58.1519 105.466L56.3276 101.412L56.32 101.415L56.3123 101.419L58.1519 105.466ZM32.7661 105.466L30.911 109.506L30.9187 109.509L30.9265 109.513L32.7661 105.466ZM22.7298 97.3779L19.2289 100.118H19.2289L22.7298 97.3779ZM16.0586 83.6813L11.7841 84.9026L11.7882 84.9167L11.7923 84.9307L16.0586 83.6813ZM16.0586 44.5989L11.7923 43.3495L11.7882 43.3636L11.7841 43.3777L16.0586 44.5989ZM22.7298 30.9024L19.2289 28.1626H19.2289L22.7298 30.9024ZM32.7661 22.8734L34.5869 26.9289L34.5963 26.9247L34.6056 26.9205L32.7661 22.8734ZM58.1519 22.8734L56.3123 26.9205L56.3368 26.9316L56.3615 26.9425L58.1519 22.8734ZM68.3062 30.9024L64.8053 33.6422L64.8145 33.654L64.8238 33.6656L68.3062 30.9024ZM75.0364 44.5989L70.7701 45.8484L70.7701 45.8484L75.0364 44.5989ZM57.4435 49.558L53.0808 50.4126L53.0825 50.4211L57.4435 49.558ZM54.4326 40.5844L50.5598 42.7672L50.5748 42.7938L50.5901 42.8201L54.4326 40.5844ZM50.241 36.1567L48.1745 40.0927L48.2135 40.1132L48.2529 40.1329L50.241 36.1567ZM40.677 36.1567L42.7056 40.1124L42.7246 40.1027L42.7434 40.0927L40.677 36.1567ZM36.5444 40.5844L32.6717 38.4016L32.6565 38.4285L32.6417 38.4557L36.5444 40.5844ZM33.6516 49.558L29.289 48.7035L29.2855 48.7211L29.2822 48.7388L33.6516 49.558ZM33.6516 78.7813L29.2822 79.6005L29.2863 79.6225L29.2907 79.6444L33.6516 78.7813ZM36.5444 87.7549L32.6258 89.8541L32.6483 89.8962L32.6717 89.9377L36.5444 87.7549ZM40.677 92.2417L38.5694 96.1558L38.6287 96.1878L38.6889 96.2179L40.677 92.2417ZM50.241 92.2417L52.2291 96.2179L52.2684 96.1982L52.3074 96.1777L50.241 92.2417ZM54.4326 87.7549L50.5728 85.5493L50.5663 85.5606L50.5598 85.572L54.4326 87.7549ZM57.4435 78.7813L53.0825 77.9182V77.9182L57.4435 78.7813ZM73.0114 64.1401C73.0114 71.3573 72.2347 77.4306 70.7701 82.4319L79.3028 84.9307C81.0655 78.9118 81.9025 71.9577 81.9025 64.1401H73.0114ZM70.7701 82.4319C69.2799 87.5204 67.2655 91.5374 64.8238 94.6146L71.7887 100.141C75.0932 95.9765 77.5657 90.8624 79.3028 84.9307L70.7701 82.4319ZM64.8053 94.638C62.3858 97.7296 59.5635 99.9558 56.3276 101.412L59.9762 109.52C64.6119 107.434 68.5591 104.268 71.8071 100.118L64.8053 94.638ZM56.3123 101.419C53.0316 102.91 49.433 103.677 45.459 103.677V112.568C50.616 112.568 55.4794 111.564 59.9915 109.513L56.3123 101.419ZM45.459 103.677C41.485 103.677 37.8864 102.91 34.6056 101.419L30.9265 109.513C35.4386 111.564 40.3019 112.568 45.459 112.568V103.677ZM34.6212 101.426C31.4613 99.975 28.6646 97.7481 26.2307 94.638L19.2289 100.118C22.4625 104.249 26.3567 107.415 30.911 109.506L34.6212 101.426ZM26.2307 94.638C23.8188 91.5562 21.8183 87.5309 20.325 82.4319L11.7923 84.9307C13.5264 90.852 15.9733 95.9577 19.2289 100.118L26.2307 94.638ZM20.3331 82.46C18.9013 77.4485 18.1427 71.3651 18.1427 64.1401H9.25162C9.25162 71.9499 10.0674 78.894 11.7841 84.9026L20.3331 82.46ZM18.1427 64.1401C18.1427 56.9152 18.9013 50.8318 20.3331 45.8202L11.7841 43.3777C10.0674 49.3863 9.25162 56.3304 9.25162 64.1401H18.1427ZM20.325 45.8484C21.8183 40.7494 23.8188 36.7241 26.2307 33.6422L19.2289 28.1626C15.9733 32.3226 13.5264 37.4283 11.7923 43.3495L20.325 45.8484ZM26.2307 33.6422C28.6594 30.5389 31.4449 28.3396 34.5869 26.9289L30.9452 18.8178C26.3731 20.8706 22.4678 24.024 19.2289 28.1626L26.2307 33.6422ZM34.6056 26.9205C37.8864 25.4292 41.485 24.6623 45.459 24.6623V15.7712C40.3019 15.7712 35.4386 16.7753 30.9265 18.8263L34.6056 26.9205ZM45.459 24.6623C49.433 24.6623 53.0316 25.4292 56.3123 26.9205L59.9915 18.8263C55.4794 16.7753 50.616 15.7712 45.459 15.7712V24.6623ZM56.3615 26.9425C59.58 28.3586 62.3912 30.5575 64.8053 33.6422L71.8071 28.1626C68.5537 24.0055 64.5954 20.8517 59.9423 18.8043L56.3615 26.9425ZM64.8238 33.6656C67.2655 36.7428 69.2799 40.7599 70.7701 45.8484L79.3028 43.3495C77.5657 37.4178 75.0932 32.3038 71.7887 28.1391L64.8238 33.6656ZM70.7701 45.8484C72.2347 50.8497 73.0114 56.923 73.0114 64.1401H81.9025C81.9025 56.3226 81.0655 49.3684 79.3028 43.3495L70.7701 45.8484ZM63.0107 64.1401C63.0107 58.0452 62.6301 52.8667 61.8044 48.6949L53.0825 50.4211C53.7524 53.806 54.1196 58.3489 54.1196 64.1401H63.0107ZM61.8061 48.7035C61.0098 44.638 59.8819 41.1105 58.2751 38.3488L50.5901 42.8201C51.5022 44.3877 52.3816 46.8427 53.0808 50.4126L61.8061 48.7035ZM58.3053 38.4016C56.8222 35.7703 54.8609 33.4964 52.2291 32.1805L48.2529 40.1329C48.7696 40.3913 49.6027 41.0692 50.5598 42.7672L58.3053 38.4016ZM52.3074 32.2206C50.1618 31.0942 47.8637 30.4713 45.459 30.4713V39.3624C46.2816 39.3624 47.1715 39.5661 48.1745 40.0927L52.3074 32.2206ZM45.459 30.4713C43.0542 30.4713 40.7561 31.0942 38.6106 32.2206L42.7434 40.0927C43.7465 39.5661 44.6364 39.3624 45.459 39.3624V30.4713ZM38.6484 32.2009C36.067 33.5247 34.1401 35.7963 32.6717 38.4016L40.4172 42.7673C41.3889 41.0432 42.2171 40.3629 42.7056 40.1124L38.6484 32.2009ZM32.6417 38.4557C31.1554 41.1805 30.0798 44.666 29.289 48.7035L38.0143 50.4126C38.719 46.8146 39.572 44.3177 40.4471 42.7132L32.6417 38.4557ZM29.2822 48.7388C28.5036 52.8914 28.1434 58.0536 28.1434 64.1401H37.0345C37.0345 58.3406 37.3827 53.7814 38.021 50.3773L29.2822 48.7388ZM28.1434 64.1401C28.1434 70.2639 28.5034 75.4466 29.2822 79.6005L38.021 77.962C37.383 74.5592 37.0345 69.9811 37.0345 64.1401H28.1434ZM29.2907 79.6444C30.083 83.6479 31.1569 87.1123 32.6258 89.8541L40.4631 85.6556C39.5704 83.9893 38.7158 81.4713 38.0126 77.9182L29.2907 79.6444ZM32.6717 89.9377C34.1375 92.5383 36.0428 94.7954 38.5694 96.1558L42.7846 88.3275C42.2413 88.0349 41.3915 87.3008 40.4172 85.572L32.6717 89.9377ZM38.6889 96.2179C40.8235 97.2852 43.0941 97.8679 45.459 97.8679V88.9769C44.5965 88.9769 43.6792 88.7725 42.6651 88.2654L38.6889 96.2179ZM45.459 97.8679C47.8239 97.8679 50.0945 97.2852 52.2291 96.2179L48.2529 88.2654C47.2388 88.7725 46.3214 88.9769 45.459 88.9769V97.8679ZM52.3074 96.1777C54.8855 94.8242 56.8253 92.5636 58.3053 89.9377L50.5598 85.572C49.5997 87.2755 48.7451 88.0061 48.1745 88.3056L52.3074 96.1777ZM58.2924 89.9605C59.8801 87.182 61.0064 83.6765 61.8044 79.6444L53.0825 77.9182C52.3849 81.4428 51.504 83.9196 50.5728 85.5493L58.2924 89.9605ZM61.8044 79.6444C62.6304 75.4711 63.0107 70.2722 63.0107 64.1401H54.1196C54.1196 69.9729 53.7522 74.5347 53.0825 77.9182L61.8044 79.6444ZM120.858 73.7631V78.2087H125.304V73.7631H120.858ZM120.976 46.9014L116.543 46.577L116.539 46.6281L116.536 46.6794L120.976 46.9014ZM121.449 41.8832L125.866 42.3852L127.806 25.3082L117.829 39.3025L121.449 41.8832ZM98.7194 73.7631L95.0997 71.1824L90.0902 78.2087H98.7194V73.7631ZM145.654 73.7631H150.099V69.3176H145.654V73.7631ZM144.709 86.397L141.472 83.3502L141.423 83.4022L141.376 83.4557L144.709 86.397ZM136.798 87.4006V82.9551H132.353V87.4006H136.798ZM136.798 107.178V111.624H141.244V107.178H136.798ZM120.858 107.178H116.413V111.624H120.858V107.178ZM120.858 87.4006H125.304V82.9551H120.858V87.4006ZM83.1337 86.338L80.3939 89.8389L80.4298 89.867L80.4664 89.8944L83.1337 86.338ZM81.4216 83.6813L77.0703 84.5914L77.0759 84.6186L77.082 84.6457L81.4216 83.6813ZM79.5325 74.6487L75.9657 71.9952L74.7715 73.6005L75.1811 75.5588L79.5325 74.6487ZM119.323 21.1613V16.7158H117.09L115.756 18.5079L119.323 21.1613ZM136.798 21.1613H141.244V16.7158H136.798V21.1613ZM136.798 73.7631H132.353V78.2087H136.798V73.7631ZM125.304 73.7631V51.3291H116.413V73.7631H125.304ZM125.304 51.3291C125.304 50.0353 125.341 48.634 125.416 47.1234L116.536 46.6794C116.454 48.3173 116.413 49.8679 116.413 51.3291H125.304ZM125.41 47.2258C125.523 45.6757 125.675 44.0623 125.866 42.3852L117.031 41.3813C116.829 43.1676 116.665 44.8997 116.543 46.577L125.41 47.2258ZM117.829 39.3025L95.0997 71.1824L102.339 76.3439L125.068 44.464L117.829 39.3025ZM98.7194 78.2087H120.858V69.3176H98.7194V78.2087ZM141.208 73.7631V84.0355H150.099V73.7631H141.208ZM141.208 84.0355C141.208 83.9613 141.223 83.8201 141.29 83.6538C141.356 83.4887 141.437 83.3869 141.472 83.3502L147.946 89.4438C149.339 87.9639 150.099 86.092 150.099 84.0355H141.208ZM141.376 83.4557C141.572 83.2335 141.81 83.0821 142.015 83.0029C142.195 82.9332 142.256 82.9551 142.112 82.9551V91.8462C144.148 91.8462 146.385 91.2164 148.043 89.3383L141.376 83.4557ZM142.112 82.9551H136.798V91.8462H142.112V82.9551ZM132.353 87.4006V107.178H141.244V87.4006H132.353ZM136.798 102.732H120.858V111.624H136.798V102.732ZM125.304 107.178V87.4006H116.413V107.178H125.304ZM120.858 82.9551H86.2627V91.8462H120.858V82.9551ZM86.2627 82.9551C86.1182 82.9551 86.0046 82.9342 85.801 82.7815L80.4664 89.8944C82.152 91.1586 84.1244 91.8462 86.2627 91.8462V82.9551ZM85.8735 82.8371C85.823 82.7976 85.794 82.7688 85.7795 82.7531C85.7653 82.7378 85.7618 82.7316 85.7636 82.7343C85.7654 82.7373 85.7676 82.7415 85.7687 82.7441C85.7697 82.7465 85.7662 82.739 85.7613 82.7169L77.082 84.6457C77.5546 86.7728 78.7267 88.5341 80.3939 89.8389L85.8735 82.8371ZM85.773 82.7712L83.8839 73.7386L75.1811 75.5588L77.0703 84.5914L85.773 82.7712ZM83.0993 77.3021L122.89 23.8148L115.756 18.5079L75.9657 71.9952L83.0993 77.3021ZM119.323 25.6069H136.798V16.7158H119.323V25.6069ZM132.353 21.1613V73.7631H141.244V21.1613H132.353ZM136.798 78.2087H145.654V69.3176H136.798V78.2087Z" fill="url(#paint2_linear_335_264)" mask="url(#path-4-outside-2_335_264)"/>
</g>
<defs>
<linearGradient id="paint0_linear_335_264" x1="79.6875" y1="3.40291" x2="79.6875" y2="148.375" gradientUnits="userSpaceOnUse">
<stop stop-color="#D9D9D9"/>
<stop offset="1" stop-color="#737373" stop-opacity="0"/>
</linearGradient>
<linearGradient id="paint1_linear_335_264" x1="232.39" y1="-9.82202" x2="232.39" y2="140.382" gradientUnits="userSpaceOnUse">
<stop stop-color="#D9FFDE"/>
<stop offset="1" stop-color="white" stop-opacity="0"/>
</linearGradient>
<linearGradient id="paint2_linear_335_264" x1="232.39" y1="-9.82202" x2="232.39" y2="140.382" gradientUnits="userSpaceOnUse">
<stop stop-color="#D9FFDE"/>
<stop offset="1" stop-color="white" stop-opacity="0"/>
</linearGradient>
</defs>
</svg>
